<?xml version="1.0" encoding="utf-8"?>
<!-- Generator: Adobe Illustrator 15.1.0, SVG Export Plug-In . SVG Version: 6.00 Build 0)  -->
<!DOCTYPE svg PUBLIC "-//W3C//DTD SVG 1.1//EN" "http://www.w3.org/Graphics/SVG/1.1/DTD/svg11.dtd">
<svg version="1.1" id="Layer_1" xmlns="http://www.w3.org/2000/svg" xmlns:xlink="http://www.w3.org/1999/xlink" x="0px" y="0px"
	 width="50px" height="50px" viewBox="0 0 50 50" enable-background="new 0 0 50 50" xml:space="preserve">
<g>
	<path fill="#0583C1" d="M24.918,3.119c0.233,14.388,0.034,29.207,0.1,43.762c-7.727,0-15.454,0-23.18,0c0-4.797,0-9.592,0-14.389
		c-0.085-0.585,0.018-1.131-0.015-1.662c0-2.598,0.049-4.078,0.049-6.676c2.586-1.177,7.085-3.069,9.607-4.311
		c-0.024,2.438-0.017,4.504,0.049,7.168c0.024,0.517,0.024,0.642,0.001,1.285c0,2.663,0,5.328,0,7.992
		c0.41-0.058,1.215-0.582,1.599-0.999c0-8.158,0-16.318,0-24.478C16.882,8.072,21.049,5.744,24.918,3.119z M23.519,9.813
		c-0.127-1.005,0.259-2.524-0.2-3.197c-1.216,0.981-2.748,1.648-3.896,2.697c0.066,1.033-0.133,2.331,0.1,3.197
		C20.763,11.52,22.381,10.906,23.519,9.813z M17.924,10.112c-1.038,0.794-2.225,1.439-3.297,2.199c0.066,1.032-0.133,2.33,0.1,3.196
		c1.098-0.733,2.196-1.467,3.397-2.098C17.996,12.372,18.383,10.819,17.924,10.112z M23.319,12.312
		c-1.213,0.951-2.607,1.722-3.896,2.597c0.066,1.066-0.133,2.397,0.1,3.298c1.306-0.858,2.638-1.69,3.996-2.498
		C23.391,14.638,23.779,13.05,23.319,12.312z M18.124,18.905c-0.127-0.972,0.258-2.457-0.2-3.098
		c-1.024,0.808-2.196,1.468-3.297,2.198c0,1.065,0,2.132,0,3.197C15.813,20.458,17.13,19.844,18.124,18.905z M19.423,20.604
		c0,1.099,0,2.198,0,3.297c1.442-0.756,2.718-1.678,4.096-2.497c-0.066-1.101,0.133-2.465-0.1-3.397
		C22.124,18.908,20.771,19.754,19.423,20.604z M14.627,23.701c0,1.064,0,2.132,0,3.197c1.247-0.619,2.289-1.442,3.497-2.101
		c-0.066-1.066,0.133-2.396-0.1-3.297C16.918,22.263,15.784,22.993,14.627,23.701z M6.634,24c0,1,0,1.999,0,2.998
		c0.905-0.327,1.681-0.784,2.598-1.1c0-1,0-2,0-2.999C8.259,23.161,7.56,23.695,6.634,24z M19.423,26.298c0,1.101,0,2.198,0,3.298
		c1.202-0.631,2.907-1.621,4.096-2.598c-0.066-1.066,0.133-2.397-0.1-3.297C22.142,24.621,20.802,25.479,19.423,26.298z M5.734,24.4
		c-0.73,0.435-1.515,0.815-2.397,1.099c0,0.999,0,1.999,0,2.997c0.958-0.273,1.709-0.756,2.597-1.1
		C5.808,26.458,6.192,25.008,5.734,24.4z M14.627,29.596c0,1,0,1.997,0,2.997c1.027-0.438,2.354-1.44,3.497-2.098
		c-0.066-1.067,0.133-2.397-0.1-3.298C16.978,28.083,15.572,28.607,14.627,29.596z M9.231,27.996c-0.73,0.436-1.515,0.816-2.398,1.1
		c0,1,0,2,0,2.997c0.958-0.274,1.732-0.731,2.598-1.099C9.305,30.055,9.689,28.604,9.231,27.996z M19.423,32.193
		c0.066,1.031-0.133,2.33,0.1,3.197c1.268-0.896,2.6-1.729,3.996-2.498c-0.066-1.135,0.133-2.531-0.1-3.498
		C22.201,30.441,20.581,31.086,19.423,32.193z M3.537,30.695c0.066,0.966-0.132,2.197,0.1,2.996
		c0.785-0.414,1.597-0.801,2.499-1.101c-0.066-1,0.132-2.264-0.1-3.098C5.277,29.971,4.366,30.292,3.537,30.695z M7.133,33.792
		c0.066,0.966-0.132,2.197,0.1,2.997c0.785-0.413,1.597-0.801,2.498-1.1c-0.066-1,0.132-2.266-0.1-3.099
		C8.875,33.066,7.962,33.389,7.133,33.792z M14.627,35.091c0.066,1.065-0.133,2.396,0.1,3.296c1.077-0.787,2.287-1.441,3.397-2.197
		c-0.066-1.063,0.133-2.396-0.1-3.297C16.967,33.7,15.834,34.434,14.627,35.091z M5.934,34.191
		c-0.694,0.438-1.521,0.742-2.298,1.099c0.066,0.967-0.132,2.196,0.1,2.998c0.769-0.396,1.584-0.747,2.398-1.101
		C6.007,36.25,6.392,34.8,5.934,34.191z M9.532,37.489c-0.777,0.389-1.533,0.798-2.398,1.099c0,0.999,0,1.998,0,2.996
		c0.917-0.314,1.693-0.771,2.598-1.098C9.604,39.547,9.989,38.098,9.532,37.489z M3.636,40.086c0,1,0,1.998,0,2.998
		c0.892-0.309,1.694-0.704,2.499-1.1c-0.066-0.967,0.132-2.197-0.1-2.998C5.277,39.396,4.489,39.771,3.636,40.086z"/>
	<path fill="#0583C1" d="M35.708,9.613c0,12.423,0,24.845,0,37.268c-3.229,0-6.46,0-9.69,0c0-14.454,0-28.908,0-43.362
		c0-0.1,0-0.2,0-0.3C29.271,5.325,32.59,7.37,35.708,9.613z"/>
	<path fill="#0583C1" d="M48.197,33.893c0,4.265,0,8.525,0,12.789c-3.963,0-7.926,0-11.891,0c0-5.529,0-11.059,0-16.586
		C40.288,31.344,44.255,32.605,48.197,33.893z M37.807,36.59c1.213,0.286,2.334,0.663,3.498,0.998c0-0.898,0-1.798,0-2.697
		c-1.14-0.461-2.349-0.85-3.498-1.299C37.807,34.591,37.807,35.591,37.807,36.59z M42.303,37.889
		c1.198,0.299,2.336,0.661,3.497,0.998c0-0.897,0-1.798,0-2.697c-1.139-0.459-2.349-0.85-3.497-1.299
		C42.303,35.891,42.303,36.891,42.303,37.889z M37.807,41.984c1.199,0.3,2.336,0.66,3.498,0.998c0-0.898,0-1.799,0-2.697
		c-1.14-0.46-2.349-0.85-3.498-1.299C37.807,39.986,37.807,40.984,37.807,41.984z M42.303,43.283c1.199,0.299,2.324,0.673,3.497,1
		c0-0.899,0-1.799,0-2.699c-1.149-0.448-2.36-0.837-3.497-1.299C42.303,41.285,42.303,42.284,42.303,43.283z"/>
</g>
</svg>
