<?xml version="1.0" encoding="utf-8"?>
<!-- Generator: Adobe Illustrator 15.1.0, SVG Export Plug-In . SVG Version: 6.00 Build 0)  -->
<!DOCTYPE svg PUBLIC "-//W3C//DTD SVG 1.1//EN" "http://www.w3.org/Graphics/SVG/1.1/DTD/svg11.dtd">
<svg version="1.1" id="Isolation_Mode" xmlns="http://www.w3.org/2000/svg" xmlns:xlink="http://www.w3.org/1999/xlink" x="0px"
	 y="0px" width="425.2px" height="425.2px" viewBox="0 0 425.2 425.2" enable-background="new 0 0 425.2 425.2"
	 xml:space="preserve">
<polyline opacity="0.15" fill="#D4EFFC" points="373.843,48.596 368.335,82.66 358.646,117.326 336.032,171.826 301.937,223.316 
	231.905,198.15 203.846,194.842 192.052,222.174 167.301,234.279 144.721,267.391 94.832,260.607 74.557,294.512 28.891,279.057 
	27.539,256.996 47.453,227.02 56.669,195.602 94.875,179.449 117.31,157.641 135.71,110.271 205.322,120.426 180.21,60.396 
	241.576,65.816 271.54,46.043 306.613,67.152 349.043,39.107 354.837,61.301 373.985,48.445 "/>
<polygon opacity="0.1" fill="#D4EFFC" points="75.434,230.461 106.963,235.391 153.057,216.043 175.2,184.576 204.007,194.809 
	238.482,175.236 260.838,158.195 277.969,112.643 316.996,85.475 306.824,66.977 241.933,65.342 236.62,113.939 204.915,120.484 
	172.175,138.969 117.364,157.172 109.322,205.951 "/>
<polygon opacity="0.2" fill="#D4EFFC" points="109.313,206.063 106.939,235.539 153.205,216.066 "/>
<polygon opacity="0.02" fill="#D4EFFC" points="277.902,112.783 277.877,112.939 260.722,158.295 238.528,175.271 215.862,157.174 
	175.081,184.375 116.597,157.328 172.129,139.137 205.254,120.432 226.114,137.004 236.62,113.939 "/>
<polygon opacity="0.15" fill="#D4EFFC" points="226.127,136.836 259.717,157.398 259.336,155.686 236.737,114.156 "/>
<polygon opacity="0.15" fill="#D4EFFC" points="215.081,157.719 176.979,183.109 176.372,181.9 204.08,122.746 205.889,122.678 "/>
<g opacity="0.55">
	<polygon fill="#FFFFFF" points="236.49,40.656 234.363,36.975 236.49,33.291 240.742,33.291 242.867,36.975 240.742,40.656 	"/>
	<polygon fill="#FFFFFF" points="153.012,75.244 151.596,72.789 153.012,70.334 155.848,70.334 157.264,72.789 155.848,75.244 	"/>
	<polygon fill="#FFFFFF" points="304.131,80.359 302.713,77.904 304.131,75.449 306.965,75.449 308.383,77.904 306.965,80.359 	"/>
	<polygon fill="#FFFFFF" points="221.34,133.848 219.922,131.393 221.34,128.938 224.174,128.938 225.592,131.393 224.174,133.848 	
		"/>
	<polygon fill="#FFFFFF" points="336.223,30.592 334.807,28.137 336.223,25.682 339.059,25.682 340.475,28.137 339.059,30.592 	"/>
	<polygon fill="#FFFFFF" points="338.084,130.127 336.666,127.672 338.084,125.217 340.918,125.217 342.336,127.672 
		340.918,130.127 	"/>
	<polygon fill="#FFFFFF" points="192.037,210.592 190.619,208.137 192.037,205.684 194.871,205.684 196.289,208.137 
		194.871,210.592 	"/>
	<polygon fill="#FFFFFF" points="70.178,199.43 68.76,196.975 70.178,194.52 73.012,194.52 74.43,196.975 73.012,199.43 	"/>
	<polygon fill="#FFFFFF" points="108.781,114.779 107.365,112.324 108.781,109.869 111.617,109.869 113.033,112.324 
		111.617,114.779 	"/>
	<polygon fill="#FFFFFF" points="16.068,384.703 14.652,382.248 16.068,379.793 18.904,379.793 20.32,382.248 18.904,384.703 	"/>
	<polygon fill="#FFFFFF" points="131.107,235.242 129.689,232.787 131.107,230.332 133.941,230.332 135.359,232.787 
		133.941,235.242 	"/>
	<polygon fill="#FFFFFF" points="190.744,170.541 189.893,169.066 190.744,167.594 192.445,167.594 193.295,169.066 
		192.445,170.541 	"/>
	<polygon fill="#FFFFFF" points="140.189,271.033 139.34,269.561 140.189,268.088 141.891,268.088 142.74,269.561 141.891,271.033 	
		"/>
	<polygon fill="#FFFFFF" points="117.377,193.66 116.527,192.188 117.377,190.715 119.078,190.715 119.93,192.188 119.078,193.66 	
		"/>
	<polygon fill="#FFFFFF" points="74.838,245.139 73.988,243.666 74.838,242.193 76.539,242.193 77.389,243.666 76.539,245.139 	"/>
	<polygon fill="#FFFFFF" points="76.996,144.953 76.146,143.48 76.996,142.008 78.697,142.008 79.547,143.48 78.697,144.953 	"/>
	<polygon fill="#FFFFFF" points="226.223,71.02 225.373,69.547 226.223,68.074 227.924,68.074 228.773,69.547 227.924,71.02 	"/>
	<polygon fill="#FFFFFF" points="302.611,118.443 301.762,116.971 302.611,115.498 304.313,115.498 305.162,116.971 
		304.313,118.443 	"/>
	<polygon fill="#FFFFFF" points="352.463,65.162 351.613,63.689 352.463,62.217 354.164,62.217 355.014,63.689 354.164,65.162 	"/>
	<polygon fill="#FFFFFF" points="399.936,8.75 399.086,7.277 399.936,5.805 401.637,5.805 402.486,7.277 401.637,8.75 	"/>
	<polygon fill="#FFFFFF" points="370.033,121.574 369.184,120.102 370.033,118.629 371.734,118.629 372.584,120.102 
		371.734,121.574 	"/>
	<polygon fill="#FFFFFF" points="272.932,223.299 272.082,221.826 272.932,220.354 274.633,220.354 275.482,221.826 
		274.633,223.299 	"/>
	<polygon fill="#FFFFFF" points="183.162,300.971 182.313,299.498 183.162,298.025 184.863,298.025 185.713,299.498 
		184.863,300.971 	"/>
	<polygon fill="#FFFFFF" points="172.162,113.971 171.313,112.498 172.162,111.025 173.863,111.025 174.713,112.498 
		173.863,113.971 	"/>
	<polygon fill="#FFFFFF" points="166.813,40.943 165.963,39.471 166.813,37.998 168.514,37.998 169.363,39.471 168.514,40.943 	"/>
	<polygon fill="#FFFFFF" points="106.813,76.443 105.963,74.971 106.813,73.498 108.514,73.498 109.363,74.971 108.514,76.443 	"/>
	<polygon fill="#FFFFFF" points="286.813,38.443 285.963,36.971 286.813,35.498 288.514,35.498 289.363,36.971 288.514,38.443 	"/>
	<polygon fill="#FFFFFF" points="245.188,190.008 244.338,188.535 245.188,187.063 246.889,187.063 247.738,188.535 
		246.889,190.008 	"/>
	<polygon fill="#FFFFFF" points="180.145,256.283 179.295,254.811 180.145,253.338 181.846,253.338 182.695,254.811 
		181.846,256.283 	"/>
	<polygon fill="#FFFFFF" points="113.561,310.229 112.711,308.756 113.561,307.283 115.262,307.283 116.111,308.756 
		115.262,310.229 	"/>
	<polygon fill="#FFFFFF" points="62.082,327.184 61.232,325.711 62.082,324.238 63.781,324.238 64.631,325.711 63.781,327.184 	"/>
	<polygon fill="#FFFFFF" points="27.556,202.029 26.706,200.557 27.556,199.084 29.257,199.084 30.106,200.557 29.257,202.029 	"/>
	<polygon fill="#FFFFFF" points="51.292,220.834 50.442,219.361 51.292,217.889 52.993,217.889 53.843,219.361 52.993,220.834 	"/>
	<polygon fill="#FFFFFF" points="254.436,156.715 253.586,155.242 254.436,153.77 256.137,153.77 256.986,155.242 256.137,156.715 	
		"/>
	<polygon fill="#FFFFFF" points="237.313,102.443 236.463,100.971 237.313,99.498 239.014,99.498 239.863,100.971 239.014,102.443 	
		"/>
	<polygon fill="#FFFFFF" points="273.813,121.998 272.963,120.525 273.813,119.053 275.514,119.053 276.363,120.525 
		275.514,121.998 	"/>
	<polygon fill="#FFFFFF" points="291.373,160.191 289.246,156.51 291.373,152.826 295.625,152.826 297.75,156.51 295.625,160.191 	
		"/>
	<polygon fill="#FFFFFF" points="145.791,161.121 143.666,157.439 145.791,153.756 150.043,153.756 152.17,157.439 150.043,161.121 
			"/>
	<polygon fill="#FFFFFF" points="89.047,286.703 86.922,283.021 89.047,279.338 93.299,279.338 95.426,283.021 93.299,286.703 	"/>
	<polygon fill="#FFFFFF" points="36.025,288.098 33.898,284.416 36.025,280.732 40.277,280.732 42.402,284.416 40.277,288.098 	"/>
	<polygon fill="#FFFFFF" points="43.467,113.68 41.341,109.998 43.467,106.314 47.719,106.314 49.845,109.998 47.719,113.68 	"/>
	<polygon fill="#FFFFFF" points="380.211,49.029 378.084,45.346 380.211,41.664 384.463,41.664 386.588,45.346 384.463,49.029 	"/>
	<g>
		<path fill="#FFFFFF" d="M400.213,6.947l0.047,0.143l-63.027,20.699l0.226,0.512l0.429-0.074l0.02,0.008l44.575,17.23l-0.127,0.078
			l-29.387,18.344l-0.034-0.08l-15.367-34.889l-31.625,48.27l-18.582-40.354l0.097-0.016l49.85-8.492l-0.276-0.629l0.078-0.025
			L400.213,6.947z M382.147,45.496l-44.239-17.1l-0.244,0.373l15.372,34.898L382.147,45.496z M337.494,28.754l-0.126-0.287
			l-49.79,8.482l18.387,39.93L337.494,28.754z"/>
	</g>
	<g>
		
			<rect x="391.667" y="4.833" transform="matrix(-0.897 -0.442 0.442 -0.897 731.537 222.9489)" fill="#FFFFFF" width="0.15" height="42.834"/>
	</g>
	<g>
		<polygon fill="#FFFFFF" points="353.101,63.67 353.075,63.791 340.192,126.523 340.046,126.494 352.903,63.885 305.838,77.836 
			303.789,117.305 339.57,127.5 306.824,78.381 306.949,78.297 339.922,127.756 339.726,127.701 303.633,117.416 303.636,117.357 
			305.693,77.723 305.744,77.707 		"/>
	</g>
	<g>
		<polygon fill="#FFFFFF" points="353.073,63.754 371.021,120.775 370.942,120.793 339.763,127.701 339.729,127.555 370.83,120.664 
			352.931,63.799 		"/>
	</g>
	<g>
		<g>
			<path fill="#FFFFFF" d="M222.123,131.178"/>
		</g>
	</g>
	<g>
		<g>
			<path fill="#FFFFFF" d="M294.004,156.756"/>
		</g>
	</g>
	<g>
		<path fill="#FFFFFF" d="M238.149,100.641l0.066,0.037l36.426,19.99l0.011,0.02l18.917,35.211l-0.127-0.002l-37.797-0.371
			l0.038,0.117l-0.165-0.119l-0.105-0.002l0.031-0.053l-33.418-24.27l0.03-0.057L238.149,100.641z M274.53,120.777L238.308,100.9
			l17.256,54.365l0.28-0.479l18.229-33.666l0.133,0.072l-18.23,33.668l-0.302,0.514l37.645,0.371L274.53,120.777z M255.402,155.254
			l-17.24-54.316l-15.942,30.217L255.402,155.254z"/>
	</g>
	<g>
		<polygon fill="#FFFFFF" points="255.685,155.23 255.615,155.471 246.042,188.055 246.008,188.068 193.875,208.389 
			181.053,254.354 180.908,254.313 193.75,208.275 193.785,208.262 245.919,187.941 255.401,155.666 192.407,208.658 192.405,208.5 
			191.905,169.664 192.056,169.662 192.554,208.34 		"/>
	</g>
	<g>
		
			<rect x="193.262" y="214.923" transform="matrix(-0.9865 -0.164 0.164 -0.9865 429.3541 465.4537)" fill="#FFFFFF" width="81.269" height="0.151"/>
	</g>
	<g>
		<polygon fill="#FFFFFF" points="173.116,111.959 173.247,112.031 147.738,157.822 192.537,208.449 192.424,208.549 
			147.555,157.842 147.581,157.795 		"/>
	</g>
	<g>
		<polygon fill="#FFFFFF" points="223,130.738 222.827,130.947 191.679,168.758 191.563,168.662 222.539,131.061 148.258,157.469 
			148.207,157.328 		"/>
	</g>
	<g>
		
			<rect x="170.392" y="121.993" transform="matrix(-0.9369 -0.3496 0.3496 -0.9369 339.7394 305.4525)" fill="#FFFFFF" width="54.084" height="0.15"/>
	</g>
	<g>
		<polygon fill="#FFFFFF" points="154.346,72.141 172.882,112.953 172.679,112.836 107.751,75.18 107.827,75.051 172.552,112.588 
			154.209,72.203 		"/>
	</g>
	<g>
		<rect x="111.354" y="112.539" fill="#FFFFFF" width="60.744" height="0.15"/>
	</g>
	<g>
		<g>
			<path fill="#FFFFFF" d="M107.789,75.115"/>
		</g>
	</g>
	<g>
		<path fill="#FFFFFF" d="M239.051,37.316h0.021l0.018,0.012l65.177,40.201l1.635,0.189l-0.075,0.104l-31.079,42.807l28.955-3.342
			l0.018,0.148l-29.295,3.381l0.101-0.139l31.104-42.84l-1.063-0.123l0.439,0.271l-0.15,0.051l-66.723,22.801l-0.025-0.07
			L227.05,69.066c-0.049,0.133-0.097,0.262-0.144,0.391l0.117-0.006l-0.163,0.131l-0.021,0.059l-0.032-0.016l-53.812,43.02
			l64.327-11.57l0.027,0.148l-64.911,11.674l0.231-0.184l53.9-43.092l-71.642,3.232l0.04-0.107l12.537-32.963l-0.003-0.018
			l0.028-0.029l0.247-0.248l-0.108,0.285c1.263,0.938,39.034,19.729,59.085,29.658c0.038-0.102,0.111-0.301,0.217-0.588
			l-0.105-0.301l0.208,0.023c0.871-2.359,3.241-8.777,5.62-15.129C238.734,37.316,238.933,37.316,239.051,37.316z M303.914,77.488
			l-64.853-40.002c-0.661,0.986-7.797,20.143-11.834,31.098L303.914,77.488z M226.503,69.475
			c-2.046-1.014-15.76-7.811-29.318-14.572c-25.166-12.555-28.978-14.6-29.565-14.994l-12.47,32.785L226.503,69.475z
			 M304.216,77.674l-77.042-8.945c-0.015,0.039-0.028,0.078-0.043,0.117l11.095,31.803l66.432-22.701L304.216,77.674z"/>
	</g>
	<g>
		
			<rect x="131.565" y="50.475" transform="matrix(-0.0519 -0.9987 0.9987 -0.0519 64.669 209.1976)" fill="#FFFFFF" width="0.151" height="46.851"/>
	</g>
	<g>
		
			<rect x="44.8" y="111.602" transform="matrix(-0.9997 -0.0264 0.0264 -0.9997 150.7879 225.3415)" fill="#FFFFFF" width="64.158" height="0.15"/>
	</g>
	<g>
		
			<rect x="39.278" y="133.733" transform="matrix(-0.9031 -0.4294 0.4294 -0.9031 126.0122 296.0452)" fill="#FFFFFF" width="114.248" height="0.149"/>
	</g>
	<g>
		
			<rect x="100.343" y="134.789" transform="matrix(-0.638 -0.77 0.77 -0.638 107.7435 320.3776)" fill="#FFFFFF" width="57.664" height="0.15"/>
	</g>
	<g>
		<polygon fill="#FFFFFF" points="77.81,143.602 147.661,157.758 191.622,168.633 254.676,155.465 254.707,155.611 191.62,168.787 
			191.604,168.783 147.629,157.904 77.78,143.748 		"/>
	</g>
	<g>
		
			<rect x="90.404" y="93.69" transform="matrix(-0.0702 -0.9975 0.9975 -0.0702 23.2258 209.1801)" fill="#FFFFFF" width="37.395" height="0.151"/>
	</g>
	<g>
		
			<rect x="94.964" y="171.547" transform="matrix(-0.1047 -0.9945 0.9945 -0.1047 -88.616 309.5701)" fill="#FFFFFF" width="0.149" height="46.253"/>
	</g>
	<g>
		<polygon fill="#FFFFFF" points="193.396,208.488 140.941,269.992 132.037,232.609 132.184,232.574 141.02,269.67 192.897,208.842 
			131.859,232.395 91.539,282.877 91.422,282.783 131.768,232.27 131.785,232.262 		"/>
	</g>
	<g>
		<polygon fill="#FFFFFF" points="180.654,254.592 180.662,254.691 184.008,299.662 183.857,299.674 180.52,254.803 
			140.793,269.871 183.58,299.412 183.494,299.535 140.473,269.832 140.607,269.781 		"/>
	</g>
	<g>
		<polygon fill="#FFFFFF" points="76.051,243.805 90.693,282.908 141.156,269.707 141.043,269.873 114.719,308.568 114.596,308.484 
			140.807,269.953 90.6,283.088 90.576,283.025 75.91,243.857 		"/>
	</g>
	<g>
		
			<rect x="84.368" y="296.052" transform="matrix(-0.6887 -0.725 0.725 -0.6887 -42.4202 574.0424)" fill="#FFFFFF" width="35.288" height="0.151"/>
	</g>
	<g>
		
			<rect x="76.451" y="279.838" transform="matrix(-0.8458 -0.5335 0.5335 -0.8458 -21.2735 603.1285)" fill="#FFFFFF" width="0.15" height="49.601"/>
	</g>
	<g>
		<rect x="38.285" y="283.633" fill="#FFFFFF" width="52.371" height="0.15"/>
	</g>
	<g>
		<polygon fill="#FFFFFF" points="75.043,243.434 75.154,243.535 37.504,284.922 63.354,326.223 63.32,326.264 17.818,382.34 
			17.879,382.043 37.295,285.455 37.441,285.484 18.086,381.773 63.17,326.211 37.316,284.904 37.355,284.861 		"/>
	</g>
	<g>
		
			<rect x="46.832" y="230.991" transform="matrix(-0.6977 -0.7164 0.7164 -0.6977 -57.1588 438.0124)" fill="#FFFFFF" width="34.013" height="0.151"/>
	</g>
	<g>
		
			<rect x="61.05" y="193.866" transform="matrix(-0.7693 -0.6389 0.6389 -0.7693 -24.9065 407.5159)" fill="#FFFFFF" width="0.15" height="28.777"/>
	</g>
	<g>
		<polygon fill="#FFFFFF" points="117.94,192.309 118.07,192.336 193.438,208.184 193.406,208.33 118.169,192.51 132.209,232.65 
			132.123,232.666 75.637,243.34 75.629,243.258 71.578,197.395 27.871,200.754 27.859,200.604 71.715,197.234 71.722,197.307 
			75.771,243.162 132.01,232.535 		"/>
	</g>
	<g>
		<polygon fill="#FFFFFF" points="77.439,143.65 77.552,143.783 118.244,191.918 147.59,157.783 147.703,157.881 118.244,192.148 
			118.187,192.082 77.549,144.012 71.236,197.635 71.088,197.617 		"/>
	</g>
	<g>
		
			<rect x="38.376" y="126.926" transform="matrix(-0.6872 -0.7265 0.7265 -0.6872 12.1717 259.2432)" fill="#FFFFFF" width="47.052" height="0.151"/>
	</g>
	<g>
		
			<rect x="227.722" y="188.642" transform="matrix(-0.3396 -0.9406 0.9406 -0.3396 81.1157 533.3745)" fill="#FFFFFF" width="0.15" height="99.14"/>
	</g>
	<g>
		
			<rect x="298.162" y="116.448" transform="matrix(-0.9724 -0.2334 0.2334 -0.9724 556.3102 339.4555)" fill="#FFFFFF" width="0.151" height="40.736"/>
	</g>
</g>
<g opacity="0.22">
	<polygon fill="#FFFFFF" points="396.207,100.664 395.357,99.191 396.207,97.719 397.908,97.719 398.76,99.191 397.908,100.664 	"/>
	<polygon fill="#FFFFFF" points="402.174,18.908 401.75,18.262 402.174,17.617 403.025,17.617 403.451,18.262 403.025,18.908 	"/>
	<g>
		<polygon fill="#FFFFFF" points="184.055,111.863 182.225,108.693 184.055,105.525 187.715,105.525 189.543,108.693 
			187.715,111.863 		"/>
		<polygon fill="#FFFFFF" points="253.82,98.445 251.992,95.277 253.82,92.107 257.48,92.107 259.311,95.277 257.48,98.445 		"/>
		<polygon fill="#FFFFFF" points="283.582,63.318 281.752,60.15 283.582,56.98 287.24,56.98 289.07,60.15 287.24,63.318 		"/>
		<polygon fill="#FFFFFF" points="348.713,58.195 346.885,55.027 348.713,51.857 352.373,51.857 354.203,55.027 352.373,58.195 		
			"/>
		<polygon fill="#FFFFFF" points="294.563,32.605 293.713,31.133 294.563,29.66 296.264,29.66 297.115,31.133 296.264,32.605 		"/>
		<polygon fill="#FFFFFF" points="227.48,80.904 226.629,79.432 227.48,77.959 229.18,77.959 230.031,79.432 229.18,80.904 		"/>
		<polygon fill="#FFFFFF" points="292.123,90.174 291.273,88.701 292.123,87.229 293.824,87.229 294.676,88.701 293.824,90.174 		
			"/>
		<polygon fill="#FFFFFF" points="279.195,141.646 278.344,140.174 279.195,138.699 280.895,138.699 281.746,140.174 
			280.895,141.646 		"/>
		<polygon fill="#FFFFFF" points="261.143,192.873 260.293,191.4 261.143,189.928 262.844,189.928 263.695,191.4 262.844,192.873 		
			"/>
		<polygon fill="#FFFFFF" points="386.283,34.313 385.434,32.84 386.283,31.367 387.984,31.367 388.836,32.84 387.984,34.313 		"/>
		<polygon fill="#FFFFFF" points="345.789,19.432 344.939,17.959 345.789,16.486 347.49,16.486 348.342,17.959 347.49,19.432 		"/>
		<polygon fill="#FFFFFF" points="190.158,153.111 189.307,151.639 190.158,150.164 191.857,150.164 192.709,151.639 
			191.857,153.111 		"/>
		<polygon fill="#FFFFFF" points="122.344,134.877 121.492,133.586 122.344,132.297 124.043,132.297 124.895,133.586 
			124.043,134.877 		"/>
		<polygon fill="#FFFFFF" points="114.781,188.055 113.93,186.766 114.781,185.475 116.48,185.475 117.332,186.766 116.48,188.055 
					"/>
		<polygon fill="#FFFFFF" points="51.602,209.277 50.75,207.988 51.602,206.697 53.301,206.697 54.152,207.988 53.301,209.277 		"/>
		<polygon fill="#FFFFFF" points="121.855,224.891 121.004,223.6 121.855,222.309 123.555,222.309 124.406,223.6 123.555,224.891 		
			"/>
		<polygon fill="#FFFFFF" points="63.555,279.775 62.703,278.484 63.555,277.195 65.254,277.195 66.105,278.484 65.254,279.775 		
			"/>
		<polygon fill="#FFFFFF" points="20.377,280.264 19.527,278.973 20.377,277.684 22.078,277.684 22.93,278.973 22.078,280.264 		"/>
		<polygon fill="#FFFFFF" points="196.744,200.984 195.893,199.693 196.744,198.404 198.443,198.404 199.295,199.693 
			198.443,200.984 		"/>
		<polygon fill="#FFFFFF" points="151.127,163.174 150.277,161.883 151.127,160.594 152.828,160.594 153.68,161.883 
			152.828,163.174 		"/>
		<polygon fill="#FFFFFF" points="163.813,80.234 162.961,78.943 163.813,77.654 165.512,77.654 166.363,78.943 165.512,80.234 		
			"/>
		<polygon fill="#FFFFFF" points="201.805,52.092 201.379,51.334 201.805,50.576 202.654,50.576 203.08,51.334 202.654,52.092 		"/>
		<polygon fill="#FFFFFF" points="318.572,153.002 318.148,152.357 318.572,151.711 319.424,151.711 319.85,152.357 
			319.424,153.002 		"/>
		<polygon fill="#FFFFFF" points="360.326,103.023 359.902,102.379 360.326,101.734 361.178,101.734 361.604,102.379 
			361.178,103.023 		"/>
		<polygon fill="#FFFFFF" points="357.797,169.766 357.371,169.121 357.797,168.477 358.646,168.477 359.072,169.121 
			358.646,169.766 		"/>
		<polygon fill="#FFFFFF" points="303.207,211.438 302.781,210.713 303.207,209.988 304.057,209.988 304.482,210.713 
			304.057,211.438 		"/>
		<polygon fill="#FFFFFF" points="253.729,243.467 253.303,242.822 253.729,242.178 254.578,242.178 255.004,242.822 
			254.578,243.467 		"/>
		<polygon fill="#FFFFFF" points="205.426,241.887 205,241.24 205.426,240.596 206.275,240.596 206.701,241.24 206.275,241.887 		
			"/>
		<polygon fill="#FFFFFF" points="101.887,258.588 101.463,257.822 101.887,257.057 102.738,257.057 103.164,257.822 
			102.738,258.588 		"/>
		<polygon fill="#FFFFFF" points="87.02,224.186 86.596,223.539 87.02,222.895 87.871,222.895 88.297,223.539 87.871,224.186 		"/>
		<polygon fill="#FFFFFF" points="164.201,129.924 163.775,129.277 164.201,128.633 165.051,128.633 165.477,129.277 
			165.051,129.924 		"/>
		<polygon fill="#FFFFFF" points="238.229,27.629 237.805,26.893 238.229,26.158 239.08,26.158 239.506,26.893 239.08,27.629 		"/>
		<polygon fill="#FFFFFF" points="317.309,63.191 316.883,62.506 317.309,61.822 318.158,61.822 318.584,62.506 318.158,63.191 		
			"/>
		<polygon fill="#FFFFFF" points="318.709,108.203 316.879,105.035 318.709,101.865 322.367,101.865 324.197,105.035 
			322.367,108.203 		"/>
		<polygon fill="#FFFFFF" points="153.074,195.777 151.246,192.607 153.074,189.439 156.734,189.439 158.564,192.607 
			156.734,195.777 		"/>
		<polygon fill="#FFFFFF" points="21.908,310.342 20.814,308.447 21.908,306.551 24.098,306.551 25.191,308.447 24.098,310.342 		
			"/>
		<polygon fill="#FFFFFF" points="105.988,356.338 104.895,354.441 105.988,352.547 108.178,352.547 109.273,354.441 
			108.178,356.338 		"/>
		<polygon fill="#FFFFFF" points="10.318,373.48 9.225,371.586 10.318,369.689 12.508,369.689 13.602,371.586 12.508,373.48 		"/>
		<polygon fill="#FFFFFF" points="37.33,338.02 36.438,336.471 37.33,334.92 39.121,334.92 40.016,336.471 39.121,338.02 		"/>
		<polygon fill="#FFFFFF" points="95.324,305.049 94.561,303.725 95.324,302.398 96.855,302.398 97.619,303.725 96.855,305.049 		
			"/>
		<polygon fill="#FFFFFF" points="140.732,292.395 139.969,291.068 140.732,289.744 142.264,289.744 143.029,291.068 
			142.264,292.395 		"/>
		<polygon fill="#FFFFFF" points="37.029,374.936 36.264,373.611 37.029,372.285 38.559,372.285 39.324,373.611 38.559,374.936 		
			"/>
		<polygon fill="#FFFFFF" points="5.891,334.111 5.126,332.787 5.891,331.461 7.422,331.461 8.186,332.787 7.422,334.111 		"/>
		<polygon fill="#FFFFFF" points="2.777,404.863 2.012,403.537 2.777,402.213 4.307,402.213 5.072,403.537 4.307,404.863 		"/>
		<polygon fill="#FFFFFF" points="94.773,131.621 92.945,128.453 94.773,125.283 98.434,125.283 100.264,128.453 98.434,131.621 		
			"/>
		<polygon fill="#FFFFFF" points="55.988,254.078 54.158,250.91 55.988,247.74 59.646,247.74 61.477,250.91 59.646,254.078 		"/>
		<polygon fill="#FFFFFF" points="83.309,188.947 81.48,185.779 83.309,182.609 86.969,182.609 88.799,185.779 86.969,188.947 		"/>
		<polygon fill="#FFFFFF" points="236.014,157.967 234.184,154.799 236.014,151.629 239.672,151.629 241.502,154.799 
			239.672,157.967 		"/>
		<g>
			<path fill="#FFFFFF" d="M346.196,17.691l0.43,0.004l55.861,0.568l-0.135,0.129l-15.335,14.48l-0.044-0.016L346.196,17.691z
				 M402.114,18.41l-55.061-0.561l39.929,14.85L402.114,18.41z"/>
		</g>
		<g>
			<polygon fill="#FFFFFF" points="386.961,32.723 387.039,32.852 350.571,54.902 397.09,99.574 360.732,102.568 360.718,102.504 
				349.81,55.611 349.956,55.578 360.85,102.408 396.746,99.451 350.327,54.875 350.41,54.824 			"/>
		</g>
		<g>
			<polygon fill="#FFFFFF" points="346.607,17.697 346.643,17.844 295.042,30.566 317.963,62.402 317.919,62.447 292.895,88.326 
				285.063,60.27 285.069,60.246 295.128,31.203 295.271,31.252 285.219,60.273 292.969,88.033 317.768,62.389 294.79,30.475 
				294.898,30.447 			"/>
		</g>
		<g>
			<g>
				<path fill="#FFFFFF" d="M285.99,60.414"/>
			</g>
		</g>
		<g>
			
				<rect x="285.959" y="61.329" transform="matrix(-0.9981 -0.0621 0.0621 -0.9981 599.4616 141.432)" fill="#FFFFFF" width="31.937" height="0.151"/>
		</g>
		<g>
			<polygon fill="#FFFFFF" points="317.94,62.391 320.486,105.242 360.962,102.4 360.849,102.535 319.12,152.225 319.005,152.129 
				360.62,102.574 320.346,105.402 320.341,105.326 317.79,62.4 			"/>
		</g>
		<g>
			
				<rect x="359.094" y="66.074" transform="matrix(-0.1453 -0.9894 0.9894 -0.1453 383.7864 463.8405)" fill="#FFFFFF" width="66.297" height="0.15"/>
		</g>
		<g>
			<path fill="#FFFFFF" d="M285.365,60.117l-0.167,0.201L255.69,95.928l-0.056-0.033l-27.623-16.803l0.154-0.051L285.365,60.117z
				 M255.657,95.732l29.259-35.309l-56.549,18.709L255.657,95.732z"/>
		</g>
		<g>
			<polygon fill="#FFFFFF" points="238.48,26.709 238.575,26.777 285.185,60.211 285.097,60.332 238.582,26.967 228.263,79.127 
				228.116,79.098 			"/>
		</g>
		<g>
			<polygon fill="#FFFFFF" points="238.489,26.775 238.573,26.9 202.583,51.152 228.47,79.416 228.358,79.518 202.354,51.125 
				202.427,51.076 			"/>
		</g>
		<g>
			<polygon fill="#FFFFFF" points="228.488,79.457 237.321,154.135 255.384,95.143 255.526,95.186 237.257,154.859 237.215,154.506 
				228.34,79.475 			"/>
		</g>
		<g>
			<polygon fill="#FFFFFF" points="346.678,17.551 346.699,17.764 350.526,54.904 350.514,54.926 320.442,105.424 320.378,105.387 
				292.839,89.004 279.98,140.373 279.889,140.199 256.057,94.867 256.189,94.797 279.93,139.955 292.743,88.771 292.829,88.824 
				320.39,105.219 350.372,54.871 346.572,17.992 318.031,62.277 349.581,54.389 349.618,54.535 317.699,62.516 317.802,62.355 			
				"/>
		</g>
		<g>
			
				<rect x="274.228" y="72.986" transform="matrix(-0.1961 -0.9806 0.9806 -0.1961 237.8807 379.0233)" fill="#FFFFFF" width="0.149" height="38.035"/>
		</g>
		<g>
			
				<rect x="300.194" y="96.224" transform="matrix(-0.6603 -0.751 0.751 -0.6603 406.121 429.8429)" fill="#FFFFFF" width="0.151" height="53.707"/>
		</g>
		<g>
			<polygon fill="#FFFFFF" points="279.978,140.092 319.085,152.105 358.437,168.979 358.335,169.057 303.494,210.939 
				303.549,210.73 318.627,152.209 318.771,152.246 303.748,210.557 358.142,169.016 319.033,152.246 279.933,140.234 			"/>
		</g>
		<g>
			<path fill="#FFFFFF" d="M279.956,139.932l0.07,0.209l23.722,70.75l-0.159-0.074l-41.393-19.445l0.021-0.064L279.956,139.932z
				 M303.494,210.605l-23.54-70.209l-17.572,50.896L303.494,210.605z"/>
		</g>
		<g>
			
				<rect x="319.938" y="105.618" transform="matrix(-0.9979 -0.0648 0.0648 -0.9979 631.0161 277.8391)" fill="#FFFFFF" width="0.151" height="46.137"/>
		</g>
		<g>
			<polygon fill="#FFFFFF" points="279.93,140.094 279.98,140.234 238.239,155.535 262.368,191.314 262.363,191.344 
				254.188,242.973 254.088,242.896 197.56,199.346 197.741,199.322 261.718,191.48 261.735,191.629 197.94,199.449 
				254.078,242.699 262.21,191.35 238.008,155.461 238.098,155.428 			"/>
		</g>
		<g>
			<polygon fill="#FFFFFF" points="228.123,79.078 228.256,79.146 190.909,151.596 238.127,154.088 238.119,154.238 
				190.669,151.732 190.723,151.629 			"/>
		</g>
		<g>
			<path fill="#FFFFFF" d="M96.437,128.365l19.457,58.375l-0.106-0.002l-31.666-0.666l0.004-0.15l1.596,0.035L96.437,128.365z
				 M115.685,186.586l-19.207-57.623l-10.605,56.996L115.685,186.586z"/>
		</g>
		<g>
			<polygon fill="#FFFFFF" points="97.138,128.258 123.494,133.428 123.51,133.445 151.978,161.748 190.104,151.426 190.143,151.57 
				151.933,161.916 151.902,161.885 123.42,133.566 97.108,128.404 			"/>
		</g>
		<g>
			
				<rect x="217.131" y="147.688" transform="matrix(-0.7388 -0.674 0.674 -0.7388 258.0995 454.8719)" fill="#FFFFFF" width="0.151" height="59.454"/>
		</g>
		<g>
			<path fill="#FFFFFF" d="M186.029,107.99l4.834,43.666l6.514,48.6l-0.101-0.018l-42.798-7.355l0.088-0.102l36.116-41.109
				l-26.361-22.383l-12.305,32.592l-0.02,0.012l-36.307,24.93l0.024-0.17l7.668-53.166l0.148,0.021l-7.644,52.996l36.006-24.721
				l12.363-32.746l0.081,0.068l26.355,22.379l-4.813-43.479L186.029,107.99z M197.201,200.074l-6.465-48.238l-35.969,40.945
				L197.201,200.074z"/>
		</g>
		<g>
			<polygon fill="#FFFFFF" points="185.904,109.109 186.006,109.219 165.084,128.703 165.06,128.707 122.798,133.738 122.78,133.59 
				165.018,128.561 			"/>
		</g>
		<g>
			<polygon fill="#FFFFFF" points="164.624,78.588 228.422,79.039 228.233,79.174 185.938,109.268 185.895,109.207 164.696,79.563 
				164.276,128.633 164.126,128.631 164.55,79.1 164.684,79.287 185.973,109.059 227.957,79.186 164.622,78.738 			"/>
		</g>
		<g>
			
				<rect x="112.38" y="221.039" transform="matrix(-0.8552 -0.5183 0.5183 -0.8552 83.8468 504.9191)" fill="#FFFFFF" width="0.151" height="39.416"/>
		</g>
		<g>
			
				<rect x="180.677" y="220.589" transform="matrix(-0.2073 -0.9783 0.9783 -0.2073 27.5515 463.654)" fill="#FFFFFF" width="41.91" height="0.15"/>
		</g>
		<g>
			<path fill="#FFFFFF" d="M152.03,161.824l2.675,31.08l0.352-0.332l0.052,0.049l50.903,48.475l0.377,0.08L102.16,257.664
				l-0.023-0.055l-14.733-34.205h0.114l34.99,0.182l-0.208-0.043l0.608-0.576l-7.214-36.395l0.106,0.018l38.739,6.152l-2.66-30.904
				L152.03,161.824z M154.69,192.918l-0.079-0.012l-38.728-6.152l7.153,36.092L154.69,192.918z M205.732,241.037l-50.676-48.258
				l-31.985,30.24l0.11,0.557L205.732,241.037z M123.215,223.74h-0.092l-35.491-0.186l14.62,33.943l103.311-16.344l-82.349-17.418
				L123.215,223.74z"/>
		</g>
		<g>
			<polygon fill="#FFFFFF" points="85.189,186.389 85.271,186.514 52.652,208.096 87.548,223.41 87.487,223.547 52.34,208.123 
				52.455,208.047 			"/>
		</g>
		<g>
			<polygon fill="#FFFFFF" points="115.417,187.15 115.536,187.242 87.577,223.525 57.793,251.08 57.773,250.939 51.799,207.998 
				51.947,207.977 57.902,250.775 87.467,223.424 			"/>
		</g>
		<g>
			
				<rect x="67.249" y="204.579" transform="matrix(-0.0738 -0.9973 0.9973 -0.0738 -111.6176 305.6432)" fill="#FFFFFF" width="37.751" height="0.151"/>
		</g>
		<g>
			
				<rect x="359.386" y="102.375" transform="matrix(-0.9992 -0.0389 0.0389 -0.9992 713.3665 285.2841)" fill="#FFFFFF" width="0.151" height="66.643"/>
		</g>
		<g>
			<polygon fill="#FFFFFF" points="102.787,258.291 141.959,290.855 141.932,290.91 107.539,354.523 107.473,354.406 
				64.266,278.793 23.424,308.02 106.363,354.305 106.291,354.436 23.145,308.035 23.24,307.967 64.313,278.574 64.355,278.646 
				107.535,354.215 141.77,290.893 102.691,258.406 			"/>
		</g>
		<g>
			<polygon fill="#FFFFFF" points="206.23,240.537 206.322,240.656 141.885,290.945 96.021,303.633 96.035,303.52 102.131,257.57 
				102.279,257.59 96.199,303.428 141.83,290.805 			"/>
		</g>
		<g>
			<g>
				<path fill="#FFFFFF" d="M96.109,303.529"/>
			</g>
		</g>
		<g>
			<polygon fill="#FFFFFF" points="57.828,250.85 57.859,250.854 102.434,257.539 102.242,257.646 64.426,278.695 96.156,303.471 
				96.064,303.59 64.154,278.674 64.254,278.619 101.977,257.623 57.867,251.008 20.129,279.045 20.039,278.924 			"/>
		</g>
		<g>
			<polygon fill="#FFFFFF" points="57.922,250.912 64.385,278.758 64.291,278.76 21.367,279.059 23.359,308.023 23.209,308.033 
				21.207,278.91 21.287,278.91 64.195,278.609 57.775,250.945 			"/>
		</g>
		<g>
			<polygon fill="#FFFFFF" points="95.492,303.512 107.641,354.475 107.518,354.441 38.486,335.951 6.371,332.479 6.443,332.375 
				22.877,308.676 23,308.762 6.639,332.357 38.514,335.805 107.436,354.264 95.346,303.547 			"/>
		</g>
		<g>
			
				<rect x="13.968" y="322.223" transform="matrix(-0.4744 -0.8803 0.8803 -0.4744 -238.9344 501.9378)" fill="#FFFFFF" width="32.817" height="0.15"/>
		</g>
		<g>
			<polygon fill="#FFFFFF" points="6.924,333.1 11.746,371.32 38.586,335.648 38.582,335.881 37.715,373.842 37.637,373.838 
				11.219,372.297 11.227,372.146 37.568,373.684 38.426,336.111 11.643,371.707 11.619,371.523 6.775,333.119 			"/>
		</g>
		<g>
			
				<rect x="20.575" y="366.35" transform="matrix(-0.6465 -0.7629 0.7629 -0.6465 -262.5967 655.8876)" fill="#FFFFFF" width="0.151" height="44.859"/>
		</g>
	</g>
</g>
<g>
	<g>
		<path fill="#FFFFFF" d="M117.188,157.572l0.089,0.041l57.976,26.832l-0.051,0.074l-22.039,31.619l-0.049-0.01l-43.861-10.039
			l-33.612,24.396l-0.029-0.004l-28.088-3.346l-28.779,9.551l-8.43,28.984l17.113-8.711l-8.049-18.771l0.139-0.059l8.104,18.9
			l-0.063,0.031l-17.484,8.9l0.049-0.166l8.5-29.227l0.037-0.012l28.848-9.574l0.016,0.002L75.6,230.33l33.567-24.365
			L117.188,157.572z M175.028,184.506l-57.725-26.715l-7.981,48.16l43.776,10.02L175.028,184.506z"/>
	</g>
	<g>
		<path fill="#FFFFFF" d="M205.305,120.143l0.053,0.199l9.883,37.371l-0.044,0.031l-40.238,26.945l0.114-0.246L205.305,120.143z
			 M215.068,157.648l-9.803-37.068l-29.942,63.684L215.068,157.648z"/>
	</g>
	<g>
		<polygon fill="#FFFFFF" points="241.593,64.908 241.707,65.055 278.07,111.16 277.953,111.254 241.704,65.293 236.769,113.826 
			278.121,112.627 278.082,112.73 260.838,158.336 260.784,158.334 215.565,156.371 215.571,156.221 260.736,158.182 
			277.902,112.783 236.603,113.98 236.611,113.896 		"/>
	</g>
	<g>
		<polygon fill="#FFFFFF" points="135.775,110.305 172.164,139.033 172.167,139.066 175.215,184.457 192.011,222.09 
			203.371,195.859 203.508,195.92 192.013,222.463 191.943,222.307 175.065,184.48 172.02,139.109 135.682,110.422 		"/>
	</g>
	<g>
		<g>
			<path fill="#FFFFFF" d="M204.08,120.119"/>
		</g>
	</g>
	<g>
		<polygon fill="#FFFFFF" points="317.058,85.096 317.073,85.379 320.192,143.881 320.042,143.889 316.938,85.668 291.298,136.713 
			291.163,136.646 		"/>
	</g>
	<g>
		<path fill="#FFFFFF" d="M306.655,66.732l0.127,0.08l-0.103,0.164l0.058,0.016l61.798,15.516l-0.049,0.17l1.124-0.189l0.025,0.148
			l-1.196,0.201l-9.98,34.461l-0.021,0.016l-38.574,27.531l-0.035-0.01l-28.649-8.094l-0.015-0.027l-13.24-24.012l0.023-0.039
			L306.655,66.732z M341.308,87.422l-24.355-1.969l-0.02-0.033l-10.304-18.361l-28.53,45.648l13.183,23.908l28.554,8.066
			l38.495-27.475l9.945-34.342L341.308,87.422z M368.348,82.615l-0.386-0.096l-61.093-15.34l10.175,18.131l24.257,1.961
			l27.021-4.566L368.348,82.615z"/>
	</g>
	<g>
		<polygon fill="#FFFFFF" points="368.511,82.533 380.738,112.49 380.65,112.508 358.41,117.326 358.379,117.18 380.531,112.381 
			368.372,82.59 		"/>
	</g>
	<g>
		<polygon fill="#FFFFFF" points="396.827,49.068 396.978,49.07 396.746,68.047 396.706,68.066 368.015,82.514 367.946,82.379 
			396.598,67.953 		"/>
	</g>
	<g>
		<path fill="#FFFFFF" d="M371.991,20.055l0.3,0.133l0.718-0.107l0.021,0.148l-0.484,0.072l24.2,10.809l0.001,0.047l0.23,17.912
			l-0.15,0.002l-0.229-17.863L372.27,20.342l-0.251,0.037L354.776,61.48l-5.91-22.316l-29.844-10.803h-0.589l-0.011-0.148
			l53.489-7.971L371.991,20.055z M354.817,60.994l17.027-40.59l-52.68,7.85l29.828,10.797l0.01,0.039L354.817,60.994z"/>
	</g>
	<g>
		<polygon fill="#FFFFFF" points="348.961,38.982 349.043,39.107 306.86,67.061 341.351,87.293 341.36,87.311 358.646,117.541 
			316.996,85.475 278.055,112.766 277.969,112.643 317,85.289 317.044,85.322 358.144,116.965 341.239,87.402 306.577,67.068 
			306.678,67.002 		"/>
	</g>
	<g>
		
			<rect x="364.238" y="43.858" transform="matrix(-0.5335 -0.8458 0.8458 -0.5335 512.0273 392.7134)" fill="#FFFFFF" width="0.15" height="22.59"/>
	</g>
	<g>
		<path fill="#FFFFFF" d="M217.067,21.422l0.414,0.027l101.302,6.785l-0.323,0.123l-46.92,17.686l-0.028-0.012L217.067,21.422z
			 M318.084,28.338l-100.198-6.711l53.66,24.254L318.084,28.338z"/>
	</g>
	<g>
		<polygon fill="#FFFFFF" points="217.493,21.398 217.542,21.488 241.603,65.709 271.541,45.873 271.582,45.898 306.758,67 
			306.68,67.129 271.545,46.051 241.55,65.924 241.511,65.852 217.46,21.65 180.21,60.396 180.103,60.293 		"/>
	</g>
	<g>
		<polygon fill="#FFFFFF" points="175.466,13.229 175.563,13.246 217.49,21.07 217.463,21.217 175.632,13.412 179.786,60.275 
			241.583,65.742 241.569,65.891 179.647,60.414 179.643,60.352 		"/>
	</g>
	<g>
		<polygon fill="#FFFFFF" points="56.462,194.895 109.746,205.936 109.715,206.082 56.751,195.107 76.123,230.057 75.992,230.129 		
			"/>
	</g>
	<g>
		<polygon fill="#FFFFFF" points="117.193,157.627 117.299,157.734 95.081,179.498 109.313,206.063 109.312,206.084 
			107.035,235.348 153.154,215.963 153.19,216.01 166.59,233.234 166.471,233.326 153.107,216.146 106.867,235.582 106.877,235.459 
			109.16,206.094 94.896,179.469 94.936,179.43 		"/>
	</g>
	<g>
		<path fill="#FFFFFF" d="M106.926,235.346l0.074,0.063l37.996,32.16l-0.256-0.035l-49.969-6.92l0.045-0.092L106.926,235.346z
			 M144.504,267.35l-37.527-31.764l-11.98,24.906L144.504,267.35z"/>
	</g>
	<g>
		<polygon fill="#FFFFFF" points="179.95,60.084 236.737,113.85 236.634,113.959 180.362,60.682 205.38,120.393 205.322,120.426 
			172.129,139.137 117.27,157.174 117.223,157.031 172.068,139 205.19,120.328 		"/>
	</g>
	<g>
		<path fill="#FFFFFF" d="M101.057,93.934l0.054,0.207l16.348,62.793l18.223-46.654l0.059,0.01l69.544,9.996l31.532-6.484
			l-0.062,0.135l-10.638,23.082l-0.075-0.059l-20.787-16.527l-69.478-9.986l-18.482,47.32l-0.061-0.01l-41.492-6.924l0.04-0.088
			L101.057,93.934z M117.364,157.172L101.02,94.387l-25.062,56.33l41.24,6.881L117.364,157.172z M226.06,136.781l10.496-22.773
			l-31.099,6.395L226.06,136.781z"/>
	</g>
	<g>
		<path fill="#FFFFFF" d="M238.653,175.02l-0.052,0.178l-6.718,23.029l-0.063-0.008l-27.976-3.377L238.653,175.02z M231.776,198.063
			l6.629-22.729l-34.091,19.414L231.776,198.063z"/>
	</g>
	<g>
		<path fill="#FFFFFF" d="M284.985,165.012l0.028,0.096l17.091,58.381l-0.139-0.051l-70.307-25.273l0.131-0.082L284.985,165.012z
			 M301.878,223.248l-16.98-58.004l-52.896,32.883L301.878,223.248z"/>
	</g>
	<g>
		<path fill="#FFFFFF" d="M192.052,222.174l0.029,0.074l33.308,83.656l-58.268-71.693l0.086-0.041L192.052,222.174z
			 M224.887,305.049l-32.915-82.67l-24.614,11.885L224.887,305.049z"/>
	</g>
	<g>
		<polygon fill="#FFFFFF" points="284.938,165.053 284.951,165.055 336.266,171.707 336.199,171.807 302.054,223.408 
			225.154,305.568 225.105,305.545 144.719,267.527 144.783,267.393 225.119,305.387 301.937,223.316 336.008,171.824 
			284.945,165.205 238.546,176.021 238.513,175.875 		"/>
	</g>
	<g>
		<polygon fill="#FFFFFF" points="226.062,136.797 226.127,136.836 260.117,157.617 260.039,157.746 226.114,137.004 
			214.887,156.277 238.53,175.082 260.742,158.199 290.565,136.84 290.653,136.961 260.831,158.32 238.528,175.271 238.482,175.236 
			214.691,156.314 214.725,156.258 		"/>
	</g>
	<g>
		<g>
			<path fill="#FFFFFF" d="M284.941,165.129"/>
		</g>
	</g>
	<g>
		<polygon fill="#FFFFFF" points="319.876,144.662 319.914,144.725 336.201,171.727 336.072,171.805 319.823,144.865 
			284.979,165.193 284.903,165.064 		"/>
	</g>
	<g>
		<polygon fill="#FFFFFF" points="236.751,113.867 260.838,158.195 284.886,165.035 291.157,136.662 291.304,136.695 
			284.997,165.223 284.921,165.201 260.736,158.322 260.722,158.295 236.62,113.939 		"/>
	</g>
	<g>
		<polygon fill="#FFFFFF" points="396.602,67.975 396.742,68.025 380.713,112.439 397.805,180.594 397.694,180.578 336.032,171.826 
			336.067,171.738 358.381,115.645 358.459,115.773 397.5,180.137 397.371,180.215 358.408,115.98 336.241,171.705 397.605,180.414 
			380.557,112.432 380.564,112.41 		"/>
	</g>
	<g>
		<path fill="#FFFFFF" d="M180.435,60.182l-0.223,0.25l-44.465,50.023l-0.05-0.023l-34.843-16.275l0.154-0.066L180.435,60.182z
			 M135.71,110.271l44.168-49.689l-78.656,33.58L135.71,110.271z"/>
	</g>
	<g>
		<polygon fill="#FFFFFF" points="421.922,3.777 421.85,3.918 415.15,17.045 396.945,49.146 396.9,49.145 373.981,48.668 
			368.516,82.574 368.367,82.551 373.854,48.516 373.92,48.516 396.859,48.994 415.019,16.975 421.645,3.99 394.617,9.799 
			372.063,20.223 372,20.086 394.57,9.658 		"/>
	</g>
	<g>
		<polygon fill="#FFFFFF" points="415.009,17.012 415.159,17.012 415.159,35.502 415.128,35.525 397.218,48.652 397.13,48.531 
			415.009,35.426 		"/>
	</g>
	<g>
		
			<rect x="101.108" y="186.793" transform="matrix(-0.5318 -0.8469 0.8469 -0.5318 49.4039 401.0517)" fill="#FFFFFF" width="68.928" height="0.15"/>
	</g>
	<g>
		<polygon fill="#FFFFFF" points="215.082,157.082 215.227,157.125 204.13,194.893 204.055,194.865 175.2,184.576 167.301,234.279 
			144.621,267.783 144.676,267.447 153.057,216.043 153.205,216.066 144.879,267.135 167.168,234.209 175.081,184.375 
			204.03,194.697 		"/>
	</g>
	<g>
		<g>
			<path fill="#FFFFFF" d="M75.619,230.408"/>
		</g>
	</g>
	<g>
		
			<rect x="75.416" y="232.861" transform="matrix(-0.9872 -0.1593 0.1593 -0.9872 144.2911 477.4417)" fill="#FFFFFF" width="31.737" height="0.15"/>
	</g>
	<g>
		
			<rect x="241.633" y="66.007" transform="matrix(-0.9995 -0.0306 0.0306 -0.9995 545.1688 140.519)" fill="#FFFFFF" width="64.055" height="0.15"/>
	</g>
	<g>
		<polygon fill="#FFFFFF" points="204.153,194.781 225.1,304.877 231.755,198.141 231.905,198.15 225.176,306.076 225.064,305.49 
			204.007,194.809 		"/>
	</g>
	<g>
		<polygon fill="#FFFFFF" points="75.645,230.98 75.684,231.039 94.67,260.512 94.543,260.594 75.594,231.18 27.561,257.549 
			27.488,257.418 		"/>
	</g>
	<g>
		<polygon fill="#FFFFFF" points="47.453,227.02 47.578,227.104 27.66,256.93 94.609,260.797 94.602,260.947 27.391,257.064 
			27.463,256.955 		"/>
	</g>
	<g>
		<polygon fill="#FFFFFF" points="372.491,20.174 372.499,20.324 373.985,48.445 396.626,31.098 396.718,31.217 373.851,48.738 
			373.843,48.596 372.356,20.482 348.708,39.521 348.612,39.406 		"/>
	</g>
	<g>
		<polygon fill="#FFFFFF" points="394.515,9.617 394.625,9.654 415.107,16.51 415.061,16.652 394.688,9.834 396.963,31.018 
			415.494,16.951 415.584,17.07 396.842,31.297 396.828,31.166 		"/>
	</g>
	<g>
		<polygon fill="#FFFFFF" points="334.693,8.721 334.74,8.734 372.445,20.256 372.402,20.398 334.744,8.893 318.501,28.322 
			306.824,66.977 354.835,61.158 354.86,61.197 368.335,82.66 368.208,82.74 354.759,61.318 306.613,67.152 306.646,67.043 
			318.376,28.238 		"/>
	</g>
	<g>
		
			<rect x="240.646" y="-11.331" transform="matrix(-0.3396 -0.9406 0.9406 -0.3396 309.9526 244.254)" fill="#FFFFFF" width="0.15" height="49.3"/>
	</g>
	<g>
		<polygon fill="#FFFFFF" points="263.958,5.016 264.379,5.037 334.723,8.73 334.715,8.881 264.792,5.209 318.463,28.217 
			318.404,28.355 		"/>
	</g>
	<g>
		<path fill="#FFFFFF" d="M62.753,105.707l0.09,0.121l-34.669,25.896l47.336,19.283l0.352-0.352l19.24,28.861l-38.433,16.084
			l-9.126,31.637l-0.09-0.137l-19.01-28.877l-0.162,0.014l0.147-0.146l46.966-46.969l-47.523-19.359l0.466-0.348L62.753,105.707z
			 M94.875,179.449l-19.037-28.557l-0.178,0.178l0.236,0.096l-0.031,0.07l-19.116,44.17L94.875,179.449z M75.697,151.248
			l-0.151-0.063l-46.864,46.865l27.874-2.574L75.697,151.248z M56.464,195.688l0.023-0.055l-27.874,2.576l18.875,28.674
			l9.003-31.207L56.464,195.688z"/>
	</g>
	<g>
		<g>
			<path fill="#FFFFFF" d="M63.126,105.768"/>
		</g>
	</g>
	<g>
		
			<rect x="46.102" y="128.195" transform="matrix(-0.272 -0.9623 0.9623 -0.272 -35.042 230.032)" fill="#FFFFFF" width="46.772" height="0.15"/>
	</g>
	<g>
		
			<rect x="-4.902" y="164.735" transform="matrix(-0.0015 -1 1 -0.0015 -136.3362 193.4884)" fill="#FFFFFF" width="66.668" height="0.15"/>
	</g>
	<g>
		<polygon fill="#FFFFFF" points="28.063,198.324 28.17,198.43 15.211,211.666 47.137,227.074 47.072,227.209 14.957,211.711 
			15.03,211.635 		"/>
	</g>
	<g>
		
			<rect x="4.196" y="224.227" transform="matrix(-0.1461 -0.9893 0.9893 -0.1461 -202.4747 273.8285)" fill="#FFFFFF" width="25.5" height="0.15"/>
	</g>
	<g>
		<polygon fill="#FFFFFF" points="27.6,256.992 28.945,279.135 28.818,279.049 9.924,266.203 10.008,266.078 28.777,278.84 
			27.449,257.002 		"/>
	</g>
	<g>
		<polygon fill="#FFFFFF" points="95.045,260.43 94.947,260.592 74.83,294.113 114.938,279.848 114.988,279.988 74.486,294.395 
			74.594,294.215 94.723,260.676 28.891,279.057 5.77,293.006 5.795,292.846 10.121,265.805 10.27,265.828 5.969,292.711 
			28.84,278.914 		"/>
	</g>
	<g>
		<g>
			<path fill="#FFFFFF" d="M114.963,279.918"/>
		</g>
	</g>
	<g>
		
			<rect x="27.582" y="286.639" transform="matrix(-0.9467 -0.3221 0.3221 -0.9467 8.0599 574.7611)" fill="#FFFFFF" width="47.982" height="0.151"/>
	</g>
	<g>
		<polygon fill="#FFFFFF" points="94.936,260.5 114.98,279.83 144.721,267.391 144.779,267.529 114.947,280.006 114.912,279.973 
			94.832,260.607 		"/>
	</g>
	<g>
		<path fill="#FFFFFF" d="M117.199,152.252c2.901,0,5.263,2.361,5.263,5.264c0,2.9-2.361,5.262-5.263,5.262
			c-2.902,0-5.265-2.361-5.265-5.262C111.935,154.613,114.297,152.252,117.199,152.252z M117.199,162.627
			c2.819,0,5.112-2.293,5.112-5.111c0-2.82-2.293-5.113-5.112-5.113c-2.82,0-5.114,2.293-5.114,5.113
			C112.085,160.334,114.379,162.627,117.199,162.627z"/>
	</g>
	<g>
		<path fill="#FFFFFF" d="M175.09,179.303c2.864,0,5.194,2.33,5.194,5.195c0,2.863-2.33,5.193-5.194,5.193s-5.194-2.33-5.194-5.193
			C169.896,181.633,172.226,179.303,175.09,179.303z M175.09,189.541c2.781,0,5.044-2.262,5.044-5.043s-2.263-5.045-5.044-5.045
			s-5.044,2.264-5.044,5.045S172.309,189.541,175.09,189.541z"/>
	</g>
	<g>
		<path fill="#FFFFFF" d="M153.164,211.314c2.559,0,4.64,2.08,4.64,4.637c0,2.559-2.081,4.641-4.64,4.641s-4.64-2.082-4.64-4.641
			C148.524,213.395,150.605,211.314,153.164,211.314z M153.164,220.441c2.476,0,4.489-2.014,4.489-4.49
			c0-2.475-2.014-4.486-4.489-4.486s-4.489,2.012-4.489,4.486C148.675,218.428,150.688,220.441,153.164,220.441z"/>
	</g>
	<g>
		<path fill="#FFFFFF" d="M205.174,115.084c2.978,0,5.399,2.422,5.399,5.4c0,2.977-2.422,5.398-5.399,5.398
			s-5.399-2.422-5.399-5.398C199.774,117.506,202.196,115.084,205.174,115.084z M205.174,125.732c2.895,0,5.249-2.354,5.249-5.248
			s-2.354-5.25-5.249-5.25s-5.249,2.355-5.249,5.25S202.279,125.732,205.174,125.732z"/>
	</g>
	<g>
		<path fill="#FFFFFF" d="M277.996,107.545c2.864,0,5.194,2.33,5.194,5.195c0,2.863-2.33,5.193-5.194,5.193
			c-2.865,0-5.196-2.33-5.196-5.193C272.8,109.875,275.131,107.545,277.996,107.545z M277.996,117.783
			c2.781,0,5.044-2.262,5.044-5.043s-2.263-5.045-5.044-5.045c-2.782,0-5.046,2.264-5.046,5.045S275.214,117.783,277.996,117.783z"
			/>
	</g>
	<g>
		<path fill="#FFFFFF" d="M368.402,77.182c2.939,0,5.331,2.393,5.331,5.332s-2.392,5.33-5.331,5.33s-5.331-2.391-5.331-5.33
			S365.463,77.182,368.402,77.182z M368.402,87.693c2.856,0,5.181-2.324,5.181-5.18c0-2.857-2.324-5.182-5.181-5.182
			s-5.181,2.324-5.181,5.182C363.222,85.369,365.546,87.693,368.402,87.693z"/>
	</g>
	<g>
		<path fill="#FFFFFF" d="M396.646,44.256c2.639,0,4.786,2.148,4.786,4.787s-2.147,4.785-4.786,4.785s-4.786-2.146-4.786-4.785
			S394.008,44.256,396.646,44.256z M396.646,53.678c2.557,0,4.636-2.078,4.636-4.635s-2.079-4.637-4.636-4.637
			s-4.636,2.08-4.636,4.637S394.09,53.678,396.646,53.678z"/>
	</g>
	<g>
		<path fill="#FFFFFF" d="M241.461,60.666c2.744,0,4.978,2.234,4.978,4.979c0,2.742-2.233,4.975-4.978,4.975
			c-2.743,0-4.976-2.232-4.976-4.975C236.485,62.9,238.718,60.666,241.461,60.666z M241.461,70.469c2.662,0,4.827-2.164,4.827-4.824
			c0-2.662-2.165-4.828-4.827-4.828c-2.661,0-4.825,2.166-4.825,4.828C236.636,68.305,238.8,70.469,241.461,70.469z"/>
	</g>
	<g>
		<path fill="#FFFFFF" d="M260.717,152.801c2.688,0,4.874,2.188,4.874,4.875c0,2.686-2.187,4.871-4.874,4.871
			c-2.687,0-4.872-2.186-4.872-4.871C255.845,154.988,258.03,152.801,260.717,152.801z M260.717,162.396
			c2.604,0,4.724-2.117,4.724-4.721c0-2.605-2.119-4.725-4.724-4.725c-2.604,0-4.722,2.119-4.722,4.725
			C255.995,160.279,258.113,162.396,260.717,162.396z"/>
	</g>
	<g>
		<path fill="#FFFFFF" d="M320.063,139.84c2.688,0,4.874,2.186,4.874,4.873s-2.187,4.873-4.874,4.873
			c-2.687,0-4.872-2.186-4.872-4.873S317.376,139.84,320.063,139.84z M320.063,149.436c2.604,0,4.724-2.119,4.724-4.723
			s-2.119-4.723-4.724-4.723c-2.604,0-4.722,2.119-4.722,4.723S317.459,149.436,320.063,149.436z"/>
	</g>
	<g>
		<path fill="#FFFFFF" d="M358.305,112.178c2.623,0,4.757,2.135,4.757,4.76c0,2.623-2.134,4.756-4.757,4.756
			s-4.757-2.133-4.757-4.756C353.548,114.313,355.682,112.178,358.305,112.178z M358.305,121.543c2.54,0,4.606-2.066,4.606-4.605
			c0-2.541-2.066-4.609-4.606-4.609s-4.606,2.068-4.606,4.609C353.698,119.477,355.765,121.543,358.305,121.543z"/>
	</g>
	<g>
		<path fill="#FFFFFF" d="M306.605,63.443c1.89,0,3.427,1.537,3.427,3.428c0,1.889-1.537,3.426-3.427,3.426
			s-3.427-1.537-3.427-3.426C303.179,64.98,304.716,63.443,306.605,63.443z M306.605,70.146c1.807,0,3.276-1.469,3.276-3.275
			s-1.47-3.277-3.276-3.277s-3.276,1.471-3.276,3.277S304.799,70.146,306.605,70.146z"/>
	</g>
	<g>
		<path fill="#FFFFFF" d="M341.256,83.75c1.926,0,3.493,1.568,3.493,3.494s-1.567,3.492-3.493,3.492s-3.493-1.566-3.493-3.492
			S339.33,83.75,341.256,83.75z M341.256,90.586c1.844,0,3.343-1.498,3.343-3.342S343.1,83.9,341.256,83.9s-3.343,1.5-3.343,3.344
			S339.412,90.586,341.256,90.586z"/>
	</g>
	<g>
		<path fill="#FFFFFF" d="M75.432,225.709c2.639,0,4.785,2.145,4.785,4.781c0,2.639-2.146,4.785-4.785,4.785
			c-2.637,0-4.781-2.146-4.781-4.785C70.65,227.854,72.795,225.709,75.432,225.709z M75.432,235.125
			c2.557,0,4.635-2.078,4.635-4.635c0-2.553-2.078-4.631-4.635-4.631c-2.553,0-4.631,2.078-4.631,4.631
			C70.801,233.047,72.879,235.125,75.432,235.125z"/>
	</g>
	<g>
		<path fill="#FFFFFF" d="M18.531,231.604c2.688,0,4.875,2.188,4.875,4.875c0,2.689-2.188,4.879-4.875,4.879
			c-2.689,0-4.877-2.189-4.877-4.879C13.654,233.791,15.842,231.604,18.531,231.604z M18.531,241.207
			c2.605,0,4.725-2.121,4.725-4.729c0-2.605-2.119-4.725-4.725-4.725s-4.727,2.119-4.727,4.725
			C13.805,239.086,15.926,241.207,18.531,241.207z"/>
	</g>
	<g>
		<path fill="#FFFFFF" d="M10.188,262.711c1.754,0,3.182,1.426,3.182,3.18c0,1.756-1.428,3.184-3.182,3.184
			s-3.182-1.428-3.182-3.184C7.006,264.137,8.434,262.711,10.188,262.711z M10.188,268.924c1.672,0,3.031-1.361,3.031-3.033
			c0-1.67-1.359-3.029-3.031-3.029s-3.031,1.359-3.031,3.029C7.156,267.563,8.516,268.924,10.188,268.924z"/>
	</g>
	<polygon fill="#FFFFFF" points="115.404,160.623 113.609,157.516 115.404,154.408 118.992,154.408 120.787,157.516 
		118.992,160.623 	"/>
	<polygon fill="#FFFFFF" points="151.369,219.059 149.576,215.951 151.369,212.844 154.959,212.844 156.752,215.951 
		154.959,219.059 	"/>
	<polygon fill="#FFFFFF" points="173.295,187.605 171.502,184.498 173.295,181.391 176.885,181.391 178.678,184.498 
		176.885,187.605 	"/>
	<polygon fill="#FFFFFF" points="258.922,160.783 257.129,157.676 258.922,154.568 262.512,154.568 264.305,157.676 
		262.512,160.783 	"/>
	<polygon fill="#FFFFFF" points="276.201,115.848 274.408,112.74 276.201,109.633 279.791,109.633 281.584,112.74 279.791,115.848 	
		"/>
	<polygon fill="#FFFFFF" points="356.51,120.045 354.717,116.938 356.51,113.83 360.1,113.83 361.893,116.938 360.1,120.045 	"/>
	<polygon fill="#FFFFFF" points="318.268,147.82 316.475,144.713 318.268,141.605 321.857,141.605 323.65,144.713 321.857,147.82 	
		"/>
	<polygon fill="#FFFFFF" points="203.379,123.592 201.586,120.484 203.379,117.377 206.969,117.377 208.762,120.484 
		206.969,123.592 	"/>
	<polygon fill="#FFFFFF" points="73.824,233.516 72.031,230.408 73.824,227.301 77.414,227.301 79.207,230.408 77.414,233.516 	"/>
	<polygon fill="#FFFFFF" points="16.736,239.586 14.943,236.479 16.736,233.371 20.326,233.371 22.119,236.479 20.326,239.586 	"/>
	<polygon fill="#FFFFFF" points="239.854,68.924 238.061,65.816 239.854,62.709 243.443,62.709 245.236,65.816 243.443,68.924 	"/>
	<polygon fill="#FFFFFF" points="394.852,52.15 393.059,49.043 394.852,45.936 398.441,45.936 400.234,49.043 398.441,52.15 	"/>
	<polygon fill="#FFFFFF" points="366.607,85.621 364.814,82.514 366.607,79.406 370.197,79.406 371.99,82.514 370.197,85.621 	"/>
	<polygon fill="#FFFFFF" points="305.584,69.029 304.451,67.064 305.584,65.102 307.854,65.102 308.986,67.064 307.854,69.029 	"/>
	<polygon fill="#FFFFFF" points="340.16,89.311 339.027,87.348 340.16,85.383 342.43,85.383 343.563,87.348 342.43,89.311 	"/>
	<polygon fill="#FFFFFF" points="290.096,138.643 288.963,136.68 290.096,134.715 292.365,134.715 293.498,136.68 292.365,138.643 	
		"/>
	<polygon fill="#FFFFFF" points="235.551,115.676 234.418,113.713 235.551,111.748 237.82,111.748 238.953,113.713 237.82,115.676 	
		"/>
	<polygon fill="#FFFFFF" points="134.594,112.328 133.461,110.363 134.594,108.4 136.863,108.4 137.996,110.363 136.863,112.328 	
		"/>
	<polygon fill="#FFFFFF" points="170.957,141.035 169.824,139.072 170.957,137.107 173.227,137.107 174.359,139.072 
		173.227,141.035 	"/>
	<polygon fill="#FFFFFF" points="214.02,158.26 212.887,156.297 214.02,154.332 216.289,154.332 217.422,156.297 216.289,158.26 	
		"/>
	<polygon fill="#FFFFFF" points="190.877,224.238 189.744,222.275 190.877,220.311 193.146,220.311 194.279,222.275 
		193.146,224.238 	"/>
	<polygon fill="#FFFFFF" points="108.102,207.971 106.969,206.008 108.102,204.043 110.371,204.043 111.504,206.008 
		110.371,207.971 	"/>
	<polygon fill="#FFFFFF" points="55.472,196.967 54.339,195.002 55.472,193.039 57.741,193.039 58.874,195.002 57.741,196.967 	"/>
	<polygon fill="#FFFFFF" points="46.381,229.023 45.248,227.061 46.381,225.096 48.65,225.096 49.783,227.061 48.65,229.023 	"/>
	<polygon fill="#FFFFFF" points="9.061,267.779 7.928,265.816 9.061,263.852 11.33,263.852 12.463,265.816 11.33,267.779 	"/>
	<polygon fill="#FFFFFF" points="93.748,262.516 92.615,260.553 93.748,258.588 96.018,258.588 97.15,260.553 96.018,262.516 	"/>
	<polygon fill="#FFFFFF" points="300.857,225.33 299.724,223.367 300.856,221.402 303.126,221.402 304.259,223.367 303.127,225.33 	
		"/>
	<polygon fill="#FFFFFF" points="372.695,50.555 371.563,48.592 372.695,46.627 374.965,46.627 376.098,48.592 374.965,50.555 	"/>
	<polygon fill="#FFFFFF" points="413.844,18.977 412.711,17.012 413.844,15.049 416.113,15.049 417.246,17.012 416.113,18.977 	"/>
	<polygon fill="#FFFFFF" points="348.293,40.52 347.586,39.293 348.293,38.064 349.711,38.064 350.42,39.293 349.711,40.52 	"/>
	<polygon fill="#FFFFFF" points="316.289,86.453 315.58,85.225 316.289,83.998 317.707,83.998 318.414,85.225 317.707,86.453 	"/>
	<polygon fill="#FFFFFF" points="284.232,166.357 283.523,165.129 284.232,163.902 285.65,163.902 286.357,165.129 285.65,166.357 	
		"/>
	<polygon fill="#FFFFFF" points="224.428,306.703 223.719,305.477 224.428,304.248 225.846,304.248 226.553,305.477 
		225.846,306.703 	"/>
	<polygon fill="#FFFFFF" points="144.041,268.688 143.332,267.459 144.041,266.232 145.459,266.232 146.166,267.459 
		145.459,268.688 	"/>
	<polygon fill="#FFFFFF" points="216.768,22.754 216.059,21.525 216.768,20.299 218.186,20.299 218.893,21.525 218.186,22.754 	"/>
	<polygon fill="#FFFFFF" points="175.018,14.52 174.486,13.598 175.018,12.678 176.08,12.678 176.611,13.598 176.08,14.52 	"/>
	<polygon fill="#FFFFFF" points="263.844,6.033 263.313,5.113 263.844,4.191 264.906,4.191 265.438,5.113 264.906,6.033 	"/>
	<polygon fill="#FFFFFF" points="334.188,9.727 333.656,8.807 334.188,7.885 335.25,7.885 335.781,8.807 335.25,9.727 	"/>
	<polygon fill="#FFFFFF" points="394.475,10.648 393.943,9.727 394.475,8.807 395.539,8.807 396.07,9.727 395.539,10.648 	"/>
	<polygon fill="#FFFFFF" points="124.985,47.361 124.454,46.439 124.985,45.52 126.048,45.52 126.579,46.439 126.048,47.361 	"/>
	<polygon fill="#FFFFFF" points="10.367,47.775 9.836,46.854 10.367,45.934 11.43,45.934 11.961,46.854 11.43,47.775 	"/>
	<polygon fill="#FFFFFF" points="62.267,106.689 61.735,105.768 62.267,104.848 63.33,104.848 63.861,105.768 63.33,106.689 	"/>
	<polygon fill="#FFFFFF" points="27.95,132.664 27.419,131.744 27.95,130.822 29.014,130.822 29.545,131.744 29.014,132.664 	"/>
	<polygon fill="#FFFFFF" points="14.562,212.67 14.03,211.75 14.562,210.828 15.626,210.828 16.157,211.75 15.626,212.67 	"/>
	<polygon fill="#FFFFFF" points="5.32,293.602 4.789,292.682 5.32,291.76 6.385,291.76 6.916,292.682 6.385,293.602 	"/>
	<polygon fill="#FFFFFF" points="28.41,279.832 27.879,278.912 28.41,277.99 29.475,277.99 30.006,278.912 29.475,279.832 	"/>
	<polygon fill="#FFFFFF" points="74.025,295.443 73.494,294.523 74.025,293.602 75.088,293.602 75.619,294.523 75.088,295.443 	"/>
	<polygon fill="#FFFFFF" points="114.379,280.752 113.848,279.832 114.379,278.91 115.441,278.91 115.973,279.832 115.441,280.752 	
		"/>
	<polygon fill="#FFFFFF" points="396.996,182.002 396.289,180.775 396.996,179.547 398.414,179.547 399.123,180.775 
		398.414,182.002 	"/>
	<polygon fill="#FFFFFF" points="335.428,172.992 334.719,171.766 335.428,170.537 336.846,170.537 337.553,171.766 
		336.846,172.992 	"/>
	<polygon fill="#FFFFFF" points="379.926,113.662 379.217,112.436 379.926,111.207 381.344,111.207 382.051,112.436 
		381.344,113.662 	"/>
	<polygon fill="#FFFFFF" points="354.088,62.467 353.381,61.238 354.088,60.012 355.506,60.012 356.215,61.238 355.506,62.467 	"/>
	<polygon fill="#FFFFFF" points="225.379,138.127 224.672,136.9 225.379,135.672 226.797,135.672 227.506,136.9 226.797,138.127 	
		"/>
	<polygon fill="#FFFFFF" points="270.834,47.219 270.127,45.99 270.834,44.764 272.252,44.764 272.961,45.99 272.252,47.219 	"/>
	<polygon fill="#FFFFFF" points="414.375,36.691 413.666,35.465 414.375,34.236 415.793,34.236 416.5,35.465 415.793,36.691 	"/>
	<polygon fill="#FFFFFF" points="396.193,32.387 395.484,31.158 396.193,29.932 397.611,29.932 398.318,31.158 397.611,32.387 	"/>
	<polygon fill="#FFFFFF" points="237.82,176.404 237.111,175.178 237.82,173.949 239.238,173.949 239.945,175.178 239.238,176.404 	
		"/>
	<polygon fill="#FFFFFF" points="203.371,196.021 202.662,194.795 203.371,193.566 204.789,193.566 205.496,194.795 
		204.789,196.021 	"/>
	<polygon fill="#FFFFFF" points="166.529,235.734 165.82,234.508 166.529,233.279 167.947,233.279 168.654,234.508 167.947,235.734 
			"/>
	<polygon fill="#FFFFFF" points="106.242,236.691 105.533,235.465 106.242,234.236 107.66,234.236 108.367,235.465 107.66,236.691 	
		"/>
	<polygon fill="#FFFFFF" points="75.141,152.004 74.434,150.775 75.141,149.549 76.559,149.549 77.268,150.775 76.559,152.004 	"/>
	<polygon fill="#FFFFFF" points="178.66,63.045 177.244,60.588 178.66,58.133 181.496,58.133 182.912,60.588 181.496,63.045 	"/>
	<polygon fill="#FFFFFF" points="100.329,95.387 99.622,94.16 100.329,92.932 101.747,92.932 102.456,94.16 101.747,95.387 	"/>
	<polygon fill="#FFFFFF" points="27.772,199.371 27.065,198.145 27.772,196.916 29.19,196.916 29.899,198.145 29.19,199.371 	"/>
	<polygon fill="#FFFFFF" points="26.816,258.223 26.109,256.996 26.816,255.768 28.234,255.768 28.943,256.996 28.234,258.223 	"/>
	<polygon fill="#FFFFFF" points="395.715,69.229 395.006,68 395.715,66.773 397.133,66.773 397.84,68 397.133,69.229 	"/>
	<polygon fill="#FFFFFF" points="421.074,5.113 420.365,3.885 421.074,2.658 422.492,2.658 423.199,3.885 422.492,5.113 	"/>
	<polygon fill="#FFFFFF" points="231.121,199.371 230.414,198.145 231.121,196.916 232.539,196.916 233.248,198.145 
		232.539,199.371 	"/>
	<polygon fill="#FFFFFF" points="94.279,180.711 93.572,179.484 94.279,178.256 95.697,178.256 96.406,179.484 95.697,180.711 	"/>
	<polygon fill="#FFFFFF" points="317.725,29.516 317.016,28.287 317.725,27.061 319.143,27.061 319.85,28.287 319.143,29.516 	"/>
	<polygon fill="#FFFFFF" points="371.791,21.381 371.084,20.154 371.791,18.926 373.209,18.926 373.918,20.154 373.209,21.381 	"/>
	<g>
		<path fill="#FFFFFF" d="M125.64,46.363l-24.535,47.371l-0.133-0.068l24.421-47.152L11.2,46.928l90.035,47.25l-0.176,0.053
			l-38.286,11.623l-0.032-0.037L11.027,47.113l17.068,84.615l-0.146,0.029l-17.12-84.871l-0.096-0.107h0.073l-0.013-0.066
			l0.123,0.064L125.64,46.363z M100.841,94.141L11.223,47.107l51.6,58.574L100.841,94.141z"/>
	</g>
	<g>
		<polygon fill="#FFFFFF" points="175.912,13.17 175.59,13.383 125.699,46.408 179.735,60.273 179.698,60.418 125.334,46.469 
			125.476,46.377 175.186,13.471 10.913,46.926 10.884,46.779 		"/>
	</g>
</g>
<g>
	<rect x="397.68" y="180.771" fill="#FFFFFF" width="0.07" height="196.525"/>
</g>
<polygon fill="#FFFFFF" points="396.936,345.893 396.227,344.666 396.936,343.438 398.354,343.438 399.061,344.666 398.354,345.893 
	"/>
<polygon fill="#FFFFFF" points="396.936,361.824 396.227,360.596 396.936,359.369 398.354,359.369 399.061,360.596 398.354,361.824 
	"/>
<polygon fill="#FFFFFF" points="396.936,377.754 396.227,376.525 396.936,375.299 398.354,375.299 399.061,376.525 398.354,377.754 
	"/>
</svg>
