<?xml version="1.0" encoding="utf-8"?>
<!-- Generator: Adobe Illustrator 15.1.0, SVG Export Plug-In . SVG Version: 6.00 Build 0)  -->
<!DOCTYPE svg PUBLIC "-//W3C//DTD SVG 1.1//EN" "http://www.w3.org/Graphics/SVG/1.1/DTD/svg11.dtd">
<svg version="1.1" id="Layer_1" xmlns="http://www.w3.org/2000/svg" xmlns:xlink="http://www.w3.org/1999/xlink" x="0px" y="0px"
	 width="50px" height="50px" viewBox="0 0 50 50" enable-background="new 0 0 50 50" xml:space="preserve">
<g>
	<g>
		<path fill="#0083C1" d="M40.689,12.025c0.354,0.201,0.885,0.226,1.146,0.52c0.374,1.704,0.041,4.282-1.873,4.369
			c-0.792,3.142-2.746,6.348-6.136,6.448c-3.455,0.102-5.501-3.286-6.346-6.345c-1.782-0.25-2.317-2.663-1.871-4.473
			c0.309-0.209,0.607-0.431,1.143-0.416c-0.59-4.268,0.604-7.647,4.785-7.488c0.294-0.703,0.52-1.154,1.354-1.248
			C37.525,2.869,41.523,7.1,40.689,12.025z"/>
		<path fill="#0083C1" d="M17.185,46.452c-0.693-1.412-1.189-3.793-1.768-5.825c-0.711-2.492-1.607-4.285-1.665-7.176
			c-3.342-0.368-6.678-0.74-8.216-2.912c4.36-2.104,2.322-11.593,5.825-15.186c1.34-1.375,6.633-3.254,8.32-0.832
			c4.969-0.292,4.922,4.263,5.512,8.632c0.446,3.301,1.354,5.785,3.433,7.593c-2.089,1.518-4.684,2.527-8.217,2.602
			C20.067,38.154,18.032,42.021,17.185,46.452z"/>
		<path fill="#0083C1" d="M34.866,29.188c0.403,1.088,0.873,2.107,1.353,3.119c1.116-2.384,2.225-4.777,3.225-7.28
			c3.457,2.229,10.429,0.946,9.258,7.8c-2.28,2.095-6.762,3.161-11.025,3.642c-1.384,0.156-3.322,0.5-4.574,0.207
			c-0.566-0.133-0.893-0.699-1.455-1.04c-1.248-0.749-2.813-1.001-4.059-1.456c1.33-0.472,2.544-1.061,3.643-1.769
			c0.424-1.063,0.896-2.084,1.352-3.12c-0.714-0.721-1.936-2.23-1.145-3.535c0.563-0.93,3.181-1.058,4.16-0.416
			C37.027,26.275,35.9,28.518,34.866,29.188z"/>
		<path fill="#0083C1" d="M22.49,40.004c1.49,0,2.981,0,4.472,0c-0.769-1.087-2.195-2.516-3.328-3.744
			c-0.341-0.369-0.898-0.766-0.833-1.145c2.428,1.607,7.167,1.218,8.737,3.535c0.504,0.746,0.926,2.475,0.521,3.85
			c-0.429,1.451-4.104,2.495-6.033,3.018c-5.576,1.508-12.339,1.52-17.887,0C6.376,45.035,2.54,43.977,2.105,42.5
			c-0.411-1.396,0.042-3.143,0.52-3.85c1.564-2.31,6.463-1.982,8.737-3.535c0.065,0.382-0.504,0.787-0.833,1.145
			c-1.054,1.143-2.386,2.567-3.432,3.744c1.491,0,2.981,0,4.473,0c1.987,2.034,3.543,4.499,5.512,6.553
			C19.002,44.49,20.648,42.15,22.49,40.004z"/>
	</g>
	<g>
		<path fill="#FFFFFF" d="M12.96,19.576c4.699-0.085,8.368,0.915,10.89,3.127c-0.536,4.24-2.124,8.813-5.392,10.052
			c-1.948,0.738-3.549-0.207-4.652-1.229c-1.659-1.535-2.953-4.043-3.595-6.588C11.499,23.541,12.176,21.5,12.96,19.576z"/>
	</g>
	<path fill="#FFFFFF" d="M29.671,10.529c4.622-0.08,8.056,0.91,10.538,2.971c-0.459,4.292-1.912,8.151-5.128,9.306
		c-1.919,0.686-3.492-0.194-4.578-1.146c-1.631-1.431-2.621-4.29-3.253-6.66C28.518,13.7,28.898,12.324,29.671,10.529z"/>
</g>
</svg>
