<?xml version="1.0" encoding="utf-8"?>
<!-- Generator: Adobe Illustrator 15.1.0, SVG Export Plug-In . SVG Version: 6.00 Build 0)  -->
<!DOCTYPE svg PUBLIC "-//W3C//DTD SVG 1.1//EN" "http://www.w3.org/Graphics/SVG/1.1/DTD/svg11.dtd">
<svg version="1.1" id="Layer_1" xmlns="http://www.w3.org/2000/svg" xmlns:xlink="http://www.w3.org/1999/xlink" x="0px" y="0px"
	 width="50px" height="50px" viewBox="0 0 50 50" enable-background="new 0 0 50 50" xml:space="preserve">
<g>
	<path fill="#5D5C57" d="M19.11,21.038c-4.541,0.492-8.833,0.959-13.651,1.412c-1.1,0.103-3.949,0.704-4.315,0.079
		c-0.337-0.577,0.661-2.226,0.942-2.824c0.979-2.086,1.531-3.228,2.51-5.335c0.294-0.634,0.89-2.242,1.334-2.51
		c0.388-0.233,1.512-0.334,2.275-0.471c4.944-0.882,8.967-1.602,13.964-2.511c0.73-0.132,2.091-0.597,2.432-0.471
		c0.345,0.128,0.088,0.196-0.078,0.628C22.99,13.031,20.767,17.438,19.11,21.038z"/>
	<path fill="#5D5C57" d="M24.916,8.406c4.208,0.646,9.637,1.769,14.514,2.589c1.489,0.25,3.846,0.383,4.707,0.941
		c0.569,0.368,0.95,1.748,1.334,2.589c0.846,1.857,1.51,3.239,2.432,5.256c0.207,0.451,1.287,2.148,0.94,2.747
		c-0.368,0.639-3.135,0.085-4.313,0c-3.502-0.255-5.627-0.411-9.18-0.707c-1.227-0.102-3.599-0.011-4.393-0.471
		c-0.643-0.372-1.145-2.208-1.57-3.138c-1.488-3.252-3.014-6.37-4.393-9.572C24.953,8.579,24.912,8.515,24.916,8.406z"/>
	<path fill="#5D5C57" d="M24.759,18.134c0.365,6.408,0.053,13.493,0.157,20.163c5.329-0.87,10.417-1.979,15.691-2.902
		c0-2.485,0-5.297,0-7.924c0-0.806-0.188-1.723,0.313-2.275c0.934-0.169,2.075,0.116,2.824,0.392
		c0.313,3.665,0.158,8.208,0.078,12.003c-2.652,0.929-5.889,1.454-9.021,2.118c-1.474,0.313-3.005,0.702-4.55,1.02
		c-1.935,0.398-3.673,1.121-6.041,0.942c-1.509-0.114-3.029-0.626-4.55-0.942c-3.673-0.764-7.496-1.521-11.375-2.353
		c-0.712-0.153-1.86-0.376-2.04-0.628c-0.34-0.479-0.126-1.553-0.157-2.354c-0.111-2.976-0.275-6.729-0.157-9.808
		c3.315-0.701,7.483-0.805,11.375-1.177c0.985-0.094,3.001-0.021,3.766-0.393c0.63-0.307,1.081-2.121,1.412-2.902
		c0.486-1.148,0.886-2.305,1.333-2.981C23.99,17.845,24.552,18.001,24.759,18.134z"/>
</g>
</svg>
