<?xml version="1.0" encoding="utf-8"?>
<!-- Generator: Adobe Illustrator 15.1.0, SVG Export Plug-In . SVG Version: 6.00 Build 0)  -->
<!DOCTYPE svg PUBLIC "-//W3C//DTD SVG 1.1//EN" "http://www.w3.org/Graphics/SVG/1.1/DTD/svg11.dtd">
<svg version="1.1" id="Layer_1" xmlns="http://www.w3.org/2000/svg" xmlns:xlink="http://www.w3.org/1999/xlink" x="0px" y="0px"
	 width="50px" height="50px" viewBox="0 0 50 50" enable-background="new 0 0 50 50" xml:space="preserve">
<g>
	<path fill="#5D5C57" d="M41.84,22.928c-0.693,0.184-2.101-0.635-3.311-0.602c-0.821-7.589-5.698-12.968-12.344-14.751
		C15.78,4.783,6.145,12.071,5.014,21.925C4.612,25.428,5.489,29.18,7.021,31.96c2.734,4.963,9.281,10.163,18.062,8.329
		c0.706,0.799,1.438,2.107,1.806,2.91c-6.741,1.83-12.844-0.195-16.757-3.012C6.01,37.223,2.984,32.93,2.004,27.244
		C0.896,20.82,3.133,14.983,6.318,11.087c3.333-4.075,8.051-6.905,14.148-7.325c6.567-0.453,11.622,2.245,14.951,5.318
		C39.038,12.421,41.309,16.768,41.84,22.928z"/>
	<path fill="#5D5C57" d="M20.166,8.679c0.871-0.233,2.174-0.034,3.211-0.1c-0.602,1.003-0.937,2.274-1.706,3.111
		C21.226,10.63,20.723,9.627,20.166,8.679z"/>
	<path fill="#5D5C57" d="M22.574,12.593c0.476,2.576-0.621,6.864,0,9.533c0.178,0.765,0.803,0.939,0.803,1.706
		c0,1.82-2.157,2.014-3.211,0.803c-2.675,0-5.352,0-8.027,0c0-0.535,0-1.07,0-1.605c2.708,0,5.418,0,8.128,0
		c0.295-0.139,0.406-0.464,0.702-0.603c0.066-3.245-0.134-6.756,0.101-9.833C21.571,12.593,22.073,12.593,22.574,12.593z"/>
	<path fill="#5D5C57" d="M6.519,22.226c1.048,0.49,2.006,1.071,3.111,1.505c-0.792,0.78-2.107,1.037-3.01,1.706
		C6.386,24.567,6.585,23.264,6.519,22.226z"/>
	<path fill="#5D5C57" d="M35.92,23.932c3.975-0.425,7.229,1.326,9.03,3.11c1.481,1.467,3.114,4.194,3.312,7.427
		c0.617,10.176-12.001,15.719-19.166,8.629c-2.006-1.982-3.541-5.19-3.311-8.729c0.234-3.582,1.66-5.692,3.311-7.326
		C30.734,25.42,32.911,24.253,35.92,23.932z M28.795,29.952c-0.563,0.909-1.581,3.637-1.404,5.921
		c0.267,3.451,2.185,5.977,4.516,7.427c5.904,3.671,14.217-0.062,14.752-7.526c0.16-2.256-0.367-4.148-1.405-5.82
		c-1.399-2.249-4.802-4.888-9.231-4.415C32.502,25.913,30.122,27.816,28.795,29.952z"/>
	<path fill="#5D5C57" d="M36.121,27.145c1.452-0.168,3.322,0.146,4.314,0.602c3.225,1.48,6.127,6.229,3.813,10.938
		c-2.836,5.77-11.846,5.688-14.551-0.199c-1.982-4.314,0.436-8.592,3.011-10.235C33.544,27.714,34.693,27.309,36.121,27.145z
		 M36.221,30.354c-3.633,0.692-2.658,4.947,0.2,5.521c0.501,0.101,0.97-0.08,1.405,0.101c1.633,0.674,0.468,2.649-1.305,2.309
		c-0.797-0.153-1.271-1.301-2.711-0.803c0.174,1.434,1.211,2,2.408,2.408c0,0.534,0,1.07,0,1.604c0.536,0,1.072,0,1.606,0
		c0-0.568,0-1.138,0-1.705c3.647-0.742,2.562-4.968-0.201-5.521c-1.106-0.222-2.286-0.104-2.207-1.305
		c0.092-1.412,2.668-1.376,3.312-0.3c0.502,0,1.004,0,1.506,0c-0.174-1.435-1.211-2.002-2.408-2.408c0-0.536,0-1.071,0-1.606
		c-0.534,0-1.07,0-1.605,0C36.221,29.217,36.221,29.785,36.221,30.354z"/>
	<path fill="#5D5C57" d="M21.671,35.975c0.781,0.791,1.037,2.107,1.706,3.01c-0.87,0.234-2.174,0.035-3.211,0.102
		C20.656,38.037,21.237,37.078,21.671,35.975z"/>
</g>
</svg>
