<?xml version="1.0" encoding="utf-8"?>
<!-- Generator: Adobe Illustrator 15.1.0, SVG Export Plug-In . SVG Version: 6.00 Build 0)  -->
<!DOCTYPE svg PUBLIC "-//W3C//DTD SVG 1.1//EN" "http://www.w3.org/Graphics/SVG/1.1/DTD/svg11.dtd">
<svg version="1.1" id="Layer_1" xmlns="http://www.w3.org/2000/svg" xmlns:xlink="http://www.w3.org/1999/xlink" x="0px" y="0px"
	 width="518.666px" height="227.334px" viewBox="0 0 518.666 227.334" enable-background="new 0 0 518.666 227.334"
	 xml:space="preserve">
<g>
	<g>
		<path fill="#00A0D8" d="M168.963,175.557h-2v-1.876h2V175.557z M168.963,171.681h-2v-2h2V171.681z M168.963,167.681h-2v-2h2
			V167.681z M168.963,163.681h-2v-2h2V163.681z M168.963,159.681h-2v-2h2V159.681z M168.963,155.681h-2v-2h2V155.681z
			 M168.963,151.681h-2v-2h2V151.681z M168.963,147.681h-2v-2h2V147.681z M168.963,143.681h-2v-2h2V143.681z M168.963,139.681h-2v-2
			h2V139.681z M168.963,135.681h-2v-2h2V135.681z M168.963,131.681h-2v-2h2V131.681z M168.963,127.681h-2v-2h2V127.681z
			 M168.963,123.681h-2v-2h2V123.681z M168.963,119.681h-2v-2h2V119.681z M168.963,115.681h-2v-2h2V115.681z M168.963,111.681h-2v-2
			h2V111.681z M168.963,107.681h-2v-2h2V107.681z"/>
	</g>
	<g>
		<g>
			<g>
				<g>
					<path fill="#42566B" d="M167.963,105.812c-16.743,0-30.365-13.937-30.365-31.067c0-17.13,13.622-31.067,30.365-31.067
						s30.365,13.937,30.365,31.067C198.328,91.875,184.706,105.812,167.963,105.812z M167.963,45.677
						c-15.641,0-28.365,13.04-28.365,29.067s12.725,29.067,28.365,29.067s28.365-13.04,28.365-29.067S183.604,45.677,167.963,45.677
						z"/>
				</g>
				<g>
					<g>
						<path fill="#42566B" d="M167.963,101.057c-14.122,0-25.61-11.804-25.61-26.313s11.488-26.313,25.61-26.313
							s25.611,11.804,25.611,26.313S182.085,101.057,167.963,101.057z M167.963,50.432c-13.019,0-23.61,10.907-23.61,24.313
							c0,13.406,10.592,24.313,23.61,24.313c13.02,0,23.611-10.906,23.611-24.313C191.574,61.338,180.982,50.432,167.963,50.432z"/>
					</g>
					<g>
						<rect x="166.963" y="49.432" fill="#42566B" width="2" height="50.625"/>
					</g>
					<g>
						<path fill="#42566B" d="M165.619,100.491c-8.735-16.023-8.914-35.255-0.479-51.444l1.773,0.924
							c-8.127,15.598-7.954,34.126,0.461,49.563L165.619,100.491z"/>
					</g>
					<g>
						<path fill="#42566B" d="M170.358,100.488l-1.756-0.957c8.413-15.436,8.585-33.961,0.461-49.556l1.773-0.924
							C179.27,65.238,179.091,84.467,170.358,100.488z"/>
					</g>
					<g>
						<rect x="143.353" y="73.744" fill="#42566B" width="49.222" height="2"/>
					</g>
					<g>
						<path fill="#42566B" d="M167.963,70.919c-7.938,0-15.875-0.864-23.758-2.595l0.429-1.953c15.48,3.396,31.178,3.396,46.658,0
							l0.429,1.953C183.839,70.055,175.901,70.919,167.963,70.919z"/>
					</g>
					<g>
						<path fill="#42566B" d="M191.222,83.352c-15.434-3.377-31.084-3.377-46.518,0l-0.428-1.953
							c15.718-3.439,31.656-3.439,47.373,0L191.222,83.352z"/>
					</g>
					<g>
						<path fill="#42566B" d="M167.963,60.151c-5.454,0-10.907-1.47-15.771-4.411l1.034-1.712
							c9.091,5.496,20.387,5.495,29.478-0.002l1.035,1.712C178.874,58.68,173.418,60.151,167.963,60.151z"/>
					</g>
					<g>
						<path fill="#42566B" d="M152.267,94.591l-1.103-1.668c10.205-6.74,23.393-6.741,33.597-0.003l-1.102,1.67
							C174.124,88.292,161.802,88.295,152.267,94.591z"/>
					</g>
					<g>
						<path fill="#42566B" d="M162.501,100.39c-8.579-5.588-13.7-15.175-13.7-25.646c0-10.47,5.121-20.057,13.7-25.645l1.092,1.676
							c-8.01,5.218-12.792,14.178-12.792,23.969s4.782,18.752,12.792,23.97L162.501,100.39z"/>
					</g>
					<g>
						<path fill="#42566B" d="M173.426,100.39l-1.092-1.676c8.036-5.235,12.818-14.226,12.791-24.051
							c-0.026-9.819-4.857-18.781-12.923-23.973l1.083-1.682c8.638,5.561,13.812,15.149,13.84,25.65
							C187.153,85.164,182.032,94.783,173.426,100.39z"/>
					</g>
				</g>
			</g>
		</g>
		<g>
			<path fill="#F00A3C" d="M171.615,63.909c-0.975-15.694-1.724-17.745-0.284-20.918c2.031-4.477,7.308-6.46,11.784-4.429
				c4.478,2.031,6.46,7.308,4.429,11.784C186.255,53.188,185.639,53.11,171.615,63.909z"/>
			<g>
				<circle fill="#FFFFFF" cx="180.037" cy="45.346" r="3.902"/>
				<path fill="#42566B" d="M180.03,50.249c-0.677,0-1.364-0.141-2.019-0.438c-1.192-0.541-2.104-1.514-2.564-2.74
					c-0.46-1.226-0.416-2.558,0.125-3.75c1.117-2.462,4.029-3.558,6.49-2.439c2.462,1.117,3.557,4.029,2.439,6.49
					C183.682,49.178,181.896,50.249,180.03,50.249z M180.041,42.444c-1.104,0-2.162,0.633-2.647,1.703
					c-0.32,0.706-0.347,1.495-0.073,2.22c0.272,0.726,0.812,1.302,1.518,1.622c0.706,0.321,1.494,0.346,2.221,0.074
					c0.726-0.272,1.302-0.812,1.622-1.518c0.661-1.457,0.014-3.181-1.444-3.842C180.849,42.527,180.441,42.444,180.041,42.444z"/>
			</g>
		</g>
	</g>
	<g>
		<path fill="#00A0D8" d="M254.411,207.328h-2v-2h2V207.328z M254.411,203.328h-2v-2h2V203.328z M254.411,199.328h-2v-2h2V199.328z
			 M254.411,195.328h-2v-2h2V195.328z M254.411,191.328h-2v-2h2V191.328z M254.411,187.328h-2v-2h2V187.328z M254.411,183.328h-2v-2
			h2V183.328z M254.411,179.328h-2v-2h2V179.328z M254.411,175.328h-2v-2h2V175.328z M254.411,171.328h-2v-2h2V171.328z
			 M254.411,167.328h-2v-2h2V167.328z M254.411,163.328h-2v-2h2V163.328z M254.411,159.328h-2v-2h2V159.328z M254.411,155.328h-2v-2
			h2V155.328z M254.411,151.328h-2v-2h2V151.328z M254.411,147.328h-2v-2h2V147.328z M254.411,143.328h-2v-2h2V143.328z
			 M254.411,139.328h-2v-2h2V139.328z M254.411,135.328h-2v-2h2V135.328z M254.411,131.328h-2v-2h2V131.328z M254.411,127.328h-2v-2
			h2V127.328z M254.411,123.328h-2v-2h2V123.328z M254.411,119.328h-2v-2h2V119.328z M254.411,115.328h-2v-2h2V115.328z
			 M254.411,111.328h-2v-2h2V111.328z M254.411,107.328h-2v-2h2V107.328z M254.411,103.328h-2v-2h2V103.328z M254.411,99.328h-2v-2
			h2V99.328z M254.411,95.328h-2v-2h2V95.328z M254.411,91.328h-2v-2h2V91.328z M254.411,87.328h-2v-2h2V87.328z M254.411,83.328h-2
			v-2h2V83.328z M254.411,79.328h-2v-2h2V79.328z M254.411,75.328h-2v-2h2V75.328z M254.411,71.328h-2v-2h2V71.328z M254.411,67.328
			h-2v-2h2V67.328z M254.411,63.329h-2v-2h2V63.329z M254.411,59.329h-2v-2h2V59.329z M254.411,55.329h-2v-2h2V55.329z
			 M254.411,51.329h-2v-2h2V51.329z M254.411,47.329h-2v-2h2V47.329z M254.411,43.329h-2v-2h2V43.329z M254.411,39.329h-2v-2h2
			V39.329z M254.411,35.329h-2v-2h2V35.329z M254.411,31.329h-2v-2h2V31.329z"/>
	</g>
	<g>
		<path fill="#00B9FF" d="M208.265,56.337c4.08,0,7.388,2.885,7.388,6.444c0-3.559,3.308-6.444,7.387-6.444
			c4.08,0,7.388,2.885,7.388,6.444c0-3.559,3.308-6.444,7.388-6.444s7.388,2.885,7.388,6.444c0-3.559,3.308-6.444,7.387-6.444
			c4.08,0,7.388,2.885,7.388,6.444c0-3.559,3.308-6.444,7.388-6.444s7.388,2.885,7.388,6.444c0-3.559,3.307-6.444,7.387-6.444
			s7.388,2.885,7.388,6.444c0-3.559,3.308-6.444,7.388-6.444c2.968,0,5.509,1.536,6.684,3.738
			c-3.999-21.431-25.062-37.785-50.477-37.785c-24.68,0-45.254,15.423-50.086,35.94C204.373,57.061,206.222,56.337,208.265,56.337z"
			/>
		<g>
			<path fill="#FFFFFF" d="M214.881,43.033c-0.113,0-0.228-0.039-0.32-0.117c-0.212-0.177-0.239-0.493-0.062-0.704
				c6.239-7.432,15.187-12.957,25.195-15.557c0.264-0.07,0.539,0.09,0.609,0.358c0.069,0.267-0.091,0.54-0.358,0.609
				c-9.809,2.548-18.573,7.958-24.681,15.232C215.166,42.973,215.024,43.033,214.881,43.033z"/>
		</g>
		<g>
			<path fill="#42566B" d="M303.8,46.16c-0.35,0-0.689-0.184-0.873-0.51c-9.395-16.712-28.479-27.094-49.806-27.094
				c-20.687,0-39.554,10.05-49.238,26.228c-0.283,0.474-0.896,0.627-1.372,0.344c-0.474-0.284-0.628-0.897-0.344-1.372
				c10.043-16.778,29.567-27.2,50.954-27.2c22.049,0,41.802,10.772,51.549,28.114c0.271,0.481,0.1,1.091-0.381,1.362
				C304.134,46.119,303.966,46.16,303.8,46.16z"/>
		</g>
	</g>
	<g>
		<circle fill="#FFFFFF" cx="235.797" cy="85.316" r="5"/>
		<path fill="#42566B" d="M235.797,91.316c-3.309,0-6-2.691-6-6s2.691-6,6-6s6,2.691,6,6S239.105,91.316,235.797,91.316z
			 M235.797,81.316c-2.206,0-4,1.794-4,4s1.794,4,4,4c2.205,0,4-1.794,4-4S238.002,81.316,235.797,81.316z"/>
	</g>
	<g>
		<polygon fill="#00B9FF" points="402.122,220.151 378.93,178.646 366.796,196.543 354.806,186.115 343.599,191.406 
			330.217,176.465 318.543,208.529 306.401,188.76 294.572,199.814 282.429,189.074 257.21,220.151 		"/>
		<g>
			<g>
				<g>
					<rect x="329.295" y="76.231" fill="#42566B" width="2" height="93.375"/>
				</g>
				<g>
					
						<rect x="290.892" y="147.69" transform="matrix(0.7901 0.613 -0.613 0.7901 156.8358 -160.6003)" fill="#42566B" width="44.024" height="2"/>
				</g>
				<g>
					
						<rect x="341.853" y="95.749" transform="matrix(0.7071 0.7071 -0.7071 0.7071 180.6825 -209.1876)" fill="#42566B" width="2" height="35.52"/>
				</g>
				<g>
					
						<rect x="311.793" y="100.394" transform="matrix(0.8867 0.4623 -0.4623 0.8867 83.3164 -137.2019)" fill="#42566B" width="19.614" height="2"/>
				</g>
				<path fill="#00B9FF" d="M335.409,158.921c-1.244-1.809-0.102-10.08,5.495-16.559c5.537-6.408,13.559-8.201,15.538-7.784
					c0.7,1.897,0.09,10.095-5.447,16.504C345.398,157.559,337.38,159.89,335.409,158.921z"/>
				<path fill="#00B9FF" d="M303.902,116.556c-0.421-1.391,1.958-6.379,6.788-9.341c4.777-2.931,10.196-2.452,11.36-1.792
					c0.062,1.337-1.968,6.385-6.746,9.315C310.476,117.7,304.951,117.562,303.902,116.556z"/>
				<path fill="#00B9FF" d="M325.29,99.434c-1.433,0.243-6.08-2.747-8.409-7.912c-2.304-5.109-1.146-10.425-0.343-11.496
					c1.334,0.107,6.085,2.758,8.389,7.868C327.256,93.058,326.421,98.521,325.29,99.434z"/>
				<path fill="#00B9FF" d="M318.785,148.456c-1.407-0.362-4.432-4.987-4.453-10.653c-0.021-5.604,3.204-9.986,4.373-10.638
					c1.175,0.643,4.432,5,4.453,10.605C323.18,143.436,320.189,148.083,318.785,148.456z"/>
				<path fill="#00B9FF" d="M296.814,163.604c0.02-1.453,3.798-5.485,9.298-6.847c5.44-1.346,10.46,0.751,11.37,1.732
					c-0.347,1.293-3.81,5.489-9.25,6.836C302.732,166.686,297.51,164.88,296.814,163.604z"/>
				<path fill="#00B9FF" d="M339.752,123.28c0.019-1.453,3.797-5.485,9.297-6.847c5.44-1.346,10.461,0.751,11.37,1.732
					c-0.347,1.293-3.81,5.489-9.25,6.835C345.669,126.362,340.446,124.557,339.752,123.28z"/>
				<path fill="#00B9FF" d="M338.754,110.355c-1.364-0.503-3.904-5.41-3.352-11.049c0.546-5.578,4.198-9.61,5.427-10.141
					c1.104,0.759,3.903,5.423,3.356,11.001C343.634,105.806,340.188,110.127,338.754,110.355z"/>
			</g>
			<g>
				<g>
					<path fill="#00B9FF" d="M330.295,73.703c-9.128-6.931-16.453-13.916-16.453-30.102c0-17.146,8.687-24.743,16.453-37.53
						c7.768,12.787,16.453,20.384,16.453,37.53C346.748,59.788,339.423,66.772,330.295,73.703z"/>
					<path fill="#42566B" d="M330.295,74.959L329.69,74.5c-9.218-7-16.849-14.155-16.849-30.898
						c0-13.559,5.238-21.182,11.303-30.009c1.743-2.536,3.545-5.158,5.296-8.04l0.854-1.407l0.854,1.407
						c1.751,2.882,3.553,5.504,5.295,8.04c6.065,8.827,11.304,16.45,11.304,30.009c0,16.743-7.63,23.899-16.849,30.898
						L330.295,74.959z M330.295,7.973c-1.504,2.391-3.024,4.603-4.502,6.753c-5.876,8.552-10.951,15.938-10.951,28.876
						c0,15.461,6.94,22.315,15.453,28.844c8.513-6.528,15.453-13.383,15.453-28.844c0-12.938-5.075-20.324-10.951-28.876
						C333.318,12.575,331.799,10.363,330.295,7.973z"/>
				</g>
				<g>
					<path fill="#42566B" d="M344.413,57.306c-0.209,0.526-0.433,1.035-0.665,1.534c-3.959,3.639-8.864,6.205-13.4,6.956
						c-0.034,0.006-0.07,0.006-0.104,0c-4.537-0.751-9.441-3.317-13.4-6.956c-0.233-0.499-0.457-1.008-0.665-1.534
						c4.021,4.103,9.286,7.031,14.117,7.846C335.127,64.338,340.393,61.41,344.413,57.306z"/>
					<path fill="#42566B" d="M346.496,48.512c-0.034,0.322-0.069,0.644-0.11,0.958c-4.504,3.901-11.568,8.865-16.038,9.605
						c-0.034,0.005-0.07,0.005-0.104,0c-4.471-0.74-11.534-5.705-16.039-9.605c-0.04-0.314-0.076-0.636-0.11-0.958
						c4.354,3.848,11.733,9.148,16.201,9.92C334.763,57.66,342.144,52.36,346.496,48.512z"/>
					<path fill="#42566B" d="M346.636,40.337c0.019,0.271,0.032,0.548,0.046,0.824c-4.485,3.937-11.764,9.108-16.334,9.864
						c-0.034,0.006-0.07,0.006-0.104,0c-4.57-0.756-11.85-5.927-16.334-9.864c0.014-0.276,0.026-0.553,0.045-0.824
						c4.334,3.858,11.824,9.265,16.341,10.045C334.812,49.602,342.303,44.195,346.636,40.337z"/>
					<path fill="#42566B" d="M345.521,33.255c0.06,0.233,0.115,0.469,0.171,0.706c-4.51,3.794-11.097,8.311-15.344,9.014
						c-0.034,0.006-0.07,0.006-0.104,0c-4.247-0.703-10.834-5.219-15.344-9.014c0.055-0.237,0.111-0.473,0.17-0.706
						c4.416,3.738,11.077,8.359,15.226,9.076C334.443,41.615,341.104,36.994,345.521,33.255z"/>
					<path fill="#42566B" d="M343.331,26.982c0.092,0.205,0.186,0.409,0.274,0.617c-4.291,3.34-9.629,6.725-13.258,7.325
						c-0.034,0.006-0.07,0.006-0.104,0c-3.629-0.601-8.968-3.985-13.258-7.325c0.089-0.208,0.182-0.412,0.273-0.617
						c4.225,3.295,9.527,6.693,13.036,7.299C333.804,33.676,339.107,30.277,343.331,26.982z"/>
					<path fill="#42566B" d="M340.266,21.197c0.114,0.188,0.226,0.377,0.337,0.565c-3.589,2.5-7.438,4.646-10.255,5.113
						c-0.034,0.006-0.07,0.006-0.104,0c-2.818-0.466-6.667-2.613-10.256-5.112c0.112-0.189,0.224-0.378,0.338-0.566
						c3.514,2.451,7.272,4.569,9.97,5.035C332.992,25.766,336.751,23.648,340.266,21.197z"/>
					<path fill="#42566B" d="M336.561,15.53c0.124,0.181,0.248,0.362,0.37,0.542c-2.396,1.397-4.716,2.444-6.583,2.754
						c-0.034,0.006-0.07,0.006-0.104,0c-1.867-0.31-4.188-1.356-6.584-2.754c0.123-0.18,0.247-0.361,0.37-0.542
						c2.298,1.342,4.508,2.349,6.266,2.652C332.054,17.878,334.263,16.872,336.561,15.53z"/>
				</g>
				<g>
					<rect x="330.045" y="6.072" fill="#42566B" width="0.5" height="67.631"/>
				</g>
			</g>
			<g>
				<g>
					<g>
						<path fill="#FFFFFF" d="M361.93,107.783c-7.362,0-13.352-5.989-13.352-13.352s5.989-13.352,13.352-13.352
							c7.363,0,13.353,5.989,13.353,13.352S369.293,107.783,361.93,107.783z"/>
						<path fill="#42566B" d="M361.93,108.783c-7.913,0-14.352-6.438-14.352-14.352s6.438-14.352,14.352-14.352
							c7.914,0,14.352,6.438,14.352,14.352S369.844,108.783,361.93,108.783z M361.93,82.08c-6.811,0-12.352,5.541-12.352,12.352
							s5.541,12.352,12.352,12.352c6.812,0,12.352-5.541,12.352-12.352S368.741,82.08,361.93,82.08z"/>
					</g>
				</g>
				<g>
					<path fill="#42566B" d="M363.901,91.319c-0.572-0.525-1.052-0.819-1.794-0.819c-0.835,0-1.345,0.434-1.345,1.237
						c0,1.854,4.205,1.483,4.205,4.606c0,1.47-0.867,2.551-2.396,2.83v1.59h-1.236V99.22c-0.944-0.093-1.979-0.525-2.676-1.175
						l0.805-1.206c0.727,0.572,1.454,0.957,2.288,0.957c1.005,0,1.499-0.493,1.499-1.328c0-2.04-4.204-1.747-4.204-4.653
						c0-1.438,0.896-2.458,2.288-2.706v-1.576h1.236v1.546c0.99,0.124,1.67,0.603,2.241,1.206L363.901,91.319z"/>
				</g>
			</g>
			<g>
				<g>
					<g>
						<path fill="#FFFFFF" d="M287.879,142.625c-7.362,0-13.352-5.989-13.352-13.352s5.989-13.352,13.352-13.352
							c7.363,0,13.353,5.989,13.353,13.352S295.242,142.625,287.879,142.625z"/>
						<path fill="#42566B" d="M287.88,143.626c-7.914,0-14.353-6.438-14.353-14.353c0-7.913,6.438-14.352,14.353-14.352
							c7.913,0,14.351,6.438,14.351,14.352C302.23,137.188,295.793,143.626,287.88,143.626z M287.88,116.922
							c-6.812,0-12.353,5.541-12.353,12.352c0,6.812,5.541,12.353,12.353,12.353c6.81,0,12.351-5.541,12.351-12.353
							C300.23,122.463,294.689,116.922,287.88,116.922z"/>
					</g>
				</g>
				<g>
					<path fill="#42566B" d="M289.851,126.162c-0.572-0.526-1.052-0.82-1.794-0.82c-0.835,0-1.345,0.434-1.345,1.237
						c0,1.855,4.205,1.484,4.205,4.607c0,1.469-0.866,2.551-2.396,2.83v1.59h-1.236v-1.545c-0.944-0.093-1.979-0.524-2.676-1.174
						l0.805-1.207c0.727,0.572,1.454,0.957,2.288,0.957c1.005,0,1.499-0.493,1.499-1.328c0-2.04-4.204-1.746-4.204-4.653
						c0-1.438,0.896-2.458,2.288-2.705v-1.577h1.236v1.546c0.99,0.124,1.669,0.603,2.242,1.206L289.851,126.162z"/>
				</g>
			</g>
			<g>
				<g>
					<g>
						<path fill="#FFFFFF" d="M298.146,107.204c-9.946,0-18.038-8.092-18.038-18.038s8.092-18.038,18.038-18.038
							s18.038,8.092,18.038,18.038S308.093,107.204,298.146,107.204z"/>
						<path fill="#42566B" d="M298.146,108.204c-10.497,0-19.037-8.54-19.037-19.038s8.54-19.038,19.037-19.038
							s19.038,8.54,19.038,19.038S308.644,108.204,298.146,108.204z M298.146,72.128c-9.395,0-17.037,7.644-17.037,17.038
							s7.643,17.038,17.037,17.038c9.396,0,17.038-7.644,17.038-17.038S307.542,72.128,298.146,72.128z"/>
					</g>
				</g>
				<g>
					<path fill="#42566B" d="M300.81,84.962c-0.773-0.71-1.421-1.106-2.424-1.106c-1.127,0-1.815,0.585-1.815,1.67
						c0,2.507,5.681,2.006,5.681,6.225c0,1.984-1.171,3.446-3.237,3.823v2.148h-1.671v-2.087c-1.275-0.125-2.673-0.709-3.614-1.587
						l1.086-1.63c0.982,0.772,1.965,1.293,3.092,1.293c1.357,0,2.025-0.667,2.025-1.794c0-2.756-5.681-2.359-5.681-6.286
						c0-1.943,1.212-3.321,3.092-3.656v-2.13h1.671v2.09c1.337,0.167,2.255,0.813,3.027,1.629L300.81,84.962z"/>
				</g>
			</g>
		</g>
	</g>
	<g opacity="0.4">
		<circle fill="#00B9FF" cx="121.122" cy="74" r="3"/>
	</g>
	<g opacity="0.4">
		<circle fill="#00B9FF" cx="156.122" cy="114" r="3"/>
	</g>
	<g opacity="0.4">
		<circle fill="#00B9FF" cx="272.455" cy="100.667" r="3"/>
	</g>
	<g>
		<path fill="#C4C4C4" d="M415.122,61c-2.205,0-4-1.794-4-4s1.795-4,4-4s4,1.794,4,4S417.327,61,415.122,61z M415.122,55
			c-1.104,0-2,0.897-2,2s0.896,2,2,2s2-0.897,2-2S416.226,55,415.122,55z"/>
	</g>
	<g opacity="0.4">
		<circle fill="#00B9FF" cx="266.122" cy="76" r="3"/>
	</g>
	<g opacity="0.4">
		<circle fill="#00B9FF" cx="222.789" cy="70.667" r="3"/>
	</g>
	<g opacity="0.4">
		<circle fill="#00B9FF" cx="51.122" cy="152" r="3"/>
	</g>
	<g opacity="0.4">
		<circle fill="#00B9FF" cx="362.122" cy="47" r="3"/>
	</g>
	<g opacity="0.4">
		<circle fill="#00B9FF" cx="410.122" cy="209" r="3"/>
	</g>
	<g opacity="0.4">
		<circle fill="#00B9FF" cx="362.122" cy="65" r="3"/>
	</g>
	<g>
		<path fill="#C4C4C4" d="M107.122,102.414L101.708,97l5.414-5.414L112.536,97L107.122,102.414z M104.536,97l2.586,2.586L109.708,97
			l-2.586-2.586L104.536,97z"/>
	</g>
	<g>
		<path fill="#C4C4C4" d="M449.789,111.414L444.374,106l5.415-5.414l5.413,5.414L449.789,111.414z M447.202,106l2.587,2.586
			l2.585-2.586l-2.585-2.586L447.202,106z"/>
	</g>
	<g>
		<path fill="#C4C4C4" d="M210.122,90.414L204.708,85l5.414-5.414L215.536,85L210.122,90.414z M207.536,85l2.586,2.586L212.708,85
			l-2.586-2.586L207.536,85z"/>
	</g>
	<g>
		<path fill="#C4C4C4" d="M131.122,104.5c-3.032,0-5.5-2.468-5.5-5.5s2.468-5.5,5.5-5.5c3.033,0,5.5,2.468,5.5,5.5
			S134.155,104.5,131.122,104.5z M131.122,95.5c-1.93,0-3.5,1.57-3.5,3.5s1.57,3.5,3.5,3.5s3.5-1.57,3.5-3.5
			S133.052,95.5,131.122,95.5z"/>
	</g>
	<g>
		<g>
			<g>
				<path fill="#42566B" d="M387.831,94.963c-0.553,0-1-0.447-1-1v-17c0-0.553,0.447-1,1-1s1,0.447,1,1v17
					C388.831,94.516,388.384,94.963,387.831,94.963z"/>
			</g>
			<g>
				<path fill="#42566B" d="M394.164,88.963c-0.552,0-1-0.447-1-1v-11c0-0.553,0.448-1,1-1c0.553,0,1,0.447,1,1v11
					C395.164,88.516,394.717,88.963,394.164,88.963z"/>
			</g>
		</g>
		<g>
			<g>
				<polygon fill="#00B9FF" points="392.887,50.486 378.521,69.296 378.521,31.677 				"/>
				<path fill="#42566B" d="M378.521,70.296c-0.106,0-0.215-0.018-0.319-0.053c-0.407-0.138-0.681-0.519-0.681-0.947V31.677
					c0-0.429,0.273-0.81,0.681-0.947c0.403-0.137,0.854,0,1.114,0.34l14.365,18.809c0.274,0.358,0.274,0.855,0,1.214l-14.365,18.81
					C379.123,70.155,378.827,70.296,378.521,70.296z M379.521,34.634v31.705l12.107-15.853L379.521,34.634z"/>
			</g>
			<g>
				<polygon fill="#FFFFFF" points="392.887,50.486 378.521,31.677 390.213,31.677 401.905,31.677 401.905,50.486 401.905,69.296 
					390.213,69.296 378.521,69.296 				"/>
				<path fill="#42566B" d="M401.905,70.296h-23.385c-0.381,0-0.728-0.216-0.896-0.557c-0.168-0.341-0.129-0.748,0.102-1.051
					l13.902-18.202l-13.902-18.202c-0.23-0.302-0.27-0.709-0.102-1.05c0.169-0.341,0.516-0.557,0.896-0.557h23.385
					c0.553,0,1,0.448,1,1v37.619C402.905,69.849,402.458,70.296,401.905,70.296z M380.543,68.296h20.362V32.677h-20.362
					l13.138,17.202c0.274,0.358,0.274,0.855,0,1.214L380.543,68.296z"/>
			</g>
			<g>
				<polygon fill="#00B9FF" points="387.54,50.486 401.905,69.296 401.905,31.677 				"/>
				<path fill="#42566B" d="M401.905,70.296c-0.306,0-0.602-0.141-0.795-0.393l-14.365-18.81c-0.273-0.358-0.273-0.855,0-1.214
					L401.11,31.07c0.26-0.34,0.709-0.478,1.115-0.34s0.68,0.519,0.68,0.947v37.619c0,0.429-0.273,0.81-0.68,0.947
					C402.12,70.278,402.013,70.296,401.905,70.296z M388.798,50.486l12.107,15.853V34.634L388.798,50.486z"/>
			</g>
		</g>
	</g>
	<g>
		<g>
			<path fill="#C4C4C4" d="M447.944,79.54H415.76v-6.199h32.185V79.54z M417.76,77.54h28.185v-2.199H417.76V77.54z"/>
		</g>
		<g>
			<path fill="#C4C4C4" d="M452.373,94.494h-39.592c-1.515,0-2.746-1.231-2.746-2.746V69.612c0-1.515,1.231-2.746,2.746-2.746
				h39.592c1.514,0,2.745,1.231,2.745,2.746v22.136C455.118,93.263,453.887,94.494,452.373,94.494z M412.781,68.866
				c-0.411,0-0.746,0.335-0.746,0.746v22.136c0,0.411,0.335,0.746,0.746,0.746h39.592c0.411,0,0.745-0.335,0.745-0.746V69.612
				c0-0.411-0.334-0.746-0.745-0.746H412.781z"/>
		</g>
		<g>
			<path fill="#C4C4C4" d="M430.577,88.289H415.76V82.09h14.817V88.289z M417.76,86.289h10.817V84.09H417.76V86.289z"/>
		</g>
		<g>
			<path fill="#C4C4C4" d="M447.76,88.289h-15.551V82.09h15.551V88.289z M434.209,86.289h11.551V84.09h-11.551V86.289z"/>
		</g>
	</g>
	<g>
		<g>
			<g>
				<path fill="#28324B" d="M345.471,190.472H268.14c-1.753,0-3.174-1.421-3.174-3.174v-37.311c0-1.753,1.421-3.174,3.174-3.174
					h77.331c1.752,0,3.173,1.421,3.173,3.174v37.311C348.644,189.051,347.223,190.472,345.471,190.472z"/>
				<path fill="#42566B" d="M345.47,191.472h-77.33c-2.302,0-4.174-1.872-4.174-4.174v-37.311c0-2.302,1.872-4.174,4.174-4.174
					h77.33c2.302,0,4.174,1.872,4.174,4.174v37.311C349.644,189.6,347.771,191.472,345.47,191.472z M268.14,147.813
					c-1.199,0-2.174,0.976-2.174,2.174v37.311c0,1.198,0.975,2.174,2.174,2.174h77.33c1.199,0,2.174-0.976,2.174-2.174v-37.311
					c0-1.198-0.975-2.174-2.174-2.174H268.14z"/>
			</g>
			<g>
				<rect x="264.966" y="157.64" fill="#FFFFFF" width="83.678" height="7.276"/>
				<path fill="#42566B" d="M349.644,165.916h-85.678v-9.276h85.678V165.916z M265.966,163.916h81.678v-5.276h-81.678V163.916z"/>
			</g>
			<g>
				<path fill="#FFFFFF" d="M301.576,172.017c8.631,0,17.263,0,25.894,0"/>
				<rect x="301.576" y="171.017" fill="#42566B" width="25.894" height="2"/>
			</g>
			<g>
				<path fill="#FFFFFF" d="M270.316,172.017c9.259,0,18.518,0,27.776,0"/>
				<rect x="270.317" y="171.017" fill="#42566B" width="27.776" height="2"/>
			</g>
			<g>
				<line fill="#FFFFFF" x1="270.316" y1="178.255" x2="289.914" y2="178.255"/>
				<rect x="270.317" y="177.255" fill="#42566B" width="19.597" height="2"/>
			</g>
			<g>
				<line fill="#FFFFFF" x1="292.21" y1="178.255" x2="302.921" y2="178.255"/>
				<rect x="292.21" y="177.255" fill="#42566B" width="10.711" height="2"/>
			</g>
			<g>
				<line fill="#FFFFFF" x1="270.316" y1="182.487" x2="289.914" y2="182.487"/>
				<rect x="270.317" y="181.487" fill="#42566B" width="19.597" height="2"/>
			</g>
			<g>
				<line fill="#FFFFFF" x1="292.21" y1="182.487" x2="302.921" y2="182.487"/>
				<rect x="292.21" y="181.487" fill="#42566B" width="10.711" height="2"/>
			</g>
			<g>
				<line fill="#FFFFFF" x1="305.088" y1="178.255" x2="315.799" y2="178.255"/>
				<rect x="305.088" y="177.255" fill="#42566B" width="10.71" height="2"/>
			</g>
		</g>
		<g>
			<g>
				<path fill="#FFFFFF" d="M327.061,220.151h-77.33c-1.753,0-3.174-1.421-3.174-3.173v-37.312c0-1.753,1.421-3.174,3.174-3.174
					h77.33c1.753,0,3.174,1.421,3.174,3.174v37.312C330.234,218.73,328.813,220.151,327.061,220.151z"/>
				<path fill="#42566B" d="M327.061,221.151h-77.33c-2.302,0-4.174-1.872-4.174-4.173v-37.312c0-2.302,1.872-4.174,4.174-4.174
					h77.33c2.302,0,4.174,1.872,4.174,4.174v37.312C331.234,219.279,329.362,221.151,327.061,221.151z M249.73,177.493
					c-1.198,0-2.174,0.976-2.174,2.174v37.312c0,1.198,0.976,2.173,2.174,2.173h77.33c1.199,0,2.174-0.975,2.174-2.173v-37.312
					c0-1.198-0.975-2.174-2.174-2.174H249.73z"/>
			</g>
			<g>
				<rect x="246.557" y="187.319" fill="#FDBE11" width="83.678" height="7.276"/>
				<path fill="#42566B" d="M330.234,195.596h-83.678c-0.552,0-1-0.447-1-1v-7.276c0-0.553,0.448-1,1-1h83.678c0.552,0,1,0.447,1,1
					v7.276C331.234,195.148,330.786,195.596,330.234,195.596z M247.557,193.596h81.678v-5.276h-81.678V193.596z"/>
			</g>
			<g>
				<path fill="#FFFFFF" d="M283.167,201.696c8.631,0,17.263,0,25.894,0"/>
				<rect x="283.167" y="200.696" fill="#42566B" width="25.894" height="2"/>
			</g>
			<g>
				<path fill="#FFFFFF" d="M251.907,201.696c9.259,0,18.518,0,27.776,0"/>
				<rect x="251.907" y="200.696" fill="#42566B" width="27.777" height="2"/>
			</g>
			<g>
				<line fill="#FFFFFF" x1="251.907" y1="207.935" x2="271.505" y2="207.935"/>
				<rect x="251.907" y="206.935" fill="#42566B" width="19.598" height="2"/>
			</g>
			<g>
				<line fill="#FFFFFF" x1="273.801" y1="207.935" x2="284.512" y2="207.935"/>
				<rect x="273.801" y="206.935" fill="#42566B" width="10.711" height="2"/>
			</g>
			<g>
				<line fill="#FFFFFF" x1="251.907" y1="212.167" x2="271.505" y2="212.167"/>
				<rect x="251.907" y="211.167" fill="#42566B" width="19.598" height="2"/>
			</g>
			<g>
				<line fill="#FFFFFF" x1="273.801" y1="212.167" x2="284.512" y2="212.167"/>
				<rect x="273.801" y="211.167" fill="#42566B" width="10.711" height="2"/>
			</g>
			<g>
				<line fill="#FFFFFF" x1="286.679" y1="207.935" x2="297.389" y2="207.935"/>
				<rect x="286.679" y="206.935" fill="#42566B" width="10.711" height="2"/>
			</g>
		</g>
	</g>
	<g>
		<g>
			<g>
				<rect x="71.137" y="118.064" fill="#FFFFFF" width="32.164" height="90.557"/>
				<path fill="#42566B" d="M104.301,209.621H70.137v-92.557h34.164V209.621z M72.137,207.621h30.164v-88.557H72.137V207.621z"/>
			</g>
			<g>
				<rect x="76.498" y="123.426" fill="#FFFFFF" width="21.442" height="79.834"/>
				<g>
					<path fill="#42566B" d="M98.94,204.26H75.498v-81.834H98.94V204.26z M77.498,202.26H96.94v-77.834H77.498V202.26z"/>
				</g>
			</g>
			<g>
				<g>
					<ellipse fill="#FFFFFF" cx="87.219" cy="163.343" rx="12.955" ry="10.496"/>
					<path fill="#42566B" d="M87.219,174.838c-7.694,0-13.955-5.156-13.955-11.495s6.261-11.496,13.955-11.496
						c7.695,0,13.955,5.157,13.955,11.496S94.914,174.838,87.219,174.838z M87.219,153.847c-6.592,0-11.955,4.26-11.955,9.496
						c0,5.235,5.363,9.495,11.955,9.495s11.955-4.26,11.955-9.495C99.174,158.106,93.811,153.847,87.219,153.847z"/>
				</g>
				<g>
					<path fill="#00A0D8" d="M91.177,166.263c0.735-0.8,1.146-1.471,1.146-2.51c0-1.167-0.606-1.881-1.73-1.881
						c-2.596,0-2.077,5.884-6.446,5.884c-2.056,0-3.569-1.213-3.96-3.353h-2.225v-1.73h2.161c0.129-1.321,0.734-2.769,1.644-3.743
						l1.688,1.125c-0.8,1.018-1.339,2.034-1.339,3.202c0,1.405,0.69,2.098,1.858,2.098c2.854,0,2.443-5.884,6.511-5.884
						c2.012,0,3.439,1.255,3.786,3.202h2.205v1.73h-2.163c-0.173,1.384-0.843,2.335-1.687,3.136L91.177,166.263z"/>
				</g>
			</g>
			<g>
				<circle fill="#FFFFFF" cx="87.968" cy="188.142" r="3.221"/>
				<path fill="#42566B" d="M87.969,192.363c-2.328,0-4.222-1.894-4.222-4.222s1.894-4.222,4.222-4.222
					c2.327,0,4.221,1.894,4.221,4.222S90.296,192.363,87.969,192.363z M87.969,185.92c-1.225,0-2.222,0.997-2.222,2.222
					s0.997,2.222,2.222,2.222s2.221-0.997,2.221-2.222S89.193,185.92,87.969,185.92z"/>
			</g>
			<g>
				<circle fill="#FFFFFF" cx="87.968" cy="139.763" r="3.221"/>
				<path fill="#42566B" d="M87.969,143.983c-2.328,0-4.222-1.894-4.222-4.221c0-2.328,1.894-4.222,4.222-4.222
					c2.327,0,4.221,1.894,4.221,4.222C92.189,142.09,90.296,143.983,87.969,143.983z M87.969,137.541
					c-1.225,0-2.222,0.997-2.222,2.222s0.997,2.221,2.222,2.221s2.221-0.996,2.221-2.221S89.193,137.541,87.969,137.541z"/>
			</g>
		</g>
		<g>
			<g>
				<rect x="108.65" y="118.064" fill="#FFFFFF" width="32.163" height="90.557"/>
				<path fill="#42566B" d="M141.813,209.621H107.65v-92.557h34.163V209.621z M109.65,207.621h30.163v-88.557H109.65V207.621z"/>
			</g>
			<g>
				<rect x="114.011" y="123.426" fill="#FFFFFF" width="21.443" height="79.834"/>
				<g>
					<path fill="#42566B" d="M136.454,204.26h-23.443v-81.834h23.443V204.26z M115.011,202.26h19.443v-77.834h-19.443V202.26z"/>
				</g>
			</g>
			<g>
				<g>
					<ellipse fill="#FFFFFF" cx="124.732" cy="163.343" rx="12.955" ry="10.496"/>
					<path fill="#42566B" d="M124.732,174.838c-7.695,0-13.955-5.156-13.955-11.495s6.26-11.496,13.955-11.496
						c7.694,0,13.954,5.157,13.954,11.496S132.427,174.838,124.732,174.838z M124.732,153.847c-6.593,0-11.955,4.26-11.955,9.496
						c0,5.235,5.362,9.495,11.955,9.495c6.592,0,11.954-4.26,11.954-9.495C136.687,158.106,131.324,153.847,124.732,153.847z"/>
				</g>
				<g>
					<path fill="#00A0D8" d="M128.689,166.263c0.735-0.8,1.146-1.471,1.146-2.51c0-1.167-0.606-1.881-1.73-1.881
						c-2.596,0-2.076,5.884-6.446,5.884c-2.055,0-3.568-1.213-3.96-3.353h-2.225v-1.73h2.161c0.13-1.321,0.734-2.769,1.644-3.743
						l1.688,1.125c-0.8,1.018-1.339,2.034-1.339,3.202c0,1.405,0.69,2.098,1.858,2.098c2.854,0,2.443-5.884,6.511-5.884
						c2.012,0,3.439,1.255,3.786,3.202h2.206v1.73h-2.164c-0.173,1.384-0.843,2.335-1.687,3.136L128.689,166.263z"/>
				</g>
			</g>
			<g>
				<circle fill="#FFFFFF" cx="125.481" cy="188.142" r="3.222"/>
				<path fill="#42566B" d="M125.481,192.363c-2.328,0-4.222-1.894-4.222-4.222s1.894-4.222,4.222-4.222
					c2.327,0,4.222,1.894,4.222,4.222S127.809,192.363,125.481,192.363z M125.481,185.92c-1.225,0-2.222,0.997-2.222,2.222
					s0.997,2.222,2.222,2.222s2.222-0.997,2.222-2.222S126.706,185.92,125.481,185.92z"/>
			</g>
			<g>
				<circle fill="#FFFFFF" cx="125.481" cy="139.763" r="3.222"/>
				<path fill="#42566B" d="M125.481,143.983c-2.328,0-4.222-1.894-4.222-4.221c0-2.328,1.894-4.222,4.222-4.222
					c2.327,0,4.222,1.894,4.222,4.222C129.703,142.09,127.809,143.983,125.481,143.983z M125.481,137.541
					c-1.225,0-2.222,0.997-2.222,2.222s0.997,2.221,2.222,2.221s2.222-0.996,2.222-2.221S126.706,137.541,125.481,137.541z"/>
			</g>
		</g>
		<g>
			<g>
				<rect x="67.023" y="150.613" fill="#28324B" width="80.074" height="69.538"/>
				<path fill="#42566B" d="M147.098,221.151H67.023c-0.553,0-1-0.447-1-1v-69.538c0-0.553,0.447-1,1-1h80.074c0.552,0,1,0.447,1,1
					v69.538C148.098,220.704,147.649,221.151,147.098,221.151z M68.023,219.151h78.074v-67.538H68.023V219.151z"/>
			</g>
			<g>
				<rect x="128.133" y="150.613" fill="#FFFFFF" width="18.965" height="69.538"/>
				<path fill="#42566B" d="M148.098,221.151h-20.966v-71.538h20.966V221.151z M129.132,219.151h16.966v-67.538h-16.966V219.151z"/>
			</g>
			<g>
				<line fill="#00A0D8" x1="73.345" y1="159.043" x2="121.811" y2="159.043"/>
				<g>
					<g>
						<rect x="73.345" y="158.043" fill="#42566B" width="1" height="2"/>
					</g>
					<g>
						<path fill="#42566B" d="M119.801,160.043h-2.021v-2h2.021V160.043z M116.77,160.043h-2.02v-2h2.02V160.043z M113.739,160.043
							h-2.02v-2h2.02V160.043z M110.709,160.043h-2.021v-2h2.021V160.043z M107.679,160.043h-2.021v-2h2.021V160.043z
							 M104.648,160.043h-2.021v-2h2.021V160.043z M101.618,160.043h-2.021v-2h2.021V160.043z M98.588,160.043h-2.021v-2h2.021
							V160.043z M95.558,160.043h-2.021v-2h2.021V160.043z M92.527,160.043h-2.021v-2h2.021V160.043z M89.496,160.043h-2.02v-2h2.02
							V160.043z M86.466,160.043h-2.02v-2h2.02V160.043z M83.436,160.043h-2.021v-2h2.021V160.043z M80.405,160.043h-2.021v-2h2.021
							V160.043z M77.375,160.043h-2.021v-2h2.021V160.043z"/>
					</g>
					<g>
						<rect x="120.811" y="158.043" fill="#42566B" width="1" height="2"/>
					</g>
				</g>
			</g>
			<g>
				<line fill="#00A0D8" x1="73.345" y1="211.723" x2="121.811" y2="211.723"/>
				<g>
					<g>
						<rect x="73.345" y="210.723" fill="#42566B" width="1" height="2"/>
					</g>
					<g>
						<path fill="#42566B" d="M119.801,212.723h-2.021v-2h2.021V212.723z M116.77,212.723h-2.02v-2h2.02V212.723z M113.739,212.723
							h-2.02v-2h2.02V212.723z M110.709,212.723h-2.021v-2h2.021V212.723z M107.679,212.723h-2.021v-2h2.021V212.723z
							 M104.648,212.723h-2.021v-2h2.021V212.723z M101.618,212.723h-2.021v-2h2.021V212.723z M98.588,212.723h-2.021v-2h2.021
							V212.723z M95.558,212.723h-2.021v-2h2.021V212.723z M92.527,212.723h-2.021v-2h2.021V212.723z M89.496,212.723h-2.02v-2h2.02
							V212.723z M86.466,212.723h-2.02v-2h2.02V212.723z M83.436,212.723h-2.021v-2h2.021V212.723z M80.405,212.723h-2.021v-2h2.021
							V212.723z M77.375,212.723h-2.021v-2h2.021V212.723z"/>
					</g>
					<g>
						<rect x="120.811" y="210.723" fill="#42566B" width="1" height="2"/>
					</g>
				</g>
			</g>
			<g>
				<path fill="#FFFFFF" d="M158.091,192.366h-19.88c-2.066,0-3.757-1.69-3.757-3.756v-13.102h23.637
					c2.066,0,3.757,1.69,3.757,3.757v9.345C161.848,190.676,160.157,192.366,158.091,192.366z"/>
				<path fill="#42566B" d="M158.091,193.366h-19.88c-2.623,0-4.757-2.134-4.757-4.756v-14.102h24.637
					c2.623,0,4.757,2.134,4.757,4.757v9.345C162.848,191.232,160.714,193.366,158.091,193.366z M135.454,176.509v12.102
					c0,1.52,1.236,2.756,2.757,2.756h19.88c1.521,0,2.757-1.236,2.757-2.756v-9.345c0-1.521-1.236-2.757-2.757-2.757H135.454z"/>
			</g>
			<circle fill="#FFFFFF" cx="152.094" cy="183.938" r="3.432"/>
		</g>
		<g>
			<g>
				<path fill="#FFFFFF" d="M158.756,167.951H86.927c-1.628,0-2.947-1.32-2.947-2.948v-34.656c0-1.628,1.319-2.948,2.947-2.948
					h71.829c1.628,0,2.948,1.32,2.948,2.948v34.656C161.704,166.631,160.384,167.951,158.756,167.951z"/>
				<path fill="#42566B" d="M158.756,168.951H86.927c-2.177,0-3.947-1.771-3.947-3.948v-34.656c0-2.177,1.771-3.948,3.947-3.948
					h71.829c2.177,0,3.948,1.771,3.948,3.948v34.656C162.704,167.18,160.933,168.951,158.756,168.951z M86.927,128.398
					c-1.074,0-1.947,0.874-1.947,1.948v34.656c0,1.074,0.873,1.948,1.947,1.948h71.829c1.074,0,1.948-0.874,1.948-1.948v-34.656
					c0-1.074-0.874-1.948-1.948-1.948H86.927z"/>
			</g>
			<g>
				<rect x="83.979" y="137.454" fill="#28324B" width="77.725" height="6.759"/>
				<path fill="#42566B" d="M162.704,145.213H82.979v-8.759h79.725V145.213z M84.979,143.213h75.725v-4.759H84.979V143.213z"/>
			</g>
			<g>
				<path fill="#FFFFFF" d="M117.985,150.809c8.017,0,16.033,0,24.051,0"/>
				<rect x="117.985" y="149.809" fill="#42566B" width="24.051" height="2"/>
			</g>
			<g>
				<path fill="#FFFFFF" d="M88.949,150.809c8.601,0,17.2,0,25.801,0"/>
				<rect x="88.949" y="149.809" fill="#42566B" width="25.801" height="2"/>
			</g>
			<g>
				<line fill="#FFFFFF" x1="88.949" y1="156.603" x2="107.152" y2="156.603"/>
				<rect x="88.949" y="155.603" fill="#42566B" width="18.203" height="2"/>
			</g>
			<g>
				<line fill="#FFFFFF" x1="109.285" y1="156.603" x2="119.234" y2="156.603"/>
				<rect x="109.285" y="155.603" fill="#42566B" width="9.949" height="2"/>
			</g>
			<g>
				<line fill="#FFFFFF" x1="88.949" y1="160.534" x2="107.152" y2="160.534"/>
				<rect x="88.949" y="159.534" fill="#42566B" width="18.203" height="2"/>
			</g>
			<g>
				<line fill="#FFFFFF" x1="109.285" y1="160.534" x2="119.234" y2="160.534"/>
				<rect x="109.285" y="159.534" fill="#42566B" width="9.949" height="2"/>
			</g>
			<g>
				<line fill="#FFFFFF" x1="121.246" y1="156.603" x2="131.195" y2="156.603"/>
				<rect x="121.246" y="155.603" fill="#42566B" width="9.949" height="2"/>
			</g>
		</g>
	</g>
	<g>
		<g>
			<g>
				<path fill="#FFFFFF" d="M264.857,213.683c0,3.573-2.896,6.469-6.474,6.469h-58.243c-3.573,0-6.472-2.896-6.472-6.469V106.898
					c0-3.575,2.898-6.474,6.472-6.474h58.243c3.577,0,6.474,2.898,6.474,6.474V213.683z"/>
				<path fill="#42566B" d="M258.384,221.151h-58.243c-4.12,0-7.472-3.351-7.472-7.469V106.898c0-4.121,3.352-7.474,7.472-7.474
					h58.243c4.121,0,7.474,3.353,7.474,7.474v106.784C265.857,217.801,262.505,221.151,258.384,221.151z M200.141,101.425
					c-3.017,0-5.472,2.455-5.472,5.474v106.784c0,3.016,2.455,5.469,5.472,5.469h58.243c3.018,0,5.474-2.453,5.474-5.469V106.898
					c0-3.019-2.456-5.474-5.474-5.474H200.141z"/>
			</g>
			<rect x="200.141" y="114.679" fill="#F00A3C" width="58.243" height="88.988"/>
		</g>
		<g>
			<circle fill="#FFFFFF" cx="228.979" cy="157.124" r="18.711"/>
			<g>
				<path fill="#03314C" d="M240.854,148.603h-3.644l-1.138,4.273h-16.915v0.007c-0.046,0-0.092,0.001-0.141,0.018
					c-0.221,0.08-0.34,0.321-0.262,0.547l3.094,8.834h12.6l3.419-12.824h2.986c0.235,0,0.428-0.19,0.428-0.427
					C241.282,148.793,241.09,148.603,240.854,148.603z M235.445,155.228h-1.84l0.235-1.495h2.004L235.445,155.228z M234.875,157.366
					h-1.606l0.269-1.712h1.795L234.875,157.366z M234.307,159.503h-1.377l0.269-1.711h1.563L234.307,159.503z M228.248,161.427
					l-0.373-1.497h2.321l0.224,1.497H228.248z M225.259,161.427l-0.375-1.497h2.552l0.375,1.497H225.259z M222.895,153.732
					l0.374,1.495h-2.981l-0.523-1.495H222.895z M225.887,153.732l0.373,1.495h-2.553l-0.373-1.495H225.887z M227.233,157.366
					l-0.428-1.712h2.751l0.256,1.712H227.233z M229.875,157.792l0.259,1.711h-2.366l-0.427-1.711H229.875z M226.793,157.366h-2.55
					l-0.431-1.712h2.554L226.793,157.366z M229.987,155.654h3.118l-0.27,1.712h-2.592L229.987,155.654z M229.924,155.228
					l-0.225-1.495h3.712l-0.236,1.495H229.924z M229.491,155.228h-2.793l-0.372-1.495h2.94L229.491,155.228z M223.374,155.654
					l0.427,1.712h-2.768l-0.598-1.712H223.374z M221.185,157.792h2.726l0.426,1.711h-2.553L221.185,157.792z M224.35,157.792h2.551
					l0.428,1.711h-2.552L224.35,157.792z M230.63,159.93h1.801l-0.232,1.463c0,0.013,0.002,0.021,0.002,0.034h-1.348L230.63,159.93z
					 M230.565,159.503l-0.258-1.711h2.459l-0.268,1.711H230.565z M221.933,159.93h2.511l0.373,1.497h-2.361L221.933,159.93z
					 M232.628,161.427l0.236-1.497h1.329l-0.4,1.497H232.628z"/>
				<path fill="#03314C" d="M232.198,162.71c-0.918,0-1.679,0.639-1.874,1.495h-4.377c-0.194-0.856-0.956-1.495-1.872-1.495
					c-1.062,0-1.924,0.858-1.924,1.923c0,1.063,0.862,1.924,1.924,1.924c1.063,0,1.924-0.861,1.924-1.924h4.275
					c0,1.063,0.859,1.924,1.924,1.924c1.061,0,1.922-0.861,1.922-1.924C234.12,163.568,233.259,162.71,232.198,162.71z
					 M224.075,165.7c-0.589,0-1.069-0.479-1.069-1.067c0-0.591,0.48-1.07,1.069-1.07c0.59,0,1.07,0.479,1.07,1.07
					C225.146,165.222,224.665,165.7,224.075,165.7z M232.198,165.7c-0.591,0-1.07-0.479-1.07-1.067c0-0.591,0.479-1.07,1.07-1.07
					c0.588,0,1.067,0.479,1.067,1.07C233.266,165.222,232.786,165.7,232.198,165.7z"/>
			</g>
		</g>
	</g>
	<g>
		<g>
			<path fill="#FFFFFF" d="M201.252,161.266c-1.737-1.095-2.755-3.049-2.653-5.1c0.057-1.14,8.989-26.582,4.806-29.049
				c-0.71-0.418-1.594-0.408-2.295,0.026l-0.592,0.368c-0.808,0.501-1.828,0.501-2.635,0l-3.016-1.871
				c-0.716-0.444-1.622-0.444-2.338,0l-3.016,1.871c-0.807,0.501-1.828,0.501-2.635,0l-3.015-1.871
				c-0.717-0.444-1.622-0.444-2.338,0l-3.016,1.871c-0.807,0.501-1.828,0.501-2.635,0l-0.593-0.368
				c-0.7-0.435-1.584-0.444-2.294-0.026c-4.208,2.479,4.748,27.909,4.805,29.049c0.103,2.054-0.913,4.003-2.653,5.1
				c-9.083,5.727-19.006,15.599-19.006,26.824c0,17.707,14.354,32.062,32.063,32.062c17.706,0,32.062-14.354,32.062-32.062
				C220.259,176.864,210.336,166.992,201.252,161.266z"/>
			<path fill="#42566B" d="M188.197,221.151c-18.231,0-33.063-14.831-33.063-33.062c0-14.283,14.904-24.79,19.473-27.67
				c1.434-0.904,2.271-2.515,2.188-4.204c-0.036-0.199-0.428-1.483-0.842-2.843c-4.525-14.839-6.848-25.13-3.472-27.117
				c1.034-0.608,2.309-0.595,3.328,0.038l0.593,0.368c0.487,0.303,1.093,0.302,1.58,0l3.016-1.871c1.045-0.648,2.345-0.65,3.393,0
				l3.015,1.871c0.487,0.303,1.094,0.302,1.58,0l3.016-1.871c1.047-0.65,2.347-0.65,3.393,0l3.016,1.871
				c0.486,0.302,1.092,0.303,1.58,0l0.592-0.368c1.02-0.633,2.295-0.646,3.329-0.038c3.358,1.979,1.041,12.269-3.472,27.109
				c-0.415,1.363-0.807,2.65-0.847,2.903c-0.079,1.637,0.76,3.248,2.192,4.151l0,0c4.568,2.88,19.474,13.387,19.474,27.67
				C221.259,206.32,206.427,221.151,188.197,221.151z M174.115,127.81c-0.214,0-0.427,0.057-0.618,0.169
				c-1.012,0.597-1.789,4.612,4.37,24.812c0.76,2.492,0.91,3.009,0.926,3.326c0.12,2.41-1.075,4.707-3.119,5.995
				c-4.349,2.742-18.539,12.72-18.539,25.979c0,17.127,13.935,31.062,31.063,31.062c17.127,0,31.062-13.935,31.062-31.062
				c0-13.26-14.19-23.236-18.54-25.979c-2.043-1.287-3.238-3.584-3.118-5.995c0.016-0.317,0.166-0.835,0.925-3.332
				c6.144-20.204,5.375-24.214,4.371-24.806c-0.392-0.229-0.873-0.225-1.259,0.015l-0.593,0.368c-1.138,0.708-2.551,0.708-3.69,0
				l-3.015-1.871c-0.396-0.245-0.887-0.245-1.283,0l-3.016,1.871c-1.138,0.708-2.551,0.708-3.689,0l-3.015-1.871
				c-0.396-0.245-0.888-0.245-1.283,0l-3.016,1.871c-1.138,0.707-2.553,0.707-3.689,0l-0.593-0.368
				C174.56,127.871,174.337,127.81,174.115,127.81z"/>
		</g>
		<g>
			<path fill="#C4C4C4" d="M201.761,157.356h-27.129c-1.669,0-3.035-1.366-3.035-3.036l0,0c0-1.669,1.366-3.035,3.035-3.035h27.129
				c1.67,0,3.036,1.366,3.036,3.035l0,0C204.797,155.99,203.431,157.356,201.761,157.356z"/>
			<path fill="#42566B" d="M201.761,158.356h-27.129c-2.225,0-4.035-1.811-4.035-4.036c0-2.225,1.811-4.035,4.035-4.035h27.129
				c2.226,0,4.036,1.811,4.036,4.035C205.797,156.546,203.986,158.356,201.761,158.356z M174.632,152.285
				c-1.122,0-2.035,0.913-2.035,2.035c0,1.123,0.913,2.036,2.035,2.036h27.129c1.123,0,2.036-0.913,2.036-2.036
				c0-1.122-0.913-2.035-2.036-2.035H174.632z"/>
		</g>
		<g>
			<path fill="#42566B" d="M193.418,181.771c-1.431-1.315-2.631-2.05-4.487-2.05c-2.087,0-3.362,1.084-3.362,3.094
				c0,4.641,10.519,3.712,10.519,11.524c0,3.675-2.168,6.381-5.994,7.08v3.977h-3.094v-3.863c-2.361-0.231-4.949-1.313-6.692-2.938
				l2.012-3.018c1.818,1.431,3.637,2.395,5.725,2.395c2.513,0,3.75-1.235,3.75-3.322c0-5.104-10.518-4.369-10.518-11.641
				c0-3.597,2.243-6.149,5.724-6.768v-3.944h3.094v3.868c2.475,0.31,4.175,1.507,5.606,3.016L193.418,181.771z"/>
		</g>
	</g>
	<g>
		<g>
			<path fill="#FFFFFF" d="M440.862,115.828c1.81,2.525,1.233,6.043-1.293,7.856l-32.007,22.979
				c-2.523,1.813-6.04,1.234-7.855-1.291l0,0c-1.813-2.522-1.235-6.042,1.291-7.854l32.007-22.98
				C435.53,112.726,439.047,113.303,440.862,115.828L440.862,115.828z"/>
			<g>
				<path fill="#42566B" d="M404.292,148.718c-2.065,0-4.102-0.959-5.397-2.761c-1.032-1.438-1.442-3.191-1.155-4.939
					s1.237-3.278,2.675-4.311l32.008-22.98c2.969-2.129,7.118-1.45,9.253,1.518l0.001,0.002c2.128,2.971,1.444,7.12-1.524,9.251
					l-32.006,22.979C406.979,148.314,405.63,148.718,404.292,148.718z M436.281,114.484c-0.935,0-1.878,0.281-2.692,0.867
					l-32.008,22.98c-1.005,0.721-1.668,1.789-1.869,3.01c-0.2,1.221,0.086,2.444,0.807,3.447c1.491,2.075,4.389,2.553,6.461,1.063
					l32.006-22.979c2.072-1.487,2.55-4.386,1.065-6.461C439.146,115.154,437.724,114.484,436.281,114.484z"/>
			</g>
		</g>
		<g>
			<path fill="#FFFFFF" d="M453.421,121.455c1.814,2.526,1.237,6.045-1.289,7.858l-32.005,22.98
				c-2.526,1.812-6.042,1.235-7.855-1.291l0,0c-1.813-2.525-1.235-6.042,1.29-7.854l32.009-22.979
				C448.093,118.354,451.61,118.933,453.421,121.455L453.421,121.455z"/>
			<g>
				<path fill="#42566B" d="M416.854,154.347c-2.065,0-4.102-0.959-5.395-2.761c-1.032-1.438-1.443-3.192-1.156-4.939
					s1.237-3.278,2.676-4.311l32.009-22.979c1.436-1.033,3.189-1.442,4.938-1.157c1.746,0.286,3.276,1.235,4.308,2.673l0,0
					c1.034,1.438,1.444,3.193,1.158,4.941s-1.236,3.279-2.675,4.313l-32.006,22.98C419.543,153.943,418.191,154.347,416.854,154.347
					z M448.842,120.11c-0.96,0-1.894,0.299-2.688,0.87l-32.009,22.98c-1.005,0.721-1.668,1.79-1.868,3.01s0.087,2.444,0.808,3.449
					c1.488,2.073,4.386,2.549,6.46,1.062l32.006-22.98c1.004-0.721,1.667-1.791,1.867-3.011c0.2-1.222-0.087-2.447-0.809-3.452l0,0
					c-0.72-1.003-1.789-1.666-3.008-1.865C449.348,120.131,449.094,120.11,448.842,120.11z"/>
			</g>
		</g>
		<g>
			<path fill="#FFFFFF" d="M450.583,138.344c1.814,2.526,1.237,6.042-1.289,7.854l-32.006,22.982
				c-2.526,1.811-6.042,1.235-7.854-1.291l0,0c-1.815-2.526-1.238-6.041,1.285-7.856l32.01-22.979
				C445.254,135.242,448.77,135.818,450.583,138.344L450.583,138.344z"/>
			<g>
				<path fill="#42566B" d="M414.015,171.233c-2.065,0-4.101-0.96-5.393-2.761c-2.132-2.967-1.453-7.117,1.513-9.251l32.011-22.979
					c2.969-2.132,7.118-1.45,9.25,1.519h-0.001c1.034,1.438,1.445,3.193,1.159,4.939c-0.287,1.747-1.237,3.278-2.677,4.311
					l-32.006,22.982C416.702,170.83,415.352,171.232,414.015,171.233z M446.005,137c-0.935,0-1.878,0.281-2.693,0.867l-32.01,22.979
					c-2.07,1.489-2.545,4.388-1.056,6.461c1.487,2.071,4.384,2.547,6.459,1.062l32.006-22.982c1.005-0.721,1.669-1.789,1.869-3.009
					s-0.087-2.445-0.81-3.45l0,0C448.868,137.67,447.446,137,446.005,137z"/>
			</g>
		</g>
		<g>
			<path fill="#FFFFFF" d="M447.792,155.741c1.815,2.524,1.236,6.043-1.289,7.855l-32.006,22.981
				c-2.524,1.813-6.041,1.235-7.854-1.29l0,0c-1.813-2.523-1.238-6.043,1.289-7.855l32.008-22.981
				C442.463,152.642,445.98,153.217,447.792,155.741L447.792,155.741z"/>
			<g>
				<path fill="#42566B" d="M411.229,188.636c-0.361,0-0.725-0.029-1.088-0.089c-1.748-0.287-3.278-1.237-4.311-2.676
					c-1.033-1.438-1.444-3.191-1.158-4.939c0.287-1.748,1.237-3.279,2.676-4.312l32.009-22.981c2.969-2.127,7.117-1.448,9.247,1.519
					l0,0c1.033,1.437,1.444,3.19,1.158,4.938c-0.286,1.749-1.236,3.281-2.677,4.314l-32.005,22.981
					C413.941,188.208,412.604,188.636,411.229,188.636z M443.215,154.397c-0.934,0-1.876,0.281-2.691,0.866l-32.009,22.981
					c-1.004,0.721-1.667,1.79-1.867,3.011c-0.2,1.22,0.087,2.445,0.808,3.448c0.722,1.005,1.79,1.669,3.01,1.869
					c1.222,0.197,2.445-0.086,3.449-0.808l32.005-22.981c1.007-0.722,1.67-1.791,1.87-3.013c0.2-1.22-0.087-2.443-0.81-3.446v-0.001
					C446.077,155.067,444.656,154.397,443.215,154.397z"/>
			</g>
		</g>
		<g>
			<g>
				<path fill="#FFFFFF" d="M437.354,194.537c0,2.131-1.731,3.854-3.881,3.854h-50.103c-2.141,0-3.883-1.723-3.883-3.854v-88.969
					c0-2.131,1.742-3.856,3.883-3.856h50.103c2.149,0,3.881,1.726,3.881,3.856V194.537z"/>
				<g>
					<path fill="#42566B" d="M433.474,199.391h-50.103c-2.692,0-4.883-2.178-4.883-4.854v-88.969c0-2.678,2.19-4.856,4.883-4.856
						h50.103c2.691,0,4.881,2.179,4.881,4.856v88.969C438.354,197.213,436.165,199.391,433.474,199.391z M383.371,102.712
						c-1.59,0-2.883,1.281-2.883,2.856v88.969c0,1.573,1.293,2.854,2.883,2.854h50.103c1.589,0,2.881-1.28,2.881-2.854v-88.969
						c0-1.575-1.292-2.856-2.881-2.856H383.371z"/>
				</g>
			</g>
			<rect x="385.488" y="112.776" fill="#00B9FF" width="45.869" height="73.041"/>
			<path fill="#FFFFFF" d="M417.031,154.249h-17.217c-1.69,0-3.061-1.369-3.061-3.06v-3.785c0-1.69,1.37-3.061,3.061-3.061h17.217
				c1.69,0,3.061,1.37,3.061,3.061v3.785C420.092,152.88,418.722,154.249,417.031,154.249z"/>
			<g>
				<path fill="#42566B" d="M402.318,146.915h1.823c1.027,0,1.486,0.542,1.486,1.192c0,0.59-0.321,0.843-0.575,0.946
					c0.349,0.144,0.74,0.486,0.74,1.137c0,0.905-0.686,1.419-1.686,1.419h-1.789V146.915z M403.977,148.759
					c0.494,0,0.72-0.157,0.72-0.555c0-0.384-0.261-0.563-0.671-0.563h-0.768v1.117H403.977z M403.258,150.89h0.78
					c0.438,0,0.774-0.212,0.774-0.699c0-0.459-0.267-0.705-0.843-0.705h-0.712V150.89z"/>
				<path fill="#42566B" d="M407.446,146.915v2.988c0,0.527,0.145,1.014,0.871,1.014c0.72,0,0.85-0.466,0.85-1.014v-2.988h0.966
					v3.009c0,0.979-0.418,1.754-1.836,1.754c-1.391,0-1.81-0.746-1.81-1.747v-3.016H407.446z"/>
				<path fill="#42566B" d="M412.04,151.609v-1.768c0-0.056-0.007-0.103-0.041-0.151l-1.487-2.775h1.076
					c0.336,0.706,0.768,1.604,0.973,2.043c0.309-0.672,0.664-1.392,0.974-2.043h0.993l-1.494,2.755
					c-0.027,0.041-0.041,0.076-0.041,0.145v1.795H412.04z"/>
			</g>
		</g>
		<g>
			<path fill="#FFFFFF" d="M439.327,220.014l36.36,0.087l-3.509-9.22c-0.659-3.303-2.687-6.367-2.687-9.684
				c0-2.447,1.652-4.923,1.652-10.225c0-2.552-0.451-5.086-1.45-7.698l-12.169-19.362c-1.015-1.635-3.678-1.807-5.945-0.393
				l-0.743,0.466c-2.269,1.411-3.282,3.88-2.266,5.509l8.27,13.163l-0.477-0.092l-12.117-19.29
				c-1.018-1.628-3.678-1.803-5.945-0.388l-0.744,0.466c-2.27,1.413-3.285,3.879-2.267,5.511l6.808,10.834l-0.307-0.065
				l-8.294-13.191c-1.02-1.631-3.683-1.81-5.948-0.395l-0.745,0.467c-2.269,1.413-3.286,3.881-2.269,5.511l7.527,11.972
				l-0.299,0.158l-15.972-25.615c-1.019-1.635-3.681-1.813-5.949-0.396l-0.748,0.467c-2.267,1.414-3.279,3.881-2.262,5.512
				l18.737,30.047c0,0,2.113,5.199-4.229,0.459l-0.012,0.019l-10.124-7.564c-1.619-1.037-4.098-0.056-5.54,2.195l-0.476,0.739
				c-1.443,2.247-1.305,4.911,0.316,5.95C420.679,206.688,439.327,221.754,439.327,220.014z"/>
			<g>
				<path fill="#42566B" d="M439.188,221.16c-1.218,0-3.955-1.892-16.638-11.408c-5.554-4.167-11.848-8.89-17.62-12.97
					c-0.81-0.518-1.383-1.378-1.62-2.464c-0.334-1.529,0.045-3.295,1.04-4.844l0.475-0.738c1.766-2.755,4.806-3.852,6.922-2.497
					l10.194,7.587c1.722,1.287,2.587,1.653,2.964,1.756c-0.023-0.262-0.113-0.649-0.231-0.963l-18.688-29.969
					c-1.329-2.131-0.196-5.157,2.58-6.89l0.749-0.467c1.273-0.795,2.705-1.188,4.039-1.095c1.453,0.097,2.62,0.74,3.288,1.811
					l6.817,10.934c0.482-1.276,1.48-2.445,2.817-3.278l0.742-0.465c2.697-1.688,5.814-1.438,7.212,0.537
					c0.012-0.03,0.024-0.061,0.036-0.091c0.508-1.232,1.488-2.349,2.763-3.142l0.741-0.465c2.777-1.733,5.994-1.423,7.324,0.705
					l2.363,3.762c0.468-1.313,1.481-2.52,2.851-3.371l0.74-0.464c1.566-0.977,3.339-1.331,4.864-0.977
					c1.08,0.252,1.932,0.836,2.462,1.689l12.254,19.532c1.02,2.667,1.516,5.302,1.516,8.056c0,3.29-0.606,5.523-1.095,7.317
					c-0.312,1.146-0.558,2.051-0.558,2.907c0,1.782,0.663,3.529,1.364,5.379c0.491,1.293,0.997,2.629,1.286,4.025l3.997,10.503
					l-37.402-0.09c-0.009,0.005-0.018,0.009-0.026,0.014C439.554,221.107,439.393,221.16,439.188,221.16z M438.894,219.013
					l35.342,0.084l-3.038-8.021c-0.252-1.264-0.718-2.491-1.21-3.791c-0.735-1.937-1.495-3.939-1.495-6.088
					c0-1.124,0.291-2.193,0.627-3.432c0.457-1.68,1.025-3.77,1.025-6.793c0-2.474-0.441-4.847-1.349-7.25l-12.117-19.278
					c-0.311-0.501-0.834-0.711-1.219-0.801c-1-0.232-2.251,0.038-3.351,0.725l-0.741,0.465c-1.101,0.684-1.895,1.688-2.126,2.686
					c-0.09,0.386-0.132,0.95,0.177,1.446l9.494,15.109l-3.164-0.609L443.4,163.808c-0.714-1.142-2.806-1.173-4.569-0.071
					l-0.742,0.465c-0.91,0.566-1.629,1.37-1.973,2.206c-0.175,0.426-0.404,1.242,0.023,1.928l8.065,12.835l-3.034-0.647
					l-8.52-13.549c-0.715-1.146-2.81-1.18-4.572-0.078l-0.742,0.465c-1.103,0.688-1.897,1.692-2.13,2.691
					c-0.089,0.386-0.131,0.948,0.178,1.443l8.097,12.878l-2.071,1.104l-16.466-26.408c-0.43-0.688-1.264-0.843-1.724-0.874
					c-0.901-0.054-1.94,0.23-2.848,0.797l-0.749,0.467c-1.764,1.101-2.653,2.994-1.941,4.134l18.815,30.199
					c0.237,0.585,0.92,2.563-0.267,3.479c-0.926,0.715-2.326,0.359-4.594-1.2l-0.011,0.018l-0.894-0.642l-10.125-7.564
					c-1.073-0.682-2.978,0.184-4.1,1.935l-0.476,0.739c-0.699,1.089-0.986,2.336-0.769,3.337c0.085,0.387,0.289,0.915,0.783,1.231
					c5.833,4.121,12.139,8.854,17.703,13.028C430.252,213.031,436.96,218.063,438.894,219.013z"/>
			</g>
		</g>
		<g>
			<path fill="#FFFFFF" d="M402.174,124.449c-1.147-3.015-4.427-4.563-7.338-3.46l-10.586,4.286
				c-2.357,0.642-3.817,1.346-4.762,1.979c-0.987,0.662-1.42,1.249-1.724,1.615l-11.184,14.494
				c-0.928,1.201-1.474,2.653-1.571,4.168l-1.386,21.729l-41.714,50.737l40.709-0.205l17.388-23.336
				c-0.327-0.569-0.519-1.223-0.519-1.924v-17.277c3.539-3.797,4.605-10.437,4.605-16.517c0-3.695-1.037-13.12-3.896-16.637
				c1.727-2.382,6.01-7.029,6.01-7.029l12.775-5.169C401.889,130.801,403.315,127.463,402.174,124.449z"/>
			<g>
				<path fill="#42566B" d="M319.785,221.009l42.862-52.134l1.364-21.406c0.111-1.724,0.727-3.354,1.777-4.716l11.289-14.622
					c0.312-0.383,0.833-1.022,1.853-1.706c1.233-0.828,2.869-1.515,4.999-2.099l10.53-4.264c3.438-1.302,7.309,0.51,8.648,4.031
					v0.001c1.336,3.524-0.354,7.447-3.77,8.744l-12.546,5.076c-0.706,0.771-3.7,4.064-5.353,6.198
					c2.722,4.145,3.653,13.005,3.653,16.626c0,5.337-0.808,12.542-4.605,16.9v16.894c0,0.501,0.13,0.98,0.385,1.426l0.328,0.569
					l-18.078,24.262L319.785,221.009z M396.765,121.637c-0.526,0-1.059,0.093-1.575,0.288l-10.677,4.315
					c-1.918,0.521-3.422,1.143-4.468,1.845c-0.771,0.518-1.144,0.976-1.417,1.31l-0.093,0.113l-11.162,14.468
					c-0.809,1.046-1.279,2.298-1.365,3.621l-1.406,22.05l-0.204,0.249l-40.362,49.092l38.08-0.191l16.728-22.45
					c-0.233-0.578-0.354-1.193-0.354-1.813v-17.671l0.268-0.288c3.586-3.846,4.338-10.733,4.338-15.835
					c0-3.881-1.108-12.853-3.672-16.006l-0.484-0.596l0.451-0.622c1.741-2.401,5.907-6.93,6.084-7.121l0.152-0.165l12.984-5.252
					c2.404-0.914,3.575-3.68,2.629-6.174C400.495,122.852,398.668,121.637,396.765,121.637z"/>
			</g>
		</g>
	</g>
	<g>
		<g>
			<g>
				<g>
					<rect x="45.042" y="182.191" fill="#FFFFFF" width="7.313" height="29.039"/>
					<path fill="#42566B" d="M53.355,212.23h-9.313v-31.039h9.313V212.23z M46.042,210.23h5.313v-27.039h-5.313V210.23z"/>
				</g>
				<g>
					<rect x="40.682" y="206.375" fill="#C4C4C4" width="16.035" height="4.855"/>
					<path fill="#42566B" d="M57.717,212.23H39.682v-6.855h18.035V212.23z M41.682,210.23h14.035v-2.855H41.682V210.23z"/>
				</g>
				<g>
					<rect x="67.294" y="182.191" fill="#FFFFFF" width="7.313" height="29.039"/>
					<path fill="#42566B" d="M75.607,212.23h-9.313v-31.039h9.313V212.23z M68.294,210.23h5.313v-27.039h-5.313V210.23z"/>
				</g>
				<g>
					<rect x="62.933" y="206.375" fill="#C4C4C4" width="16.035" height="4.855"/>
					<path fill="#42566B" d="M79.968,212.23H61.933v-6.855h18.035V212.23z M63.933,210.23h14.035v-2.855H63.933V210.23z"/>
				</g>
				<g>
					<rect x="89.545" y="182.191" fill="#FFFFFF" width="7.313" height="29.039"/>
					<path fill="#42566B" d="M97.858,212.23h-9.313v-31.039h9.313V212.23z M90.545,210.23h5.313v-27.039h-5.313V210.23z"/>
				</g>
				<g>
					<rect x="85.185" y="206.375" fill="#C4C4C4" width="16.035" height="4.855"/>
					<path fill="#42566B" d="M102.22,212.23H84.185v-6.855h18.035V212.23z M86.185,210.23h14.035v-2.855H86.185V210.23z"/>
				</g>
				<g>
					<rect x="36.527" y="211.118" fill="#FFFFFF" width="69.195" height="4.517"/>
					<path fill="#42566B" d="M106.723,216.635H35.527v-6.517h71.195V216.635z M37.527,214.635h67.195v-2.517H37.527V214.635z"/>
				</g>
				<g>
					<rect x="32.979" y="215.635" fill="#C4C4C4" width="76.293" height="4.517"/>
					<path fill="#42566B" d="M110.271,221.151H31.979v-6.517h78.293V221.151z M33.979,219.151h74.293v-2.517H33.979V219.151z"/>
				</g>
				<g>
					<rect x="38.807" y="177.675" fill="#C4C4C4" width="64.637" height="4.517"/>
					<path fill="#42566B" d="M104.443,183.191H37.807v-6.517h66.637V183.191z M39.807,181.191h62.637v-2.517H39.807V181.191z"/>
				</g>
				<g>
					<polygon fill="#C4C4C4" points="45.042,177.675 71.125,154.783 96.858,177.675 					"/>
					<path fill="#42566B" d="M99.487,178.675H42.387l28.742-25.226L99.487,178.675z M47.697,176.675h46.532L71.12,156.117
						L47.697,176.675z"/>
				</g>
				<g>
					<path fill="#42566B" d="M85.185,173.591c-0.236,0-0.473-0.083-0.663-0.252l-6.223-5.521c-0.413-0.366-0.451-0.999-0.085-1.412
						s0.998-0.45,1.412-0.084l6.223,5.521c0.413,0.366,0.451,0.999,0.084,1.412C85.735,173.478,85.461,173.591,85.185,173.591z"/>
				</g>
				<g>
					<path fill="#42566B" d="M63.755,167.229c-0.279,0-0.557-0.116-0.755-0.344c-0.362-0.416-0.318-1.048,0.098-1.41l7.859-6.842
						l5.662,5.023c0.413,0.366,0.451,0.998,0.085,1.412c-0.366,0.413-0.998,0.45-1.412,0.084l-4.348-3.857l-6.533,5.688
						C64.222,167.147,63.988,167.229,63.755,167.229z"/>
				</g>
				<g>
					<path fill="#42566B" d="M54.96,174.886c-0.279,0-0.558-0.116-0.755-0.344c-0.362-0.416-0.319-1.048,0.098-1.41l5.901-5.138
						c0.416-0.363,1.048-0.319,1.411,0.098c0.362,0.416,0.318,1.048-0.098,1.41l-5.901,5.138
						C55.427,174.805,55.192,174.886,54.96,174.886z"/>
				</g>
			</g>
		</g>
	</g>
	<g>
		<rect x="6.345" y="219.151" fill="#42566B" width="504.727" height="2"/>
	</g>
	<g>
		<circle fill="#FFFFFF" cx="510.662" cy="219.979" r="5"/>
		<path fill="#42566B" d="M510.663,225.979c-3.309,0-6-2.691-6-6s2.691-6,6-6s6,2.691,6,6S513.972,225.979,510.663,225.979z
			 M510.663,215.979c-2.206,0-4,1.794-4,4s1.794,4,4,4c2.205,0,4-1.794,4-4S512.868,215.979,510.663,215.979z"/>
	</g>
	<g>
		<circle fill="#FFFFFF" cx="8.004" cy="219.979" r="5"/>
		<path fill="#42566B" d="M8.004,225.979c-3.309,0-6-2.691-6-6s2.691-6,6-6s6,2.691,6,6S11.313,225.979,8.004,225.979z
			 M8.004,215.979c-2.206,0-4,1.794-4,4s1.794,4,4,4c2.205,0,4-1.794,4-4S10.209,215.979,8.004,215.979z"/>
	</g>
</g>
</svg>
