<?xml version="1.0" encoding="iso-8859-1"?>
<!-- Generator: Adobe Illustrator 15.1.0, SVG Export Plug-In . SVG Version: 6.00 Build 0)  -->
<!DOCTYPE svg PUBLIC "-//W3C//DTD SVG 1.1//EN" "http://www.w3.org/Graphics/SVG/1.1/DTD/svg11.dtd">
<svg version="1.1" id="Layer_1" xmlns="http://www.w3.org/2000/svg" xmlns:xlink="http://www.w3.org/1999/xlink" x="0px" y="0px"
	 width="150px" height="54px" viewBox="0 0 150 54" style="enable-background:new 0 0 150 54;" xml:space="preserve">
<g>
	<g>
		<g>
			<defs>
				<path id="SVGID_1_" d="M42.105,40.746c0-1.727,1.406-3.128,3.131-3.128c1.726,0,3.126,1.401,3.126,3.128s-1.4,3.13-3.126,3.13
					C43.514,43.876,42.105,42.473,42.105,40.746 M33.655,40.746c0,6.399,5.186,11.583,11.583,11.583
					c6.396,0,11.583-5.184,11.583-11.583c0-6.396-5.188-11.584-11.583-11.584C38.841,29.162,33.655,34.351,33.655,40.746"/>
			</defs>
			<clipPath id="SVGID_2_">
				<use xlink:href="#SVGID_1_"  style="overflow:visible;"/>
			</clipPath>
			
				<linearGradient id="SVGID_3_" gradientUnits="userSpaceOnUse" x1="-399.334" y1="-180.9937" x2="-398.9235" y2="-180.9937" gradientTransform="matrix(36.2763 43.2324 -43.2324 36.2763 6699.3521 23861.7891)">
				<stop  offset="0" style="stop-color:#ED1A3E"/>
				<stop  offset="1" style="stop-color:#EE4A9A"/>
			</linearGradient>
			<polygon style="clip-path:url(#SVGID_2_);fill:url(#SVGID_3_);" points="47.247,17.753 68.226,42.756 43.223,63.736 
				22.246,38.735 			"/>
		</g>
	</g>
	<g>
		<g>
			<defs>
				<path id="SVGID_4_" d="M9.065,40.746c0-1.727,1.405-3.128,3.131-3.128c1.726,0,3.13,1.401,3.13,3.128s-1.404,3.13-3.13,3.13
					C10.47,43.876,9.065,42.473,9.065,40.746 M0.613,40.746c0,6.399,5.186,11.583,11.583,11.583c6.397,0,11.582-5.184,11.582-11.583
					c0-6.396-5.185-11.584-11.582-11.584C5.799,29.162,0.613,34.351,0.613,40.746"/>
			</defs>
			<clipPath id="SVGID_5_">
				<use xlink:href="#SVGID_4_"  style="overflow:visible;"/>
			</clipPath>
			
				<linearGradient id="SVGID_6_" gradientUnits="userSpaceOnUse" x1="-398.7944" y1="-181.6367" x2="-398.3838" y2="-181.6367" gradientTransform="matrix(36.2761 43.2322 -43.2322 36.2761 6618.8618 23861.6836)">
				<stop  offset="0" style="stop-color:#ED1A3E"/>
				<stop  offset="1" style="stop-color:#EE4A9A"/>
			</linearGradient>
			<polygon style="clip-path:url(#SVGID_5_);fill:url(#SVGID_6_);" points="14.207,17.753 35.189,42.756 10.185,63.736 
				-10.794,38.735 			"/>
		</g>
	</g>
	<path style="fill:#FFFFFF;" d="M96.905,36.94c0-8.386-6.037-14.423-13.703-14.423c-3.924,0-6.669,1.577-8.585,3.976V9.439h-5.984
		v41.209h5.984v-3.264c1.916,2.405,4.661,3.979,8.585,3.979C90.868,51.361,96.905,45.323,96.905,36.94 M90.752,36.94
		c0,4.808-3.117,8.786-8.269,8.786c-4.921,0-8.271-3.776-8.271-8.786c0-5.011,3.35-8.784,8.271-8.784
		C87.633,28.156,90.752,32.134,90.752,36.94"/>
	<path style="fill:#FFFFFF;" d="M118.373,28.668v-5.436h-10.499v-8.3h-6.014v8.3v5.436v12.05c0,7.297,3.634,10.644,9.842,10.644
		c3.464,0,6.211-1.229,8.417-2.721l-2.373-4.777c-1.632,1.029-3.666,1.861-5.525,1.861c-2.405,0-4.35-1.459-4.35-5.123V28.668
		H118.373z"/>
	<path style="fill:#FFFFFF;" d="M146.384,24.573c-2.657-1.29-5.946-2.025-9.528-2.025c-6.982,0-11.329,3.376-11.329,8.783
		c0,4.437,3.203,7.21,9.296,8.044l2.863,0.37c3.289,0.458,4.749,1.462,4.749,3.031c0,2.063-2.12,3.35-6.239,3.35
		c-4.435,0-7.094-1.286-9.045-2.808l-2.772,4.495c3.976,2.978,8.956,3.52,11.758,3.52c7.902,0,12.478-3.691,12.478-8.957
		c0-4.692-3.545-7.21-9.526-8.098l-2.833-0.428c-2.516-0.374-4.515-0.889-4.515-2.834c0-1.943,1.888-3.262,5.177-3.262
		c2.788,0,5.521,0.886,7.344,1.759L146.384,24.573z"/>
	<g>
		<g>
			<defs>
				<path id="SVGID_7_" d="M25.362,12.162c0-1.724,1.402-3.131,3.128-3.131c1.729,0,3.131,1.407,3.131,3.131
					c0,1.726-1.403,3.128-3.131,3.128C26.764,15.29,25.362,13.888,25.362,12.162 M16.909,12.162c0,6.397,5.188,11.582,11.583,11.582
					c6.4,0,11.585-5.188,11.585-11.582c0-6.398-5.186-11.585-11.585-11.585C22.098,0.576,16.909,5.764,16.909,12.162"/>
			</defs>
			<clipPath id="SVGID_8_">
				<use xlink:href="#SVGID_7_"  style="overflow:visible;"/>
			</clipPath>
			
				<linearGradient id="SVGID_9_" gradientUnits="userSpaceOnUse" x1="-398.5044" y1="-180.8516" x2="-398.0939" y2="-180.8516" gradientTransform="matrix(36.2761 43.2322 -43.2322 36.2761 6658.5806 23792.0586)">
				<stop  offset="0" style="stop-color:#ED1A3E"/>
				<stop  offset="1" style="stop-color:#EE4A9A"/>
			</linearGradient>
			<polygon style="clip-path:url(#SVGID_8_);fill:url(#SVGID_9_);" points="30.507,-10.831 51.485,14.171 26.48,35.152 
				5.502,10.149 			"/>
		</g>
	</g>
</g>
</svg>
