<?xml version="1.0" encoding="utf-8"?>
<!-- Generator: Adobe Illustrator 15.1.0, SVG Export Plug-In . SVG Version: 6.00 Build 0)  -->
<!DOCTYPE svg PUBLIC "-//W3C//DTD SVG 1.1//EN" "http://www.w3.org/Graphics/SVG/1.1/DTD/svg11.dtd">
<svg version="1.1" id="Layer_1" xmlns="http://www.w3.org/2000/svg" xmlns:xlink="http://www.w3.org/1999/xlink" x="0px" y="0px"
	 width="105px" height="55px" viewBox="0 0 105 55" enable-background="new 0 0 105 55" xml:space="preserve">
<path opacity="0.2" enable-background="new    " d="M14,52.5C14,31.236,31.237,14,52.5,14C73.764,14,91,31.236,91,52.5
	c0,0.841-0.036,1.673-0.09,2.5h14.025c0.039-0.829,0.063-1.661,0.063-2.5C105,23.505,81.494,0,52.5,0C23.505,0,0,23.505,0,52.5
	c0,0.839,0.024,1.671,0.063,2.5h14.026C14.037,54.173,14,53.341,14,52.5z"/>
<path fill="#21A8DB" d="M52.5,14c4.984,0,9.744,0.958,14.117,2.683l6.004-12.681C66.424,1.428,59.629,0,52.5,0
	C23.505,0,0,23.505,0,52.5c0,0.839,0.024,1.671,0.063,2.5h14.026C14.037,54.173,14,53.341,14,52.5C14,31.236,31.237,14,52.5,14z"/>
</svg>
