<?xml version="1.0" encoding="utf-8"?>
<!-- Generator: Adobe Illustrator 15.1.0, SVG Export Plug-In . SVG Version: 6.00 Build 0)  -->
<!DOCTYPE svg PUBLIC "-//W3C//DTD SVG 1.1//EN" "http://www.w3.org/Graphics/SVG/1.1/DTD/svg11.dtd">
<svg version="1.1" id="Layer_1" xmlns="http://www.w3.org/2000/svg" xmlns:xlink="http://www.w3.org/1999/xlink" x="0px" y="0px"
	 width="808px" height="392px" viewBox="584.5 96.5 808 392" enable-background="new 584.5 96.5 808 392" xml:space="preserve">
<g>
	<g>
		<g>
			<path fill="#FFFFFF" d="M663.005,390.009v-5.276c0-18.687-11.433-26.161-27.042-26.161c-9.014,0-19.786,2.198-29.898,9.893
				l-5.057-10.333c8.574-8.134,23.084-11.871,36.055-11.871c35.615,0,40.232,24.183,40.232,39.353v54.302h-13.631v-15.608
				c-5.057,9.453-17.588,17.588-33.197,17.588c-18.687,0-36.274-9.894-36.274-28.801c0-15.608,11.872-28.36,35.835-28.36
				C643.219,384.732,655.09,387.151,663.005,390.009z M608.043,412.873c0,9.894,9.014,16.929,24.402,16.929
				c10.113,0,23.084-5.057,30.999-17.368v-12.751c-11.651-3.518-26.162-4.397-31.658-4.397
				C614.418,395.065,608.043,404.079,608.043,412.873z"/>
		</g>
		<g>
			<path fill="#FFFFFF" d="M768.971,387.811c0-22.204-11.432-29.239-23.084-29.239c-10.112,0-27.92,7.255-28.36,36.714v44.629
				h-13.85v-91.676h13.85v19.347c5.057-14.73,18.248-21.325,30.779-21.325c9.673,0,24.403,3.518,31.438,21.545
				c7.255-17.368,21.325-21.545,32.099-21.545c20.885,0,36.274,11.212,36.274,41.551v52.104h-13.851v-52.104
				c0-22.204-11.432-29.239-23.084-29.239c-9.673,0-27.48,6.155-28.36,35.396v45.947h-13.851V387.811z"/>
		</g>
		<g>
			<path fill="#FFFFFF" d="M960.238,425.845c-11.652,12.311-26.162,16.049-39.133,16.049c-31.658,0-51.444-21.325-51.444-47.487
				c0-26.602,20.886-48.146,49.246-48.146c23.523,0,45.728,14.729,45.948,47.707h-81.563c0,0.659,0,0.879,0,1.539
				c0,19.786,14.729,34.296,37.813,34.296c10.992,0,21.984-3.518,31.219-12.092L960.238,425.845z M884.83,383.193h65.734
				c-4.177-19.126-18.687-24.842-31.218-24.842C904.396,358.352,890.107,366.046,884.83,383.193z"/>
		</g>
		<g>
			<path fill="#FFFFFF" d="M1078.076,439.914h-13.85v-18.247c-8.135,13.851-21.105,20.227-36.495,20.227
				c-27.701,0-45.729-21.545-45.729-47.927s17.808-47.927,45.729-47.927c15.169,0,28.36,6.375,36.495,20.226v-59.578h13.85V439.914z
				 M1029.051,429.582c19.566,0,35.396-14.07,35.396-35.615c0-21.546-15.829-35.616-35.396-35.616
				c-20.886,0-33.197,15.829-33.197,35.616C996.073,413.313,1008.385,429.582,1029.051,429.582z"/>
		</g>
		<g>
			<path fill="#FFFFFF" d="M1115.891,307.127c5.716,0,10.112,4.396,10.112,10.333c0,5.936-4.396,10.112-10.112,10.112
				c-5.717,0-9.894-4.177-9.894-10.112C1105.997,311.743,1110.174,307.127,1115.891,307.127z M1122.925,439.914h-13.85v-91.676
				h13.85V439.914z"/>
		</g>
		<g>
			<path fill="#FFFFFF" d="M1197.233,369.124c-2.638-7.695-8.354-10.772-14.729-10.772c-10.772,0-16.709,7.255-16.709,14.069
				c0,7.476,6.376,11.213,12.752,13.191l13.63,4.396c16.269,5.276,21.985,14.95,21.985,25.063c0,16.709-15.17,26.602-32.098,26.602
				c-15.609,0-29.68-7.694-33.856-21.984l12.091-3.078c2.858,7.695,11.433,12.972,21.766,12.972
				c10.332,0,18.467-5.717,18.467-14.511c0-7.255-5.057-10.772-12.971-13.41l-12.971-4.177
				c-12.972-4.178-22.205-11.652-22.205-24.403c0-14.51,11.212-26.821,29.68-26.821c11.871,0,24.402,5.936,27.92,19.786
				L1197.233,369.124z"/>
		</g>
		<g>
			<path fill="#FFFFFF" d="M1300.342,348.238h16.049l-56.501,132.788h-14.069l17.587-42.431l-39.572-90.357h15.829l30.998,74.748
				L1300.342,348.238z"/>
		</g>
		<g>
			<path fill="#FFFFFF" d="M1373.111,369.124c-2.638-7.695-8.354-10.772-14.729-10.772c-10.772,0-16.708,7.255-16.708,14.069
				c0,7.476,6.375,11.213,12.751,13.191l13.63,4.396c16.27,5.276,21.985,14.95,21.985,25.063c0,16.709-15.17,26.602-32.098,26.602
				c-15.609,0-29.68-7.694-33.856-21.984l12.092-3.078c2.857,7.695,11.432,12.972,21.765,12.972s18.467-5.717,18.467-14.511
				c0-7.255-5.057-10.772-12.971-13.41l-12.972-4.177c-12.971-4.178-22.204-11.652-22.204-24.403
				c0-14.51,11.212-26.821,29.68-26.821c11.872,0,24.403,5.936,27.921,19.786L1373.111,369.124z"/>
		</g>
	</g>
	<path fill="#FFFFFF" d="M1039.163,122.675c-13.63-8.794-29.679-14.07-47.047-14.07s-33.637,5.276-47.048,14.07
		c-23.523,15.389-39.133,41.991-39.133,72.11c0,32.098,17.588,60.237,43.75,74.968c12.531,7.035,27.041,11.212,42.431,11.212
		s29.899-4.177,42.431-11.212c26.161-14.73,43.749-42.87,43.749-74.968C1078.296,164.445,1062.688,138.064,1039.163,122.675z
		 M1011.683,223.145v8.794v0.88h-14.29v14.29H986.62v-14.29h-14.29v-0.88v-8.794v-0.879h14.29v-14.29h10.772v14.29h14.29V223.145z
		 M1049.716,223.145l-57.819-57.819l-57.82,57.819h-12.531h-2.638l65.294-65.294c1.979-1.979,4.837-3.078,7.476-3.078
		c2.638,0,5.496,1.099,7.475,3.078l22.864,22.864v-15.17h0.879h8.794h0.88v25.723l31.877,31.877h-2.638H1049.716z"/>
</g>
</svg>
