<?xml version="1.0" encoding="utf-8"?>
<!-- Generator: Adobe Illustrator 15.1.0, SVG Export Plug-In . SVG Version: 6.00 Build 0)  -->
<!DOCTYPE svg PUBLIC "-//W3C//DTD SVG 1.1//EN" "http://www.w3.org/Graphics/SVG/1.1/DTD/svg11.dtd">
<svg version="1.1" id="Layer_1" xmlns="http://www.w3.org/2000/svg" xmlns:xlink="http://www.w3.org/1999/xlink" x="0px" y="0px"
	 width="489.025px" height="425.035px" viewBox="0 0 489.025 425.035" enable-background="new 0 0 489.025 425.035"
	 xml:space="preserve">
<g>
	<path fill="#FFFFFF" d="M478.177,187.858L348.468,15.331h-0.016C342.421,6.118,332.052,0,320.175,0
		c-18.633,0-33.758,15.108-33.758,33.757c0,0,0.096,60.152,0.096,73.544c0,13.387-14.174,32.714-32.369,32.714
		c-18.186,0-212.712,0-212.712,0C18.546,140.014,0,158.56,0,181.445v62.13c0,22.902,18.546,41.432,41.431,41.432
		c0,0,194.503,0,213.104,0c18.586,0,32.228,15.548,32.228,33.591s0.079,68.485,0.079,68.485c-0.149,1.39-0.416,2.753-0.416,4.188
		c0,1.477,0.267,2.873,0.447,4.301v0.158h0.008c2.218,16.512,16.201,29.307,33.304,29.307c10.395,0,19.565-4.784,25.766-12.147
		l0.135,0.033l1.725-2.3c0.158-0.207,0.336-0.405,0.486-0.637l129.875-172.799c6.629-6.174,10.857-14.908,10.857-24.688
		C489.016,202.742,484.805,194.016,478.177,187.858z"/>
</g>
</svg>
