<?xml version="1.0" encoding="utf-8"?>
<!-- Generator: Adobe Illustrator 15.1.0, SVG Export Plug-In . SVG Version: 6.00 Build 0)  -->
<!DOCTYPE svg PUBLIC "-//W3C//DTD SVG 1.1//EN" "http://www.w3.org/Graphics/SVG/1.1/DTD/svg11.dtd">
<svg version="1.1" id="Layer_1" xmlns="http://www.w3.org/2000/svg" xmlns:xlink="http://www.w3.org/1999/xlink" x="0px" y="0px"
	 width="2048px" height="2048px" viewBox="0 0 2048 2048" enable-background="new 0 0 2048 2048" xml:space="preserve">
<path fill="#333333" d="M1353,1207l-146,146c-6.667,6.666-14.333,10-23,10s-16.333-3.334-23-10l-137-137l-137,137
	c-6.667,6.666-14.333,10-23,10s-16.333-3.334-23-10l-146-146c-6.667-6.668-10-14.334-10-23c0-8.668,3.333-16.334,10-23l137-137
	L695,887c-6.667-6.668-10-14.334-10-23c0-8.668,3.333-16.334,10-23l146-146c6.667-6.668,14.333-10,23-10s16.333,3.332,23,10l137,137
	l137-137c6.667-6.668,14.333-10,23-10s16.333,3.332,23,10l146,146c6.667,6.666,10,14.332,10,23c0,8.666-3.333,16.332-10,23l-137,137
	l137,137c6.667,6.666,10,14.332,10,23C1363,1192.666,1359.667,1200.332,1353,1207z M1568,1024c0-98.668-24.333-189.668-73-273
	c-48.667-83.334-114.667-149.334-198-198c-83.333-48.668-174.333-73-273-73s-189.667,24.332-273,73
	c-83.333,48.666-149.333,114.666-198,198c-48.667,83.332-73,174.332-73,273c0,98.666,24.333,189.666,73,273
	c48.667,83.332,114.667,149.332,198,198c83.333,48.666,174.333,73,273,73s189.667-24.334,273-73
	c83.333-48.668,149.333-114.668,198-198C1543.667,1213.666,1568,1122.666,1568,1024z M1792,1024c0,139.332-34.333,267.832-103,385.5
	c-68.667,117.666-161.833,210.832-279.5,279.5c-117.667,68.666-246.167,103-385.5,103s-267.833-34.334-385.5-103
	c-117.667-68.668-210.833-161.834-279.5-279.5c-68.667-117.668-103-246.168-103-385.5c0-139.334,34.333-267.834,103-385.5
	C427.667,520.832,520.833,427.665,638.5,359c117.667-68.667,246.167-103,385.5-103s267.833,34.333,385.5,103
	c117.667,68.666,210.833,161.832,279.5,279.5C1757.667,756.166,1792,884.666,1792,1024z"/>
</svg>
