<?xml version="1.0" encoding="utf-8"?>
<!-- Generator: Adobe Illustrator 15.1.0, SVG Export Plug-In . SVG Version: 6.00 Build 0)  -->
<!DOCTYPE svg PUBLIC "-//W3C//DTD SVG 1.1//EN" "http://www.w3.org/Graphics/SVG/1.1/DTD/svg11.dtd">
<svg version="1.1" id="Layer_1" xmlns="http://www.w3.org/2000/svg" xmlns:xlink="http://www.w3.org/1999/xlink" x="0px" y="0px"
	 width="512px" height="512px" viewBox="0 0 512 512" enable-background="new 0 0 512 512" xml:space="preserve">
<title>compass</title>
<path fill="#FFFFFF" d="M260.551,509.724c-138.809,0-252.587-113.778-252.587-252.587S121.742,4.55,260.551,4.55
	s252.587,113.778,252.587,252.587S400.498,509.724,260.551,509.724z M260.551,63.715c-106.951,0-193.422,86.471-193.422,193.422
	S153.6,450.559,260.551,450.559c106.951,0,193.422-86.471,193.422-193.422S367.502,63.715,260.551,63.715L260.551,63.715z"/>
<path fill="#FFFFFF" d="M376.604,136.534l-110.364,59.165c-18.204-2.275-35.271,3.412-48.924,17.065
	c-12.516,12.516-18.204,30.72-17.066,47.786l-60.302,112.64l112.64-60.302c17.067,2.275,35.271-4.551,47.786-17.067
	c12.516-12.516,19.342-29.582,17.066-48.924L376.604,136.534z M259.413,278.755c-13.654,0-25.031-11.378-25.031-25.031
	s11.378-25.031,25.031-25.031s25.03,11.378,25.03,25.031S273.066,278.755,259.413,278.755z"/>
</svg>
