<?xml version="1.0" encoding="utf-8"?>
<!-- Generator: Adobe Illustrator 15.1.0, SVG Export Plug-In . SVG Version: 6.00 Build 0)  -->
<!DOCTYPE svg PUBLIC "-//W3C//DTD SVG 1.1//EN" "http://www.w3.org/Graphics/SVG/1.1/DTD/svg11.dtd">
<svg version="1.1" id="Layer_1" xmlns="http://www.w3.org/2000/svg" xmlns:xlink="http://www.w3.org/1999/xlink" x="0px" y="0px"
	 width="500px" height="500px" viewBox="0 0 500 500" enable-background="new 0 0 500 500" xml:space="preserve">
<g>
	<path fill="#FFFFFF" d="M123.675,147.678H23.768c-10.611,0-19.213,8.602-19.213,19.213v308.012
		c0,10.611,8.602,19.213,19.213,19.213h99.907c10.611,0,19.213-8.602,19.213-19.213V166.891
		C142.888,156.279,134.286,147.678,123.675,147.678z"/>
	<path fill="#FFFFFF" d="M299.474,8.433h-99.908c-10.611,0-19.213,8.602-19.213,19.213v447.257c0,10.611,8.602,19.213,19.213,19.213
		h99.908c10.611,0,19.213-8.602,19.213-19.213V27.646C318.687,17.034,310.085,8.433,299.474,8.433z"/>
	<path fill="#FFFFFF" d="M476.232,270.805h-99.907c-10.611,0-19.213,8.603-19.213,19.214v184.884
		c0,10.611,8.602,19.213,19.213,19.213h99.907c10.611,0,19.213-8.602,19.213-19.213V290.019
		C495.445,279.407,486.844,270.805,476.232,270.805z"/>
</g>
</svg>
