<?xml version="1.0" encoding="utf-8"?>
<!-- Generator: Adobe Illustrator 15.1.0, SVG Export Plug-In . SVG Version: 6.00 Build 0)  -->
<!DOCTYPE svg PUBLIC "-//W3C//DTD SVG 1.1//EN" "http://www.w3.org/Graphics/SVG/1.1/DTD/svg11.dtd">
<svg version="1.1" id="Layer_1" xmlns="http://www.w3.org/2000/svg" xmlns:xlink="http://www.w3.org/1999/xlink" x="0px" y="0px"
	 width="512px" height="512px" viewBox="0 0 512 512" enable-background="new 0 0 512 512" xml:space="preserve">
<title>globe</title>
<path fill="#FFFFFF" d="M291.271,174.08c-1.139,0-9.103,1.138-9.103,2.274C286.721,184.319,292.409,175.217,291.271,174.08z"/>
<path fill="#FFFFFF" d="M235.52,128.569c2.275,2.275,17.066-4.551,14.791-3.413c4.551-2.274,1.138-2.274-2.275-4.551
	c-1.138-4.551-1.138-11.378-4.551-14.791c0-1.138,2.275-1.138,2.275-2.274c-4.551-5.689-7.964,7.965-7.964,7.965
	c-1.138,1.138,2.275-1.138,2.275-1.138c1.138,2.274-1.138,3.412-1.138,4.551c2.275,3.413,0,5.688,0,6.826
	c0,2.274-2.275,1.138-3.413,2.274s5.689,1.138,5.689,1.138C241.209,126.294,233.245,127.431,235.52,128.569z"/>
<path fill="#FFFFFF" d="M227.555,124.018C226.417,124.018,226.417,124.018,227.555,124.018c2.275-1.138,5.689-1.138,6.827-4.551
	c0-3.413,1.138-1.138,1.138-2.275c1.138-1.138-1.138-3.413-2.275-3.413c-1.137,0-2.275,1.139-3.413,2.275h-1.138
	c0,0-1.138,1.138-1.138,2.275v1.138c0,1.138-1.138,2.275-2.275,2.275C223.006,124.017,225.281,125.155,227.555,124.018
	L227.555,124.018z"/>
<path fill="#FFFFFF" d="M258.275,4.551C119.467,4.551,5.689,118.329,5.689,257.138s113.778,252.587,252.586,252.587
	c138.81,0,252.588-113.778,252.588-252.587C510.863,117.192,398.223,4.551,258.275,4.551z M358.4,150.186
	c9.102,3.413,1.138,9.103-4.551,7.964c-3.414-1.138-18.205-5.688-18.205,0c0,3.413-13.653,0-11.377-3.413
	c1.137-2.274,1.137-7.964,3.412-11.378c4.551-5.688,7.965-2.274,7.965,1.139c0,7.964,7.963-7.964,12.515-7.964
	c2.276,0-2.276,3.412-2.276,3.412c1.139,4.552,5.689,7.965,12.516,10.24H358.4z M113.778,350.435
	c13.653-10.24,7.965-22.755-1.138-32.995c-3.413-4.551-23.894-25.03-26.169-21.618c1.138-5.688-3.413-19.342-6.826-25.03
	c-4.551-7.964-10.24-12.516-13.653-20.48c2.275-76.23,50.062-142.222,117.191-171.804c-1.138,3.413-1.138,6.826,0,6.826
	c3.413,0,27.306-18.204,37.547-13.653c6.827,2.275,18.204-2.275,26.169-6.826c3.413,0,7.964-1.138,11.378-1.138
	c23.894,0,46.648,4.551,68.267,12.515c-1.138,3.413-3.413,5.689-4.551,6.826c-2.276,3.413-10.24,2.275-9.103-2.275
	c1.139-4.55,9.103-5.688-2.275-6.825c-11.379-1.139-14.791-9.103-25.031,1.138c-3.413,2.275-5.689,6.826-7.964,11.378
	c-3.413,5.689-10.24,4.551-13.654,10.24c-3.413,4.551,2.276,12.516,7.964,9.102c1.139-1.138,19.342,15.93,17.067,2.275
	c-1.138-9.103,4.551-15.929,4.551-22.755c0-4.552,6.827-1.139,5.688,1.138c-2.275,3.413-4.551,13.653,1.139,13.653
	c2.275,0,10.24-5.689,11.378-1.139c-1.138-4.551-9.103,9.103-7.964,9.103c-2.275,1.138-5.689,0-3.413,5.688
	c2.276,5.689-10.239,4.552-12.515,5.689c-1.139,0-10.24-2.275-10.24-1.138c-3.413-2.275,1.138-9.103-2.275-10.24
	c-2.277,4.551-1.139,12.516-7.965,12.516c-4.551,0-12.516,5.689-14.791,9.103c-2.275,2.274-14.791,7.964-17.066,7.964
	c7.964,1.138,6.827,6.827,6.827,11.378c-1.138,11.378-25.031,1.138-23.893,4.551s-2.275,14.791-3.413,18.204
	c-1.138,3.413,10.24,5.689,9.102,6.827c0,0,14.791-4.551,15.929-6.827c1.138-1.138,1.138-5.689,3.413-6.827
	c2.275-2.274,5.689-3.413,9.102-4.551c1.138-2.275,2.275-4.551,3.414-6.827c1.138,0,15.929-2.274,17.067-2.274
	c3.412,2.274,10.24,9.102,13.654,12.516c1.137,1.138,5.688,3.413,5.688,4.551c2.276,2.275-1.138,3.413,0,5.689
	c2.276,4.551,3.413-10.24,2.276-6.827c0-4.551,3.412,2.274,4.551,1.138c2.275-1.138-12.516-10.24-17.067-15.929
	c-4.551-9.103,13.654,4.551,15.929,5.688c2.275,1.139,6.828,15.93,13.654,12.517c4.551-2.275,0-3.413,2.276-5.689
	c4.551-3.413,7.964,0,11.378-2.274c-9.102,6.826,6.826,14.791,4.551,13.653c4.551,2.275,6.827-1.138,9.102,0
	c1.139,0,17.067,0,13.654-2.274c3.413,2.274,2.276,18.204-1.138,21.618c-4.552,4.551-29.582,2.274-35.271-1.139
	c-9.103-6.827-7.965,6.827-11.379,9.103c-9.102,3.413-21.617-11.378-30.72-12.517c4.551,1.139,0-11.378,0-12.516
	c-3.413-4.551-26.169,0-31.858,1.138c-11.378,1.139-22.756,1.139-30.72,7.964c-5.689,4.552-5.689,12.517-12.516,15.93
	c-3.413,2.274-7.964,1.138-11.378,4.551c-5.689,5.688-12.516,13.654-15.929,21.618c-1.138,3.413,2.275,10.239,1.138,14.791
	c-7.964,23.894,2.275,58.025,31.858,61.439c6.827,1.138,14.791,4.551,21.618,2.276c5.689-2.276,11.378-5.689,17.066-5.689
	c9.102-1.138,4.551,12.515,17.066,9.103c5.689-1.139,7.965,3.412,7.965,7.964c-2.276,9.102-5.689,13.653,2.275,20.479
	c5.689,4.551,10.24,10.24,11.378,18.204c1.138,4.551,4.552,11.378,0,13.654c-3.413,2.275-5.688,11.378-5.688,14.791
	c1.138,3.413,7.963,11.378,10.24,13.653c3.412,4.552,1.137,10.24,3.412,14.791c2.276,5.689,5.689,9.103,6.827,14.791
	c2.276,7.965,21.618,0,26.169,0c15.93,0,22.755-21.617,34.135-28.444c5.688-3.413,4.551-13.654,11.377-19.342
	c6.827-4.552,13.654-7.965,14.791-17.067c0-7.964-5.688-23.894-2.275-30.72c4.551-7.964,50.062-71.68,36.408-75.094
	c-2.275,0-14.791,9.102-19.342,9.102c-3.412,0-18.203-14.791-21.617-19.342c-6.828-6.827-10.24-19.342-15.93-27.306
	c-3.412-4.552-13.654-14.791-13.654-20.48c0,1.138,4.552,7.964,6.828,6.827c0-1.138,1.137-2.275,0-3.413
	c0,2.275,11.377,15.929,14.791,17.066c5.688,3.412,5.688,12.516,11.377,17.065c11.379,7.964,7.965,31.858,23.895,18.204
	c10.24-10.24,31.857-28.445,26.169-45.511c-3.413-9.103-17.067-2.275-20.479,1.138c-4.552-2.274-20.48-20.479-14.791-22.756
	c3.412-1.138,10.239,7.964,12.515,9.102c5.688,3.413,10.239-4.551,12.515,0c2.275,4.552,11.378,0,20.48-2.274
	c6.827,19.342,10.239,39.822,10.239,60.302c0,106.951-86.471,193.422-193.421,193.422c-59.166,0-112.641-27.307-149.05-69.404
	c2.275,0,4.551-1.138,4.551-1.138c7.965-5.689-3.413-26.169,1.138-29.582H113.778z"/>
</svg>
