<?xml version="1.0" encoding="utf-8"?>
<!-- Generator: Adobe Illustrator 15.1.0, SVG Export Plug-In . SVG Version: 6.00 Build 0)  -->
<!DOCTYPE svg PUBLIC "-//W3C//DTD SVG 1.1//EN" "http://www.w3.org/Graphics/SVG/1.1/DTD/svg11.dtd">
<svg version="1.1" id="Layer_1" xmlns="http://www.w3.org/2000/svg" xmlns:xlink="http://www.w3.org/1999/xlink" x="0px" y="0px"
	 width="697px" height="500px" viewBox="0 0 697 500" enable-background="new 0 0 697 500" xml:space="preserve">
<title>glossary-fill</title>
<path fill="#333333" d="M205.56,152.206c-0.625-1.828-1.507-4.697-2.613-8.609c-1.106-3.928-1.892-6.797-2.309-8.609
	c-1.138,5.611-2.822,11.703-5.018,18.373l-8.336,26.054h26.901L205.56,152.206L205.56,152.206z M589.778,91.141V8.529
	c0,0-117.192,0-146.771,0c-57.089,0-83.221,40.689-90.979,82.58h-5.146c-7.728-41.891-33.891-82.58-90.98-82.58
	c-29.627,0-146.771,0-146.771,0v82.58H9.525v404.114h564.224c100.583,0,115.604-63.694,115.604-101.658V91.141H589.78H589.778z
	 M259.763,121.313h20.489c8.064,0,14.589,6.525,14.589,14.589c0,8.064-6.525,14.605-14.589,14.605h-20.489V121.313z
	 M259.763,192.959h20.489c8.064,0,14.589,6.509,14.589,14.571c0,8.08-6.525,14.605-14.589,14.605h-20.489V192.959z M294.841,278.424
	c0,8.08-6.525,14.604-14.589,14.604H172.727c-8.064,0-14.589-6.523-14.589-14.604c0-8.048,6.525-14.589,14.589-14.589h107.525
	C288.316,263.851,294.841,270.376,294.841,278.424z M192.494,120.896h16.417l34.548,100.327h-16.048l-9.202-27.735h-35.318
	l-9.042,27.735h-15.903L192.494,120.896L192.494,120.896z M326.584,449.468H55.262V136.88h53.851v256.685h217.456L326.584,449.468
	L326.584,449.468z M419.2,119.565h107.523c8.08,0,14.591,6.541,14.591,14.589c0,8.064-6.511,14.591-14.591,14.591H419.2
	c-8.048,0-14.589-6.525-14.589-14.591C404.611,126.09,411.152,119.565,419.2,119.565L419.2,119.565z M419.2,192.798h107.523
	c8.08,0,14.591,6.541,14.591,14.589c0,8.064-6.511,14.605-14.591,14.605H419.2c-8.048,0-14.589-6.541-14.589-14.605
	C404.611,199.339,411.152,192.798,419.2,192.798L419.2,192.798z M419.2,263.852h107.523c8.08,0,14.591,6.541,14.591,14.589
	c0,8.08-6.511,14.621-14.591,14.621H419.2c-8.048,0-14.589-6.541-14.589-14.621C404.611,270.377,411.152,263.852,419.2,263.852
	L419.2,263.852z M643.613,393.565c0,29.05-8.465,55.903-69.853,55.903H372.338v-55.903h179.043
	c21.178,0,38.412-17.202,38.412-38.412V136.88h53.803v256.685H643.613L643.613,393.565z"/>
</svg>
