<?xml version="1.0" encoding="utf-8"?>
<!-- Generator: Adobe Illustrator 15.1.0, SVG Export Plug-In . SVG Version: 6.00 Build 0)  -->
<!DOCTYPE svg PUBLIC "-//W3C//DTD SVG 1.1//EN" "http://www.w3.org/Graphics/SVG/1.1/DTD/svg11.dtd">
<svg version="1.1" id="Layer_1" xmlns="http://www.w3.org/2000/svg" xmlns:xlink="http://www.w3.org/1999/xlink" x="0px" y="0px"
	 width="512px" height="512px" viewBox="0 0 512 512" enable-background="new 0 0 512 512" xml:space="preserve">
<title>information</title>
<path fill="#FFFFFF" d="M256,2.25C115.858,2.25,2.25,115.858,2.25,256c0,140.142,113.608,253.75,253.75,253.75
	c140.143,0,253.75-113.607,253.75-253.75C509.75,115.857,396.143,2.25,256,2.25z M255.738,56.196
	c28.837,0,52.213,23.377,52.213,52.215c0,28.837-23.376,52.213-52.213,52.213c-28.837,0-52.213-23.376-52.213-52.213
	C203.525,79.573,226.901,56.196,255.738,56.196z M321.204,421.74c0,18.811-15.245,34.063-34.045,34.063v-0.002
	c-18.8,0-34.053-15.252-34.053-34.055V274.09c0-5.404-1.067-7.602-1.325-7.859c-5.146-4.951-28.817-4.035-36.577-3.75
	c-3.876,0.15-7.388,0.275-10.364,0.275c-18.799,0-34.044-15.244-34.044-34.053c0-18.811,15.244-34.044,34.044-34.044
	c2.231,0,4.845-0.115,7.752-0.225c22.604-0.853,60.372-2.312,86.408,22.738c10.134,9.751,22.204,27.538,22.204,56.917V421.74z"/>
</svg>
