<?xml version="1.0" encoding="utf-8"?>
<!-- Generator: Adobe Illustrator 15.1.0, SVG Export Plug-In . SVG Version: 6.00 Build 0)  -->
<!DOCTYPE svg PUBLIC "-//W3C//DTD SVG 1.1//EN" "http://www.w3.org/Graphics/SVG/1.1/DTD/svg11.dtd">
<svg version="1.1" id="Layer_1" xmlns="http://www.w3.org/2000/svg" xmlns:xlink="http://www.w3.org/1999/xlink" x="0px" y="0px"
	 width="512px" height="512px" viewBox="0 0 512 512" enable-background="new 0 0 512 512" xml:space="preserve">
<title>settings</title>
<path fill="#FFFFFF" d="M101.262,153.6L101.262,153.6c-20.48,0-37.547-17.064-37.547-37.547V83.058
	c0-20.479,17.066-37.547,37.547-37.547l0,0c20.48,0,37.547,17.066,37.547,37.547v32.995
	C138.809,136.533,121.742,153.6,101.262,153.6z"/>
<path fill="#FFFFFF" d="M418.702,308.338L418.702,308.338c-20.479,0-37.546-17.067-37.546-37.546v-32.995
	c0-20.48,17.066-37.547,37.546-37.547l0,0c20.479,0,37.546,17.064,37.546,37.547v32.995
	C456.248,291.272,439.181,308.338,418.702,308.338z"/>
<path fill="#FFFFFF" d="M301.511,469.902L301.511,469.902c-20.479,0-37.546-17.065-37.546-37.546v-32.995
	c0-20.479,17.067-37.546,37.546-37.546l0,0c20.48,0,37.546,17.067,37.546,37.546v32.995
	C339.057,452.836,321.99,469.902,301.511,469.902z"/>
<path fill="#FFFFFF" d="M493.796,84.195H153.601v34.135h339.058c10.24,0,18.204-7.967,18.204-17.067S502.899,84.194,493.796,84.195
	L493.796,84.195z"/>
<path fill="#FFFFFF" d="M46.649,84.195H19.343c-9.102,0-17.067,7.967-17.067,17.067s7.965,17.067,17.067,17.067h27.306V84.195
	L46.649,84.195z"/>
<path fill="#FFFFFF" d="M364.089,240.071H19.342c-9.102,0-17.067,7.966-17.067,17.066s7.965,17.067,17.067,17.067h344.747V240.071
	L364.089,240.071z"/>
<path fill="#FFFFFF" d="M494.933,240.071h-19.342v34.135h18.204c10.24,0,18.204-7.964,18.204-17.067
	S504.035,240.071,494.933,240.071L494.933,240.071z"/>
<path fill="#FFFFFF" d="M245.76,397.084H19.342c-9.102,0-17.067,7.964-17.067,17.065c0,9.104,7.965,17.067,17.067,17.067H245.76
	V397.084L245.76,397.084z"/>
<path fill="#FFFFFF" d="M493.796,397.084H358.4v34.133h134.258c10.24,0,18.204-7.964,18.204-17.067
	C510.862,405.047,502.898,397.082,493.796,397.084L493.796,397.084z"/>
</svg>
