<?xml version="1.0" encoding="utf-8"?>
<!-- Generator: Adobe Illustrator 15.1.0, SVG Export Plug-In . SVG Version: 6.00 Build 0)  -->
<!DOCTYPE svg PUBLIC "-//W3C//DTD SVG 1.1//EN" "http://www.w3.org/Graphics/SVG/1.1/DTD/svg11.dtd">
<svg version="1.1" id="Layer_1" xmlns="http://www.w3.org/2000/svg" xmlns:xlink="http://www.w3.org/1999/xlink" x="0px" y="0px"
	 width="513px" height="512px" viewBox="0 0 513 512" enable-background="new 0 0 513 512" xml:space="preserve">
<path fill="#002D5A" d="M138.067,190.994c9.204-9.204,19.56-16.108,29.915-21.861c59.829-32.215,135.767-14.958,173.735,42.571
	l-46.021,46.021c-12.656-29.915-46.023-47.173-78.238-40.269c-12.656,2.301-24.162,9.204-33.367,18.408L95.496,324.46
	c-26.463,26.463-26.463,70.185,0,97.798c26.463,26.463,70.184,26.463,97.798,0l27.613-27.613
	c25.313,10.355,51.775,13.807,77.088,11.505l-59.829,59.829c-52.926,51.776-136.917,51.776-187.542,0
	c-51.776-51.776-51.776-134.615,0-186.391L138.067,190.994L138.067,190.994z M278.436,50.624l-59.829,59.829
	c26.463-2.302,52.926,2.301,77.086,11.505l27.613-27.614c26.463-26.463,70.186-26.463,97.799,0
	c26.463,26.463,26.463,70.184,0,97.798l-88.594,88.593c-26.464,26.463-70.186,26.463-97.799,0
	c-5.753-5.753-11.506-13.807-14.958-21.86l-46.023,46.021c4.602,6.904,10.355,13.806,16.108,20.71
	c17.258,17.259,37.969,28.764,62.13,34.517c32.215,8.055,65.582,3.452,94.346-12.655c10.354-5.753,20.709-13.808,29.914-21.861
	l88.594-88.594c51.774-51.775,51.774-134.615,0-186.391c-50.625-51.776-134.615-51.776-186.391,0L278.436,50.624z"/>
</svg>
