<?xml version="1.0" encoding="utf-8"?>
<!-- Generator: Adobe Illustrator 15.1.0, SVG Export Plug-In . SVG Version: 6.00 Build 0)  -->
<!DOCTYPE svg PUBLIC "-//W3C//DTD SVG 1.1//EN" "http://www.w3.org/Graphics/SVG/1.1/DTD/svg11.dtd">
<svg version="1.1" id="Layer_1" xmlns="http://www.w3.org/2000/svg" xmlns:xlink="http://www.w3.org/1999/xlink" x="0px" y="0px"
	 width="371px" height="512px" viewBox="0 0 371 512" enable-background="new 0 0 371 512" xml:space="preserve">
<title>lock-01</title>
<path fill="#7B7A7A" d="M171.048,3.047c-10.057,0.762-20.114,2.895-30.476,6.324c-8.99,2.972-10.286,3.505-14.857,5.942
	c-0.609,0.381-3.2,1.601-5.715,2.819c-2.514,1.295-6.4,3.505-8.686,5.029c-2.21,1.523-4.191,2.742-4.343,2.742
	c-0.99,0-14.4,10.743-19.428,15.543C76.571,52.038,65.448,66.21,59.505,77.333c-0.914,1.676-1.981,3.581-2.362,4.19
	c-0.762,1.371-5.105,10.819-6.476,14.096c-3.352,8.075-6.019,17.295-9.219,32c-1.143,5.334-1.371,12.114-1.676,53.715
	c-0.153,31.085-0.533,47.924-1.066,48.534c-0.609,0.762-5.486,0.989-19.733,0.989H0.002V358.63
	c0,138.818-0.229,130.438,4.114,137.219c3.581,5.562,10.743,11.2,17.219,13.486c4.114,1.523,6.781,1.523,163.048,1.523
	c156.419,0,158.934,0,163.049-1.523c4.571-1.601,10.438-5.639,14.248-9.601c2.514-2.743,6.323-9.372,6.323-11.048
	c0-0.61,0.534-1.067,1.144-1.067c0.99,0,1.143-14.78,1.143-128.381V230.858h-19.732c-14.857,0-19.886-0.228-20.496-0.989
	c-0.533-0.609-0.914-17.296-1.066-48.534c-0.305-41.676-0.534-48.381-1.676-53.715c-3.276-14.934-6.02-24.534-9.219-32
	c-2.135-4.876-5.867-13.028-6.477-14.096c-0.381-0.608-1.447-2.514-2.361-4.19c-5.943-11.124-17.068-25.295-28.039-35.887
	c-5.029-4.8-18.438-15.543-19.428-15.543c-0.152,0-2.134-1.219-4.343-2.742c-2.286-1.524-6.172-3.733-8.685-5.029
	c-2.515-1.219-5.105-2.438-5.715-2.819c-7.314-3.962-21.943-8.609-34.666-11.047c-7.391-1.372-26.895-2.057-37.333-1.219H171.048z
	 M199.466,52.191c6.705,1.524,12.952,3.353,15.772,4.495c5.41,2.285,13.181,6.324,15.695,8.229c1.523,1.219,3.047,2.133,3.352,2.133
	c2.742,0,23.391,21.409,25.753,26.666c0.305,0.608,1.219,2.133,2.058,3.428c1.446,2.362,5.865,11.124,7.543,15.238
	c2.438,5.79,5.334,16.229,7.01,24.762c0.99,5.181,1.98,88.381,1.066,91.962l-0.381,1.752H91.429l-0.381-1.752
	c-0.305-0.99-0.305-20.952-0.153-44.419c0.457-47.466,0.762-50.895,6.095-66.666c2.133-6.248,6.933-16.608,9.676-20.876
	c0.838-1.295,1.752-2.818,2.057-3.428c2.362-5.334,23.01-26.666,25.752-26.666c0.305,0,1.828-0.915,3.352-2.133
	c2.514-1.905,10.286-5.943,15.695-8.229c2.667-1.065,8.762-2.895,15.238-4.419c6.4-1.523,24.153-1.523,30.705-0.076L199.466,52.191z
	 M196.113,332.037c5.029,2.743,10.438,8.99,12.191,14.096c2.057,6.019,1.447,14.019-1.371,19.581
	c-2.361,4.724-3.58,6.095-9.143,9.98l-3.887,2.666l-0.381,17.524l-0.381,17.446h-17.523l-0.381-17.446l-0.381-17.524l-3.886-2.666
	c-5.638-4.038-6.781-5.334-9.371-10.514c-1.981-3.962-2.362-5.563-2.362-10.286c0-3.581,0.534-6.857,1.371-9.295
	c2.819-7.315,11.047-14.553,17.981-15.772C184.152,328.838,192,329.827,196.113,332.037L196.113,332.037z"/>
</svg>
