<?xml version="1.0" encoding="utf-8"?>
<!-- Generator: Adobe Illustrator 15.1.0, SVG Export Plug-In . SVG Version: 6.00 Build 0)  -->
<!DOCTYPE svg PUBLIC "-//W3C//DTD SVG 1.1//EN" "http://www.w3.org/Graphics/SVG/1.1/DTD/svg11.dtd">
<svg version="1.1" id="Layer_1" xmlns="http://www.w3.org/2000/svg" xmlns:xlink="http://www.w3.org/1999/xlink" x="0px" y="0px"
	 width="512px" height="512px" viewBox="0 0 512 512" enable-background="new 0 0 512 512" xml:space="preserve">
<title>market-update</title>
<path fill="#FFFFFF" d="M477.334,442.664H103.019c-18.624-0.853-33.6-16.488-33.6-34.752c-0.043,0-0.064,0.022-0.106,0.022V34.667
	C69.335,15.595,53.74,0.001,34.668,0.001c-19.072,0-34.666,15.595-34.666,34.666v441.344c0,9.877,4.224,18.752,10.922,25.088
	C17.238,507.777,26.134,512,36.012,512h441.344c19.05,0,34.645-15.596,34.645-34.666c0-19.072-15.594-34.666-34.666-34.666
	L477.334,442.664z"/>
<path fill="#FFFFFF" d="M174.698,157.867L174.698,157.867c-9.536,9.534-25.152,9.534-34.688,0l-40.384-40.386
	c-9.536-9.536-9.536-25.15,0-34.688l0,0c9.536-9.536,25.152-9.536,34.688,0l40.384,40.384
	C184.256,132.715,184.256,148.331,174.698,157.867z"/>
<path fill="#FFFFFF" d="M483.904,127.957l0.81-84.715c0.106-3.138-0.979-6.251-3.37-8.642c-2.368-2.368-5.481-3.477-8.598-3.349
	l-84.564,0.874c-3.713-0.77-7.681,0.256-10.604,3.157c-4.521,4.502-4.544,11.84,0,16.384c0,0,14.613,14.592,17.877,17.813
	c3.243,3.243,4.48,11.371,0.086,15.787c-0.064,0.064,0.064,0.256,0,0.341L266.346,214.804l-31.616-31.616
	c-0.704-0.704-1.621-0.98-2.389-1.578c-0.022-0.021-0.022-0.042-0.042-0.063c-9.536-9.536-25.152-9.536-34.688,0l-77.674,77.674
	c-9.536,9.536-9.536,25.152,0,34.688c9.536,9.534,25.152,9.534,34.688,0l60.736-60.736l32.042,32.063
	c0.363,0.363,0.853,0.49,1.238,0.832c0.192,0.216,0.256,0.49,0.448,0.685c9.536,9.536,25.152,9.536,34.688,0l146.389-146.391
	c0.171-0.063,0.512,0.129,0.64,0c4.522-4.521,11.563-4.053,15.979,0.32c4.394,4.396,16.64,16.619,16.64,16.619
	c0.277,0.363,0.534,0.768,0.896,1.109c0.341,0.361,0.789,0.617,1.15,0.917l0.043,0.042c4.522,3.456,11.01,3.198,15.19-0.982
	c2.538-2.518,3.604-5.93,3.307-9.216h0.043l-0.128-0.982c-0.021-0.085-0.021-0.147-0.021-0.232L483.904,127.957z"/>
<path fill="#FFFFFF" d="M482.154,306.091c0.768-3.712-0.256-7.682-3.158-10.604c-4.502-4.521-11.84-4.544-16.384,0
	c0,0-14.594,14.613-17.813,17.877c-3.243,3.243-11.37,4.48-15.786,0.086c-0.063-0.063-0.256,0.064-0.341,0l-51.968-51.968
	c-9.536-9.536-25.152-9.536-34.688,0c-9.535,9.536-9.535,25.152,0,34.688l51.904,51.902c0.064,0.171-0.128,0.514,0,0.642
	c4.521,4.521,4.053,11.563-0.32,15.978c-4.394,4.396-16.617,16.64-16.617,16.64c-0.362,0.277-0.769,0.534-1.109,0.896
	c-0.363,0.341-0.618,0.789-0.918,1.152l-0.043,0.043c-3.456,4.502-3.2,11.008,0.98,15.188c2.518,2.538,5.931,3.606,9.215,3.309
	v0.043l0.981-0.128c0.106-0.022,0.192-0.022,0.277-0.022l84.714,0.81c3.136,0.106,6.25-0.979,8.64-3.368
	c2.368-2.368,3.479-5.483,3.351-8.576l-0.918-84.587H482.154z"/>
</svg>
