<?xml version="1.0" encoding="utf-8"?>
<!-- Generator: Adobe Illustrator 15.1.0, SVG Export Plug-In . SVG Version: 6.00 Build 0)  -->
<!DOCTYPE svg PUBLIC "-//W3C//DTD SVG 1.1//EN" "http://www.w3.org/Graphics/SVG/1.1/DTD/svg11.dtd">
<svg version="1.1"
	 id="svg3384" inkscape:output_extension="org.inkscape.output.svg.inkscape" inkscape:version="0.46" sodipodi:version="0.32" sodipodi:docname="003.svg" xmlns:inkscape="http://www.inkscape.org/namespaces/inkscape" xmlns:cc="http://creativecommons.org/ns#" xmlns:svg="http://www.w3.org/2000/svg" xmlns:dc="http://purl.org/dc/elements/1.1/" xmlns:rdf="http://www.w3.org/1999/02/22-rdf-syntax-ns#" xmlns:sodipodi="http://sodipodi.sourceforge.net/DTD/sodipodi-0.dtd"
	 xmlns="http://www.w3.org/2000/svg" xmlns:xlink="http://www.w3.org/1999/xlink" x="0px" y="0px" width="360px" height="45px"
	 viewBox="0 0 360 45" enable-background="new 0 0 360 45" xml:space="preserve">
<defs>
	
	
		<inkscape:perspective  id="perspective3392" inkscape:persp3d-origin="372.04724 : 350.78739 : 1" inkscape:vp_x="0 : 526.18109 : 1" inkscape:vp_z="744.09448 : 526.18109 : 1" inkscape:vp_y="0 : 1000 : 0" sodipodi:type="inkscape:persp3d">
		</inkscape:perspective>
</defs>
<sodipodi:namedview  units="pt" id="base" inkscape:pageshadow="2" inkscape:pageopacity="0.0" inkscape:current-layer="layer1" inkscape:document-units="pt" inkscape:window-y="25" inkscape:window-x="0" inkscape:object-nodes="true" inkscape:window-width="1279" inkscape:snap-bbox="true" inkscape:window-height="949" pagecolor="#ffffff" bordercolor="#666666" inkscape:cy="9.0123567" guidetolerance="10" showgrid="true" borderopacity="1.0" objecttolerance="10" inkscape:zoom="1.4" gridtolerance="5" inkscape:cx="214.16275">
	
		<inkscape:grid  units="pt" type="xygrid" id="grid3704" visible="true" enabled="true" spacingy="9pt" empspacing="8" spacingx="9pt">
		</inkscape:grid>
</sodipodi:namedview>
<g id="layer1" inkscape:groupmode="layer" inkscape:label="Layer 1">
	<path id="path157" fill="#FFFFFF" d="M210.586,5.613c-8.13,0-13.555,6.336-13.555,15.039c0,8.323,4.959,13.555,12.852,13.555
		c5.138,0,9.15-2.534,10.625-4.961l-0.742-0.859c-1.617,2.189-5.104,3.789-8.672,3.789c-6.377,0-10.195-5.336-10.195-13.281
		c0-7.656,3.716-11.953,9.805-11.953c4.705,0,7.42,2.401,8.75,7.109h0.82L220,5.926h-0.781c-0.286,0.57-0.771,0.82-1.484,0.82
		C216.115,6.746,214.63,5.613,210.586,5.613z M9.531,6.277v0.82c1.427,0.288,3.501,0.648,3.359,3.789l-0.859,16.68
		c-0.19,3.565-1.2,4.872-3.672,5.156v0.82h8.75v-0.82c-2.663-0.475-3.423-1.403-3.281-4.922l0.781-16.758l8.75,22.305h1.094
		l8.555-22.305l0.82,17.852c0.144,2.761-0.611,3.591-2.656,3.828v0.82h9.844v-0.82c-2.427-0.237-3.372-1.37-3.516-4.648l-0.82-17.07
		c-0.094-2.474,0.947-3.523,3.086-3.711V6.434h-6.797L24.922,27.41L16.719,6.277H9.531z M58.242,6.277v0.82
		c2.95,0.237,3.125,0.852,3.125,7.891v9.414c0,7.611-0.315,8.083-3.125,8.32v0.82h9.766v-0.82c-3.094-0.425-3.086-0.65-3.086-8.828
		v-1.523l1.289-1.445c3.234,3.995,6.711,8.385,10.469,12.617h6.484h8.984v-0.82c-2.664-0.188-2.734-0.139-2.734-6.133V16.551h-6.367
		v0.82c2.756,0.097,3.086,0.242,3.086,5v4.18c0,5.979-0.062,6.035-2.969,6.172c-1.522-0.143-3.045-0.568-7.852-6.133
		c-1.853-2.189-4.913-5.872-6.719-8.203l5.82-6.484c2.853-3.141,4.405-4.708,7.07-4.805v-0.82h-9.141v0.82
		c1.189,0.237,1.641,0.669,1.641,1.523c0,0.572-0.116,1.575-1.875,3.477l-7.188,7.93V14.91c0-6.989,0.325-7.433,3.086-7.813v-0.82
		H58.242z M87.617,7.371c-1.237,0-2.148,0.953-2.148,2.188c0,1.237,0.911,2.188,2.148,2.188s2.188-0.95,2.188-2.188
		C89.805,8.324,88.854,7.371,87.617,7.371z M177.344,7.684c-2.565,0-5.234,1.602-5.234,5.117c0,1.334,0.419,2.555,1.133,3.984
		c-3.521,1.094-5.391,4.147-5.391,7.617c0,6.326,4.813,9.766,10.234,9.766c3.377,0,6.041-1.07,8.516-3.164
		c1.521,1.097,3.041,2.158,3.945,2.539h5.859v-0.82c-1.904-0.189-4.771-1.748-7.813-3.984c1.092-1.807,1.356-4.419,1.641-6.367
		c0.24-1.664,1.461-1.624,2.266-1.719V19.91h-7.695v0.742c1.808,0.237,3.555,0.474,3.555,3.281c0,1.475-0.231,2.945-0.898,3.945
		c-6.753-5.28-12.969-12.589-12.969-16.25c0-1.81,1.092-2.656,2.852-2.656c2.189,0,4.275,1.44,5.273,4.297h0.742l-0.078-5.117H182.5
		c-0.045,0.333-0.359,0.547-0.547,0.547C181.002,8.699,179.678,7.684,177.344,7.684z M121.914,16.199
		c-3.519,0-5.547,2.19-5.547,4.805c0,5.709,9.766,4.558,9.766,9.219c0,1.568-1.475,2.5-3.945,2.5c-2.427,0-4.492-1.291-5.156-4.336
		h-1.016c0,1.239,0.192,3.523,0.43,3.906c0.667,1.094,3.389,1.68,5.625,1.68c4.042,0,6.523-2.35,6.523-5.156
		c0-6.28-9.688-5.291-9.688-9.336c0-1.427,1.283-2.148,2.852-2.148c3.186,0,4.599,2.945,4.883,3.945h0.742
		c0-2.474-0.276-4.03-0.469-4.219C126.724,16.868,124.292,16.199,121.914,16.199z M139.805,16.199c-4.948,0-8.281,3.942-8.281,9.414
		c0,4.278,2.189,8.398,8.086,8.398c2.423,0,5.337-0.979,6.953-2.734l-0.391-0.82c-1.569,0.951-3.294,1.406-4.961,1.406
		c-4.709,0-6.666-4.232-6.523-8.086h11.875C146.753,19.877,144.702,16.199,139.805,16.199z M231.641,16.199
		c-5.33,0-9.102,3.872-9.102,8.867c0,3.33,1.326,6.096,3.75,7.617c1.43,0.901,3.276,1.289,5.273,1.289
		c5.279,0,9.063-3.817,9.063-8.906c0-3.281-1.323-6.019-3.75-7.539C235.448,16.623,233.638,16.199,231.641,16.199z M50.938,16.316
		c-5.091,0-8.906,4.567-8.906,9.609c0,3.995,2.236,8.086,8.086,8.086c2.423,0,5.337-0.977,6.953-2.734l-0.391-0.82
		c-1.569,0.95-3.297,1.406-4.961,1.406c-4.709,0-6.484-3.979-6.484-8.164c0-1.948,0.47-3.361,1.328-4.219
		c0.806-0.81,1.947-1.094,3.086-1.094c1.664,0,3.581,0.651,4.961,2.461l0.313-0.039c0.523-0.664,1.044-2.006,1.094-3.008
		C54.827,16.851,53.03,16.316,50.938,16.316z M106.055,16.316c-2.189,0-4.491,1.042-6.25,3.281v-3.047h-6.367v0.82
		c2.758,0.095,3.086,0.242,3.086,5v4.18c0,6.039-0.013,6.029-3.008,6.172v0.82h9.063v-0.82c-2.667-0.188-2.773-0.141-2.773-6.133
		V21.98c0-1.572,2.158-3.516,4.727-3.516c2.091,0,3.75,0.909,3.75,5v3.398c0,5.662-0.19,5.717-2.617,5.859v0.82h8.906v-0.82
		c-2.995-0.143-3.008-0.197-3.008-5.859v-3.789C111.563,17.937,108.766,16.316,106.055,16.316z M254.531,16.316
		c-2.331,0-4.606,1.472-5.938,3.281v-3.047h-6.367v0.82c2.763,0.095,3.086,0.242,3.086,5v4.844c0,5.472-0.078,5.463-2.93,5.508v0.82
		h8.984v-0.82c-2.521-0.237-2.773-0.242-2.773-5.664v-4.922c0-1.759,2.232-3.672,4.609-3.672c2.568,0,3.672,1.43,3.672,4.805v3.438
		c0,5.614-0.123,5.873-2.5,6.016v0.82h8.438v-0.82c-2.807-0.237-2.734-0.484-2.734-5.859v-4.766c0-1.712,2.167-3.633,4.688-3.633
		c2.143,0,3.516,1.286,3.516,4.805v3.906c0,5.138-0.026,5.359-2.5,5.547v0.82h8.945v-0.82c-3.091-0.143-2.969-0.561-2.969-5.508
		v-4.414c0-4.711-2.55-6.484-5.547-6.484c-2.708,0-4.916,1.525-6.484,3.711C259.06,17.698,257.386,16.316,254.531,16.316z
		 M287.07,16.316c-2.474,0-4.481,1.156-5.859,2.773v-2.539H275v0.82c2.615,0.095,2.93,0.255,2.93,5.82v11.602
		c0,6.042,0.136,6.498-2.813,6.641v0.82h9.102v-0.82c-3.232-0.092-3.008-0.627-3.008-6.953v-2.305
		c1.284,1.284,3.311,1.797,5.117,1.797c5.136,0,8.359-3.847,8.359-8.984C294.688,20.043,291.49,16.316,287.07,16.316z
		 M303.672,16.316c-1.856,0-4.58,0.669-6.055,1.953c0.096,0.808,0.814,2.376,1.289,2.852l0.43-0.078
		c0.76-1.854,2.058-3.203,4.102-3.203c2.237,0,3.164,1.583,3.164,3.438v1.953c0,1.284-5.678,1.525-8.008,3.477
		c-0.81,0.713-1.406,1.615-1.406,2.852c0,2.664,1.885,4.414,4.688,4.414c1.76,0,3.275-0.583,4.844-2.344
		c0.237,1.236,1.266,1.914,2.93,1.914h4.023h8.789v-0.82c-2.664-0.188-2.773-0.141-2.773-6.133V21.98
		c0-1.572,2.161-3.516,4.727-3.516c2.094,0,3.75,0.909,3.75,5v3.398c0,5.662-0.193,5.717-2.617,5.859v0.82h8.906v-0.82
		c-2.998-0.143-3.008-0.197-3.008-5.859v-3.789c0-5.138-2.794-6.758-5.508-6.758c-2.186,0-4.49,1.042-6.25,3.281v-3.047h-6.367v0.82
		c2.758,0.095,3.086,0.242,3.086,5v4.18c0,6.039-0.052,6.029-3.047,6.172h-0.703c-2.378,0-2.656-0.803-2.656-4.18V22.84
		c0-1.092-0.117-2.083-0.352-2.891C308.839,17.285,306.667,16.316,303.672,16.316z M147.383,16.785v0.82
		c1.948,0.095,2.111,0.37,4.727,6.172l4.453,9.844c-1.522,3.9-3.905,6.016-8.711,7.109c0.241,0.81,1.13,2.227,1.602,2.656
		c6.328-2.568,7.57-6.76,9.805-13.086l3.359-9.609c0.759-2.189,1.978-3.086,3.164-3.086v-0.82h-6.133v0.82
		c1.477,0.095,2.251,0.914,1.68,2.578l-3.281,9.648l-3.164-7.461c-0.853-2.044-1.172-2.842-1.172-3.555
		c0-0.667,0.367-1.065,1.602-1.211v-0.82H147.383z M333.242,16.785v0.82c1.948,0.095,2.15,0.37,4.766,6.172l4.414,9.844
		c-1.523,3.9-3.906,6.016-8.711,7.109c0.239,0.81,1.128,2.227,1.602,2.656c6.328-2.568,7.57-6.76,9.805-13.086l3.398-9.609
		c0.76-2.189,1.938-3.086,3.125-3.086v-0.82h-6.133v0.82c1.477,0.095,2.291,0.914,1.719,2.578l-3.281,9.648l-3.203-7.461
		c-0.856-2.044-1.172-2.842-1.172-3.555c0-0.667,0.367-1.065,1.602-1.211v-0.82H333.242z M139.141,17.605
		c2.661,0,4.289,1.744,4.336,4.883h-8.75C135.011,19.349,136.43,17.605,139.141,17.605z M231.172,17.605
		c3.044,0,6.055,2.945,6.055,8.555c0,3.948-1.744,6.367-5.313,6.367c-3.091,0-5.977-2.838-5.977-8.594
		C225.938,19.843,227.886,17.605,231.172,17.605z M173.867,18.035c2.38,4.233,6.822,8.725,11.484,12.148
		c-1.43,1.096-3.833,1.406-5.781,1.406c-4.995,0-8.945-3.531-8.945-8.242C170.625,20.399,171.916,18.559,173.867,18.035z
		 M285.547,18.465c3.516,0,5.703,2.625,5.703,6.953c0,4.424-1.842,7.266-5.313,7.266c-2.236,0-4.727-1.266-4.727-2.93v-8.438
		C281.211,19.89,283.264,18.465,285.547,18.465z M306.602,24.832v4.688c0,1.427-1.877,2.578-3.398,2.578
		c-1.427,0-2.617-0.9-2.617-2.852C300.586,25.775,304.178,26.163,306.602,24.832z"/>
	<rect id="rect3708" fill="none" width="360" height="45"/>
</g>
</svg>
