<?xml version="1.0" encoding="utf-8"?>
<!-- Generator: Adobe Illustrator 15.1.0, SVG Export Plug-In . SVG Version: 6.00 Build 0)  -->
<!DOCTYPE svg PUBLIC "-//W3C//DTD SVG 1.1//EN" "http://www.w3.org/Graphics/SVG/1.1/DTD/svg11.dtd">
<svg version="1.1" id="Layer_1" xmlns="http://www.w3.org/2000/svg" xmlns:xlink="http://www.w3.org/1999/xlink" x="0px" y="0px"
	 width="500px" height="500px" viewBox="0 0 500 500" enable-background="new 0 0 500 500" xml:space="preserve">
<g>
	<path fill="#FFFFFF" d="M250,5C114.69,5,5,114.69,5,250s109.69,245,245,245c135.311,0,245-109.689,245-245S385.311,5,250,5z
		 M250,451.244c-111.145,0-201.245-90.1-201.245-201.244c0-111.146,90.101-201.245,201.245-201.245
		c111.146,0,201.245,90.101,201.245,201.245C451.245,361.146,361.146,451.244,250,451.244z"/>
	<polygon fill="#FFFFFF" points="213.9,147.11 289.96,222.959 126.041,222.959 126.041,276.897 289.96,276.897 213.9,352.534 
		287.432,352.534 386.748,249.981 287.432,147.11 	"/>
</g>
</svg>
