<?xml version="1.0" encoding="utf-8"?>
<!-- Generator: Adobe Illustrator 15.1.0, SVG Export Plug-In . SVG Version: 6.00 Build 0)  -->
<!DOCTYPE svg PUBLIC "-//W3C//DTD SVG 1.1//EN" "http://www.w3.org/Graphics/SVG/1.1/DTD/svg11.dtd">
<svg version="1.1" id="Layer_1" xmlns="http://www.w3.org/2000/svg" xmlns:xlink="http://www.w3.org/1999/xlink" x="0px" y="0px"
	 width="600px" height="600px" viewBox="100 0 600 600" enable-background="new 100 0 600 600" xml:space="preserve">
<g>
	<g>
		<path fill="#FFFFFF" d="M392.02,6c101.7,0,201.84,46.858,201.84,158.88c0,103.32-118.38,143.04-143.82,180.358
			c-19.08,27.78-12.72,66.78-65.16,66.78c-34.2,0-50.88-27.78-50.88-53.22c0-94.62,139.02-116.04,139.02-193.92
			c0-42.9-28.5-68.34-76.26-68.34C295.12,96.6,334.84,201.42,257.8,201.42c-27.84,0-51.66-16.681-51.66-48.48
			C206.08,75.06,295.06,6,392.02,6z M388.06,463.68c35.7,0,65.16,29.398,65.16,65.16c0,35.818-29.398,65.158-65.16,65.158
			s-65.16-29.34-65.16-65.158C322.9,493.02,352.3,463.68,388.06,463.68z"/>
	</g>
</g>
</svg>
