<?xml version="1.0" encoding="utf-8"?>
<!-- Generator: Adobe Illustrator 15.1.0, SVG Export Plug-In . SVG Version: 6.00 Build 0)  -->
<!DOCTYPE svg PUBLIC "-//W3C//DTD SVG 1.1//EN" "http://www.w3.org/Graphics/SVG/1.1/DTD/svg11.dtd">
<svg version="1.1" id="Layer_1" xmlns="http://www.w3.org/2000/svg" xmlns:xlink="http://www.w3.org/1999/xlink" x="0px" y="0px"
	 width="488px" height="512px" viewBox="0 0 488 512" enable-background="new 0 0 488 512" xml:space="preserve">
<path fill="#FFFFFF" d="M266.141,113.077V79.399l56.568-55.932c8.26,2.733,16.336,5.918,24.164,9.514l-80.734,80.098
	L266.141,113.077z M409.279,74.118L266.141,216.62c0,0,0.883,4.665,5.424,10.254c4.541,5.568,12.289,6.986,12.289,6.986
	L426.088,90.989C420.787,85.092,415.156,79.461,409.279,74.118L409.279,74.118z M266.141,44.467l29.014-28.377
	c-9.268-1.911-19.377-3.287-29.014-4.11V44.467L266.141,44.467z M484.014,205.236l-27.985,28.604h31.993
	C487.22,224.345,485.863,214.38,484.014,205.236L484.014,205.236z M476.657,177.639c-2.733-8.281-5.897-16.356-9.474-24.206
	l-79.768,80.405h33.678L476.657,177.639L476.657,177.639z M455.226,130.481c-4.13-6.986-8.589-13.767-13.396-20.28L318.807,233.859
	h33.699L455.226,130.481L455.226,130.481z M390.087,58.377c-6.514-4.81-13.274-9.288-20.26-13.418L266.141,148.008v33.679
	L390.087,58.377z M225.537,251.428c0-57.124,0-201.393,0-210.702c0-12.781-11.117-28.315-29.322-24.473
	C86.18,39.555,3.431,136.892,3.431,253.832c0,134.057,108.68,242.756,242.736,242.756c116.94,0,214.277-82.748,237.578-192.764
	c2.363-11.115-3.904-29.343-23.712-29.343c-62.096,0-206.366,0-211.463,0C242.057,274.482,225.536,267.516,225.537,251.428
	L225.537,251.428z"/>
</svg>
