<?xml version="1.0" encoding="utf-8"?>
<!-- Generator: Adobe Illustrator 15.1.0, SVG Export Plug-In . SVG Version: 6.00 Build 0)  -->
<!DOCTYPE svg PUBLIC "-//W3C//DTD SVG 1.1//EN" "http://www.w3.org/Graphics/SVG/1.1/DTD/svg11.dtd">
<svg version="1.1" id="Layer_1" xmlns="http://www.w3.org/2000/svg" xmlns:xlink="http://www.w3.org/1999/xlink" x="0px" y="0px"
	 width="512px" height="512px" viewBox="0 0 512 512" enable-background="new 0 0 512 512" xml:space="preserve">
<path fill="#FBDFB4" d="M144.843,428.58c4.628,7.027,12.496,11.69,21.639,11.735c14.179,0.034,25.8-11.519,25.8-25.8
	c0,0-0.034-45.95-0.068-56.195c0-10.2,10.825-24.959,24.709-25.005c0.194,0,139.749-0.271,139.749-0.271
	c30.042,0,154.021-13.261,154.021-286.673c0,165.129-123.979,177.171-154.021,177.171H217.617
	c-0.352-0.148-25.619,0.455-25.619-26.665c0-13.852-0.034-52.363-0.034-52.363c0.137-1.024,0.364-2.036,0.33-3.173
	c0.034-1.137-0.25-2.229-0.364-3.275v-0.146c-1.672-12.531-12.315-22.378-25.437-22.378c-7.982-0.034-15.01,3.638-19.717,9.29
	l-0.068-0.068l-1.308,1.751c-0.148,0.216-0.25,0.33-0.398,0.479L10.347,259.099C5.241,263.84,2.035,270.47,2.08,278.02
	c0,7.438,3.172,14.102,8.232,18.796L144.843,428.58L144.843,428.58z"/>
</svg>
