<?xml version="1.0" encoding="utf-8"?>
<!-- Generator: Adobe Illustrator 15.1.0, SVG Export Plug-In . SVG Version: 6.00 Build 0)  -->
<!DOCTYPE svg PUBLIC "-//W3C//DTD SVG 1.1//EN" "http://www.w3.org/Graphics/SVG/1.1/DTD/svg11.dtd">
<svg version="1.1" id="Layer_1" xmlns="http://www.w3.org/2000/svg" xmlns:xlink="http://www.w3.org/1999/xlink" x="0px" y="0px"
	 width="500px" height="500px" viewBox="0 0 500 500" enable-background="new 0 0 500 500" xml:space="preserve">
<path fill="#002D5A" d="M392.897,223.729v-85.101C392.897,64.945,328.792,5,249.998,5c-78.796,0-142.899,59.946-142.899,133.629
	v85.108c-19.15,27.874-30.367,61.62-30.367,97.995C76.732,417.427,154.307,495,250,495c95.695,0,173.268-77.573,173.268-173.268
	C423.268,285.354,412.049,251.604,392.897,223.729z M267.973,332.119v57.317c0,9.924-8.048,17.973-17.973,17.973
	c-9.926,0-17.973-8.049-17.973-17.973v-57.317c-9.947-6.075-16.61-16.996-16.61-29.505c0-19.1,15.483-34.585,34.583-34.585
	s34.583,15.485,34.583,34.585C284.583,315.123,277.92,326.044,267.973,332.119z M335.61,211.164
	c-21.629-16.035-37.125-30.238-85.61-30.238c-49.198,0-70.589,18.373-85.614,30.242v-72.539c0-42.096,38.404-76.342,85.612-76.342
	c47.204,0,85.612,34.246,85.612,76.342V211.164z"/>
</svg>
